<svg width="34" height="33" viewBox="0 0 34 33" fill="none" xmlns="http://www.w3.org/2000/svg">
<g clip-path="url(#clip0_2257_9431)">
<path d="M5.12576 17.9657C5.95408 17.5565 6.86363 17.6374 7.74579 17.5501C8.0282 17.4112 8.2426 17.5317 8.43527 17.7238C8.50989 17.7983 8.55806 17.893 8.59017 17.9914C9.0407 19.3872 9.49689 20.7811 9.90774 22.1888C10.2194 23.0844 10.4896 23.9919 10.7748 24.8948C10.8126 25.0144 10.839 25.1367 10.907 25.2452C11.3849 26.8634 11.928 28.4633 12.4466 30.0825C13.0019 28.4532 13.5214 26.8202 14.0286 25.1826C14.3119 24.3064 14.5764 23.4246 14.8597 22.5483C14.8985 22.4297 14.9372 22.3102 14.9863 22.1943C15.2829 21.1333 15.6427 20.0906 15.9686 19.0387C16.08 18.6773 16.1688 18.3068 16.3209 17.9583C16.4994 17.5491 16.8063 17.414 17.2219 17.5501C18.0956 17.6889 18.9692 17.8277 19.8429 17.9666C20.1225 18.3518 20.232 18.8051 20.2717 19.252C20.3095 19.6759 20.3473 20.0961 20.4483 20.508C20.5428 20.8942 20.4342 21.2096 20.1659 21.4845C19.8505 21.8091 19.8268 22.233 19.5 22.5483C19.3479 22.6945 19.2526 23.0652 19.2602 23.2812C19.2743 23.6904 19.1128 23.7501 19.2602 24.1243C19.4273 24.55 19.5331 25.203 19.2602 25.5625C18.8484 26.1059 18.2467 26.3577 17.817 26.8883C16.251 28.8228 14.6793 30.7537 13.1256 32.6975C13.0104 32.8419 12.8772 32.9357 12.6959 32.9706C12.5533 32.9706 12.4116 32.9706 12.269 32.9706C12.0886 32.9357 11.9545 32.8419 11.8392 32.6975C9.88885 30.2701 7.9328 27.8464 5.96919 25.4281C5.64995 25.0346 5.52622 24.6447 5.69812 24.1565C5.81618 23.8218 5.86624 23.4651 5.96353 23.1239C6.05136 22.815 5.96353 22.5998 5.73212 22.3929C5.43744 22.13 5.16731 21.8403 4.87924 21.57C4.5175 21.2307 4.39661 20.8464 4.51467 20.3554C4.67145 19.7099 4.73851 19.0451 4.8698 18.3932C4.90474 18.2176 4.95197 18.0595 5.12292 17.9657H5.12576Z" fill="#305D7E"/>
<path d="M5.12574 17.9656C4.67333 19.7025 3.91395 21.5019 6.22891 22.5869C4.76022 25.9881 8.07446 27.2119 9.32214 29.3258C10.1051 30.6526 11.2744 31.7624 12.2709 32.9697C9.88978 32.9697 7.50871 32.9697 5.12857 32.9697C4.96518 32.8133 4.9954 32.6101 4.9954 32.4189C4.99162 31.0792 4.9954 29.7395 4.99257 28.3999C4.99257 28.2518 5.00296 28.101 4.96612 27.9548C4.90945 27.7305 4.73944 27.6312 4.52221 27.6404C4.31158 27.6496 4.17841 27.7774 4.14913 27.9879C4.1293 28.136 4.13496 28.2849 4.13496 28.4339C4.13402 29.7616 4.13685 31.0902 4.13213 32.418C4.13213 32.6092 4.16141 32.8124 3.99896 32.9687C2.84856 32.9724 1.69816 32.9816 0.547765 32.977C0.191689 32.9761 0.0434034 32.7517 0.0254579 32.4281C-0.00854397 32.3518 0.00279 32.2709 0.00279 32.1909C0.00279 29.78 0.00279 27.3691 0.00279 24.9583C0.00279 24.8792 -0.00759947 24.7983 0.0254579 24.721C0.214357 21.3879 2.63416 18.1836 5.12763 17.9647L5.12574 17.9656Z" fill="#34658A"/>
<path d="M5.98807 8.95389C4.72056 4.88245 7.10541 0.29794 12.0716 0.0119827C17.0028 -0.272135 20.641 4.49627 18.9192 8.94653C18.8691 9.0063 18.7954 9.02469 18.7303 9.00354C18.3364 8.87757 17.9293 8.89228 17.5242 8.87849C17.3985 8.82332 17.3268 8.71666 17.2644 8.60633C16.9631 8.07579 16.4795 7.80546 15.8807 7.78432C14.9164 7.75029 14.2439 7.28688 13.7367 6.53199C13.7046 6.48418 13.6725 6.43544 13.6064 6.40602C13.4477 6.42901 13.408 6.57888 13.3306 6.6837C12.7988 7.39905 12.1207 7.81466 11.1762 7.76592C10.601 7.7365 10.022 7.77144 9.44588 7.75765C8.63928 7.73834 7.99041 7.98752 7.59938 8.71758C7.56633 8.77827 7.5191 8.83068 7.45676 8.86746C6.96468 8.85091 6.48299 8.99802 5.98902 8.95297L5.98807 8.95389Z" fill="#34658A"/>
<path d="M7.45959 8.81045C7.76561 7.97556 8.42109 7.67673 9.28247 7.64363C10.8673 7.58295 12.693 8.14659 13.647 5.79181C14.0059 8.24589 16.8498 6.99816 17.509 8.81045C17.6488 8.95205 17.6885 9.13502 17.6923 9.318C17.7149 10.4149 17.7669 11.5137 17.5685 12.6033C17.5336 12.7964 17.4864 12.984 17.3636 13.1449C16.8422 13.8832 16.3209 14.6215 15.7986 15.3599C15.2706 15.9005 14.5981 16.2132 13.8822 16.397C12.3691 16.7869 10.9221 16.6048 9.58848 15.769C9.39203 15.6458 9.18802 15.5235 9.09829 15.2937C8.60149 14.5599 8.10374 13.8271 7.60693 13.0934C7.30375 12.7853 7.29808 12.378 7.27541 12.002C7.22158 11.0779 7.25274 10.151 7.25936 9.22513C7.2603 9.05963 7.30091 8.90699 7.45864 8.81045H7.45959Z" fill="#FBD5A7"/>
<path d="M12.6977 32.9696C14.1513 31.1969 15.6427 29.4517 17.0434 27.6394C17.8235 26.6308 19.3933 25.7389 19.1297 24.527C18.7973 22.9988 19.3914 22.255 20.1772 21.1599C20.7807 20.3186 20.0865 19.0368 19.8438 17.9656C21.9491 18.5421 23.3016 19.9572 24.3084 21.7594C24.3793 21.9074 24.2706 21.9792 24.1658 22.026C23.4603 22.3405 22.7698 22.6945 21.95 22.6338C21.5533 22.6044 21.1869 22.5308 20.8506 22.3138C20.4757 22.0711 20.1914 22.0739 20.0336 22.2964C19.8702 22.5281 19.9987 22.7947 20.3604 23.0651C20.6249 23.2627 20.9847 23.2811 21.219 23.5248C21.3087 23.7041 21.2133 23.8567 21.1425 24.0121C20.5994 25.212 20.0421 26.4055 19.5085 27.6091C19.2563 28.2077 19.4547 28.763 19.6832 29.3147C19.7418 29.4563 19.8646 29.5897 19.7559 29.7588C19.6672 29.882 19.6974 30.0246 19.6955 30.1588C19.6861 30.9238 19.6955 31.6897 19.6898 32.4547C19.6889 32.635 19.7116 32.8253 19.5567 32.9696C17.27 32.9696 14.9834 32.9696 12.6968 32.9696H12.6977Z" fill="#34658A"/>
<path d="M9.80958 22.2403C9.35716 20.805 8.92364 19.3632 8.42872 17.9417C8.36449 17.7578 7.98103 17.6788 7.74585 17.551C8.19543 17.1868 8.64501 16.8227 9.09459 16.4577C9.38361 16.3749 9.55928 16.5726 9.74346 16.7207C10.5869 17.4002 11.4256 18.0842 12.2681 18.7656C12.3219 18.8088 12.3673 18.8649 12.4797 18.8824C12.9075 18.5863 13.3118 18.2194 13.7368 17.8792C14.2185 17.4939 14.6945 17.1013 15.1762 16.7142C15.3642 16.5634 15.5474 16.3887 15.8204 16.3897C16.2879 16.7758 16.7554 17.1629 17.2229 17.5491C15.8364 17.7845 16.2595 19.0644 15.8629 19.8561C15.4917 20.5963 15.3377 21.4394 15.0884 22.2375C14.839 22.3028 14.7162 22.0904 14.5406 21.9966C14.4187 21.9313 14.3092 21.844 14.1911 21.7713C13.614 21.4091 13.0926 20.9659 12.4494 20.6146C11.8346 20.9889 11.265 21.4219 10.6747 21.8247C10.5009 21.9396 10.3366 22.0693 10.1553 22.1741C10.0504 22.2348 9.94842 22.3405 9.80863 22.2403H9.80958Z" fill="#DCE8EC"/>
<path d="M21.1767 23.5533C20.7158 23.3216 20.2549 23.0899 19.8676 22.895C19.8213 22.4739 19.7769 22.13 20.1132 22.0619C20.3606 22.0123 20.678 22.1162 20.9188 22.2366C22.1731 22.8637 23.2527 22.4178 24.3077 21.7594C24.8904 21.6436 25.4732 21.5286 26.0569 21.4128C26.4394 21.2123 26.821 21.2123 27.2035 21.4128C29.254 21.8872 31.1647 23.1258 33.6384 21.8753C33.2407 23.1239 32.7014 23.317 32.148 23.4917C32.1215 23.5083 32.096 23.5267 32.0715 23.546H32.0743C32.0431 23.5754 32.0091 23.6011 31.9742 23.626C31.5142 23.7878 31.041 23.7593 30.5669 23.7142C30.4365 23.7014 30.3241 23.6425 30.2306 23.5524C29.2427 23.2343 28.2547 22.9161 27.2668 22.5971C27.2366 22.6201 27.2054 22.6394 27.1714 22.6559C26.8389 22.6927 26.5036 22.5897 26.1721 22.6817C26.1353 22.6844 26.0985 22.6863 26.0616 22.6872C25.5828 22.7221 25.1285 22.8508 24.6845 23.0219C24.099 23.271 23.5256 23.5542 22.8862 23.6609C22.4357 23.7777 21.9804 23.7648 21.5243 23.706C21.3949 23.6894 21.2749 23.6434 21.1776 23.5533H21.1767Z" fill="#FDBB42"/>
<path d="M33.7819 27.5401C33.8546 27.8868 33.9264 28.2334 34.001 28.5874C33.6213 29.7092 32.9356 30.5606 31.6936 30.7583C30.6046 30.9311 29.5864 30.6866 28.9007 29.7459C28.42 29.0867 28.0979 28.3704 28.4804 27.542C28.8705 27.2339 29.3229 27.3581 29.7583 27.3663C30.6622 27.3084 31.568 27.359 32.4718 27.336C32.7524 27.3277 33.0319 27.3535 33.3115 27.3507C33.4966 27.3489 33.6544 27.4077 33.7819 27.5401Z" fill="#FDBB42"/>
<path d="M15.8193 16.3897C14.6963 17.2678 13.5723 18.1459 12.4748 19.0046C11.3528 18.1587 10.2232 17.3082 9.09448 16.4568C9.09543 16.0688 9.09732 15.6817 9.09826 15.2936C11.315 16.9377 13.5497 16.8089 15.7985 15.3598C15.8051 15.7028 15.8117 16.0467 15.8193 16.3897Z" fill="#FBCD97"/>
<path d="M29.7489 27.4712C29.3258 27.4951 28.9027 27.519 28.4805 27.542C29.0642 26.2124 29.6469 24.8819 30.2306 23.5524C30.8247 23.5524 31.4179 23.5524 32.0119 23.5524C32.0365 23.5735 32.0563 23.5983 32.0724 23.6268C32.6419 24.9316 33.2124 26.2363 33.7819 27.5401C33.3588 27.4951 32.9357 27.4491 32.5125 27.4041C32.2811 27.3434 32.2415 27.1328 32.164 26.9627C31.8674 26.3163 31.5718 25.669 31.2771 25.0217C31.2441 24.95 31.2261 24.8681 31.1241 24.8139C30.9522 24.9693 30.8937 25.1936 30.8039 25.3932C30.5565 25.9485 30.2873 26.4938 30.0427 27.0501C29.9737 27.2073 29.8972 27.3627 29.7499 27.4703L29.7489 27.4712Z" fill="#E9AB3B"/>
<path d="M23.5179 32.9697C22.6452 32.9697 21.7725 32.9697 20.8998 32.9697C20.8044 32.8878 20.7742 32.7775 20.7713 32.6616C20.7572 32.0805 20.7524 31.5003 20.7742 30.9192C20.7779 30.8273 20.8025 30.739 20.8563 30.6618C21.016 30.499 21.2039 30.5726 21.3853 30.6038C21.8651 30.6875 22.3449 30.7068 22.8181 30.5818C23.6719 30.3565 24.2565 29.8361 24.5663 29.0269C24.6154 28.8982 24.6466 28.7603 24.7411 28.6546C24.827 28.558 24.9252 28.4964 25.0121 28.661C25.0867 28.8476 25.0726 29.0435 25.0669 29.2357C25.0433 30.088 25.1273 30.9422 25.0187 31.7927C24.9403 31.9739 24.7713 31.9803 24.6069 31.9895C24.3614 32.0033 24.1148 31.9803 23.8702 32.007C23.3564 32.0621 23.21 32.338 23.4565 32.7793C23.4896 32.8391 23.534 32.8943 23.5151 32.9687L23.5179 32.9697Z" fill="#34658A"/>
<path d="M7.45952 8.81043C7.36129 10.243 7.27345 11.6755 7.60686 13.0943C6.55658 13.086 5.85387 12.5049 5.41563 11.6691C4.88577 10.6595 4.9226 9.68393 5.98705 8.95387C6.47724 8.90605 6.96838 8.85824 7.45857 8.80951L7.45952 8.81043Z" fill="#FBCD97"/>
<path d="M17.3635 13.1458C17.6025 11.7068 17.6507 10.2623 17.509 8.81134C17.9793 8.85639 18.4488 8.90237 18.9191 8.94742C19.4726 9.31245 19.8532 9.8007 19.8051 10.4692C19.6983 11.955 18.8879 12.8681 17.3635 13.1458Z" fill="#FBCD97"/>
<path d="M23.5179 32.9697C23.4083 32.749 23.1562 32.4814 23.2138 32.3159C23.4423 31.6622 24.0676 31.9389 24.5483 31.881C24.6749 31.8654 24.8043 31.8718 24.9328 31.8681C25.2775 31.6649 25.6515 31.7652 26.0151 31.7698C26.0576 31.7725 26.1001 31.7744 26.1436 31.7734C26.4827 31.7514 26.8227 31.7201 27.1599 31.8001C27.1977 31.8194 27.2335 31.8424 27.2666 31.8691C28.2026 32.0741 29.318 31.4415 30.4099 32.7113C27.9476 33.2281 25.7138 32.875 23.5179 32.9706V32.9697Z" fill="#FDBB42"/>
<path d="M3.99813 32.9696C3.99813 31.3449 4.0038 29.7202 3.99247 28.0955C3.98963 27.7112 4.16531 27.4886 4.5365 27.4859C4.91713 27.4822 5.13247 27.6937 5.13058 28.0955C5.12397 29.7202 5.12775 31.3449 5.12681 32.9696H3.99719H3.99813Z" fill="#305D7E"/>
<path d="M20.9791 30.637C20.9527 31.4148 20.9262 32.1918 20.8998 32.9697C20.5465 32.9697 20.1933 32.9697 19.841 32.9697C19.756 32.897 19.7163 32.7996 19.7154 32.6948C19.7097 31.779 19.6653 30.8641 19.738 29.9492C19.7645 29.8885 19.7843 29.8214 19.9279 29.7837C20.2348 30.0798 20.7014 30.2388 20.9791 30.637Z" fill="#305D7E"/>
<path d="M27.2035 21.4128C26.821 21.4128 26.4394 21.4128 26.0569 21.4128C26.0569 20.9678 26.0569 20.5227 26.0569 20.0216C26.2826 19.903 26.5178 19.7789 26.7076 19.6786C27.6162 20.1071 27.0458 20.8455 27.2035 21.4119V21.4128Z" fill="#E9AB3B"/>
<path d="M19.8439 29.8067C19.8439 30.8613 19.842 31.915 19.8411 32.9697C19.7466 32.9697 19.6522 32.9697 19.5568 32.9697C19.5568 31.9794 19.5502 30.9882 19.5662 29.9979C19.5681 29.8885 19.7032 29.7818 19.7768 29.6743C19.877 29.6816 19.8845 29.7322 19.843 29.8067H19.8439Z" fill="#34658A"/>
<path d="M27.2667 31.8682L27.2356 31.8764H27.2034C27.0599 31.744 27.057 31.5702 27.0561 31.3974C27.0542 28.6206 27.0542 25.8447 27.0561 23.0679C27.0561 22.895 27.0589 22.7212 27.2034 22.5888C27.2252 22.586 27.2469 22.5888 27.2667 22.5971V31.8672V31.8682Z" fill="#FFFDFB"/>
<path d="M32.0714 23.6269C32.0516 23.602 32.0308 23.5772 32.011 23.5524C32.0318 23.5505 32.0525 23.5487 32.0733 23.5478C32.0733 23.5745 32.0724 23.6011 32.0714 23.6278V23.6269Z" fill="#FAF0E2"/>
<path d="M14.1107 25.213C13.5799 26.948 13.0481 28.6821 12.4474 30.6443C11.8703 28.707 11.3584 26.9885 10.8455 25.27C10.7756 25.1422 10.7738 25.0024 10.7936 24.8672C10.8871 24.2438 10.9967 23.6232 11.1091 23.0035C11.1279 22.9014 11.1638 22.8039 11.2403 22.7267C11.3291 22.6596 11.4132 22.6908 11.5001 22.7368C12.1423 23.0816 12.7893 23.0393 13.4372 22.7524C13.5015 22.7239 13.5619 22.6881 13.6365 22.7147C13.7178 22.7708 13.7669 22.8508 13.781 22.9428C13.8982 23.6986 14.1192 24.4397 14.1107 25.213Z" fill="#F26B6C"/>
<path d="M11.2934 22.723C11.1441 23.5717 10.9949 24.4213 10.8466 25.27C10.5009 24.2595 10.1553 23.2499 9.80957 22.2394L10.653 21.7567C10.9807 21.8688 11.3255 22.3874 11.2943 22.7221L11.2934 22.723Z" fill="#C9D5D9"/>
<path d="M14.1109 25.2129C13.9418 24.3836 13.7737 23.5542 13.6046 22.7248C13.5187 22.6025 13.5942 22.4996 13.6613 22.4113C13.8483 22.1667 13.9465 21.8532 14.2441 21.6941C14.5255 21.8752 14.807 22.0554 15.0884 22.2366C14.7626 23.2287 14.4367 24.2208 14.1109 25.212V25.2129Z" fill="#C9D5D9"/>
<path d="M19.844 29.8067C19.8223 29.7626 19.7996 29.7184 19.7779 29.6743C19.3717 29.0095 19.0572 28.33 19.4284 27.5439C19.8157 27.2312 20.27 27.3636 20.7044 27.36C21.6026 27.3186 22.5009 27.3508 23.3991 27.3388C23.8269 27.371 24.2652 27.28 24.6808 27.4492C24.8111 27.5062 24.8819 27.6211 24.9669 27.7232C25.0236 28.01 25.102 28.2987 24.9226 28.5746C24.2491 30.4218 22.9476 31.1317 20.9812 30.6361C20.6024 30.3593 20.2246 30.0825 19.8459 29.8058L19.844 29.8067Z" fill="#FDBB42"/>
<path d="M24.7079 27.5447C24.2914 27.4988 23.8749 27.4519 23.4584 27.4059C23.2279 27.3434 23.1882 27.1337 23.1098 26.9627C22.818 26.3264 22.528 25.6883 22.2362 25.0511C22.1984 24.9693 22.1738 24.8792 22.0964 24.8194C21.9594 24.847 21.9519 24.9656 21.9103 25.052C21.5779 25.7462 21.2756 26.4533 20.9451 27.1484C20.8855 27.2726 20.8355 27.4031 20.6967 27.4693C20.2735 27.4942 19.8504 27.519 19.4272 27.5429C20.01 26.2124 20.5928 24.8829 21.1755 23.5524C21.7696 23.5524 22.3646 23.5524 22.9587 23.5524C23.0947 23.6719 23.159 23.8356 23.2288 23.9919C23.7058 25.053 24.2092 26.1021 24.6834 27.165C24.7363 27.2845 24.8373 27.4096 24.707 27.5438L24.7079 27.5447Z" fill="#E9AB3B"/>
<path d="M14.244 21.6951C14.0306 22.0389 13.8181 22.3819 13.6046 22.7258C12.8339 23.2802 12.0632 23.2462 11.2934 22.723C11.08 22.4012 10.8665 22.0794 10.6521 21.7576C11.2462 21.3245 11.8393 20.8924 12.4514 20.4464C13.0851 20.8878 13.6641 21.2914 14.244 21.6951Z" fill="#E86262"/>
<path d="M27.2025 22.5887C27.2025 25.6846 27.2025 28.7805 27.2025 31.8764C26.8464 31.8764 26.4903 31.8773 26.1342 31.8782C26.0738 31.7826 26.1002 31.6769 26.1002 31.5766C26.0984 28.6812 26.0984 25.7848 26.1002 22.8894C26.1002 22.7883 26.0738 22.6825 26.1342 22.5878C26.4903 22.5878 26.8464 22.5887 27.2025 22.5897V22.5887Z" fill="#E9AB3B"/>
<path d="M24.6485 22.9427C25.0735 24.527 24.8988 26.1425 24.9205 27.7489C24.8497 27.6808 24.7788 27.6118 24.708 27.5438C24.1252 26.2133 23.5425 24.8838 22.9597 23.5533C23.5226 23.3501 24.0865 23.146 24.6494 22.9427H24.6485Z" fill="#34658A"/>
<path d="M26.1343 22.5869V31.8782C26.1079 31.8782 26.0824 31.8773 26.0559 31.8764C26.0559 28.7805 26.0559 25.6846 26.0559 22.5888C26.0824 22.5888 26.1079 22.5878 26.1343 22.5869Z" fill="#E9AC3C"/>
<path d="M20.6968 27.4703C21.1341 26.4993 21.5723 25.5274 22.0606 24.4424C22.565 25.5127 23.0117 26.4598 23.4585 27.4059C22.5376 27.4271 21.6177 27.4491 20.6968 27.4703Z" fill="#34658A"/>
</g>
<defs>
<clipPath id="clip0_2257_9431">
<rect width="34" height="33" fill="white"/>
</clipPath>
</defs>
</svg>
