<svg width="29" height="34" viewBox="0 0 29 34" fill="none" xmlns="http://www.w3.org/2000/svg">
<g clip-path="url(#clip0_2257_9227)">
<path d="M13.4684 34C8.47675 33.4195 7.41814 29.3069 6.24342 25.2997C6.22635 25.157 6.31086 25.0693 6.40733 24.9993C7.72206 24.044 8.91471 22.9053 10.3353 22.1113C11.4938 21.4635 12.7471 21.1348 14.0626 21.0798C14.2581 21.0719 14.4801 21.0435 14.5783 21.3031C14.6261 21.4653 14.6167 21.6319 14.6167 21.7976C14.6167 25.6657 14.6176 29.5337 14.6167 33.4018C14.6167 33.6083 14.6491 33.8272 14.4904 33.9991H13.9798C13.944 33.9583 13.897 33.9672 13.8518 33.9654C13.8065 33.9672 13.7596 33.9583 13.7237 33.9991H13.4684V34Z" fill="#F69FB1"/>
<path d="M14.4902 34C14.4902 29.7296 14.4919 25.4601 14.4928 21.1898C14.503 21.1765 14.5124 21.1623 14.5227 21.1481C14.7327 21.032 14.9598 21.0701 15.1783 21.0914C16.943 21.2633 18.5411 21.8836 19.9498 23.0152C20.7642 23.6692 21.6009 24.2931 22.4264 24.9338C22.5528 25.0321 22.6945 25.1207 22.7218 25.3051C21.8484 27.0712 21.775 29.1545 20.6481 30.8293C19.3863 32.7045 17.643 33.6757 15.513 34.0009H15.449C15.4234 33.9725 15.3901 33.9672 15.3559 33.9672C15.3329 33.9672 15.3098 33.9672 15.2876 33.9672C15.2526 33.9672 15.2193 33.9717 15.1946 34.0009H14.4919L14.4902 34Z" fill="#F27A94"/>
<path d="M3.31131 11.2816C0.373664 8.64799 -0.247844 5.1973 0.0774236 1.40544C0.131208 0.786906 0.284024 0.261416 0.88675 0H0.950779C0.966999 0.0177231 0.986635 0.028357 1.00969 0.0319016C1.03274 0.0327877 1.05579 0.0336739 1.07798 0.0336739C1.10103 0.0336739 1.12408 0.0336739 1.14628 0.0319016C1.16933 0.0274708 1.18897 0.0177231 1.20519 0H2.03586C2.07086 0.039877 2.11696 0.0319016 2.16135 0.0336739C2.18355 0.0336739 2.20575 0.0336739 2.22794 0.0336739C2.26124 0.0336739 2.29453 0.0336739 2.32783 0.0336739C2.35002 0.0336739 2.37222 0.0336739 2.39356 0.0336739C2.42686 0.0336739 2.45845 0.0274708 2.48321 0H2.54723C2.70346 0.0948186 2.87848 0.051397 3.04495 0.0762093C4.68495 0.319902 6.10212 1.05452 7.32465 2.20298C7.66358 2.52111 7.98884 2.85785 8.26203 3.24244C8.33801 3.34878 8.4268 3.44626 8.45327 3.58273C8.44473 3.75641 8.3124 3.81756 8.19203 3.88579C6.5341 4.83043 5.2706 6.1827 4.41432 7.92932C3.96014 8.85623 3.64939 9.84252 3.4795 10.8731C3.45474 11.0229 3.45559 11.1859 3.31046 11.2834L3.31131 11.2816Z" fill="#5A7983"/>
<path d="M28.0959 0.0557984C29.4209 1.07488 28.9036 2.57602 28.8839 3.85386C28.8404 6.56372 27.9593 8.99799 26.0368 10.9334C25.9249 11.0459 25.7917 11.1336 25.668 11.2329C25.4443 11.1735 25.4853 10.9599 25.4554 10.8049C25.2573 9.78135 24.973 8.79063 24.5146 7.85662C23.7257 6.25002 22.5749 4.99611 21.1108 4.04084C20.8948 3.89994 20.6028 3.83791 20.5269 3.52066C20.7821 2.97213 21.2047 2.56362 21.6307 2.17282C22.7132 1.17856 23.9477 0.47495 25.3709 0.147959C25.7021 0.0717492 26.047 0.123146 26.3697 -0.000915527H26.4337C26.4576 0.024783 26.4875 0.0327584 26.5208 0.0327584C26.5422 0.0327584 26.5644 0.0327584 26.5857 0.0327584C26.6079 0.0327584 26.6301 0.0327584 26.6523 0.0327584C26.6745 0.0327584 26.6975 0.0327584 26.7197 0.0327584C26.7428 0.0327584 26.765 0.0327584 26.788 0.0327584C26.823 0.0327584 26.8563 0.0283276 26.8811 -0.000915527H27.7749C27.7912 0.0159214 27.8099 0.0265553 27.833 0.0309861C27.8552 0.0318722 27.8782 0.0327584 27.9004 0.0327584C27.9226 0.0327584 27.9457 0.0327584 27.9679 0.0327584C27.9901 0.0327584 28.0131 0.0327584 28.0353 0.0327584C28.0584 0.0327584 28.0789 0.0398476 28.0976 0.0549122L28.0959 0.0557984Z" fill="#535E63"/>
<path d="M26.8802 0C26.8375 0.0212677 26.794 0.0416493 26.7513 0.062917C26.7282 0.0487385 26.7214 0.03456 26.7291 0.0203816C26.7368 0.00708924 26.7445 0 26.7521 0C26.7948 0 26.8375 0 26.8802 0Z" fill="#7B8084"/>
<path d="M2.16419 0.0664616C2.1215 0.0443078 2.07882 0.0221539 2.03613 0C2.07882 0 2.1215 0 2.16419 0C2.18809 0.0150646 2.19578 0.0292431 2.18809 0.0443078C2.18041 0.0593724 2.17273 0.0664616 2.16419 0.0664616Z" fill="#7C9099"/>
<path d="M2.3588 0.0584862C2.31526 0.0611447 2.27172 0.0638032 2.22818 0.0664616C2.21025 0.051397 2.20427 0.0372185 2.21025 0.0221539C2.21537 0.00708924 2.22135 0 2.22818 0H2.35623C2.37843 0.01152 2.38697 0.0239262 2.38014 0.0372185C2.37331 0.0505108 2.36648 0.0576001 2.35965 0.0576001L2.3588 0.0584862Z" fill="#96A4AC"/>
<path d="M13.7235 34C13.7653 33.9788 13.808 33.9575 13.8499 33.9362C13.8738 33.9495 13.8823 33.9637 13.8746 33.9779C13.8669 33.992 13.8593 34 13.8507 34H13.7227H13.7235Z" fill="#FAC6CF"/>
<path d="M13.8514 34C13.8514 33.9788 13.8514 33.9575 13.8506 33.9362C13.8933 33.9575 13.9368 33.9788 13.9795 34H13.8514Z" fill="#F8BAC5"/>
<path d="M15.1929 34C15.2356 33.9796 15.2791 33.9584 15.3218 33.938C15.344 33.9522 15.3517 33.9663 15.344 33.9796C15.3363 33.9929 15.3286 34 15.3209 34H15.1929Z" fill="#F6A1B0"/>
<path d="M28.0326 0.0576001C28.0112 0.0576001 27.9899 0.0576001 27.9685 0.0567139C27.9429 0.0460801 27.9344 0.0336739 27.9412 0.0203816C27.9489 0.00708924 27.9566 0 27.9651 0H28.0292C28.0462 0.01152 28.0522 0.0239262 28.0479 0.0372185C28.0428 0.0505108 28.0377 0.0576001 28.0326 0.0576001Z" fill="#A7A8AC"/>
<path d="M28.0329 0.0576001C28.0304 0.0389908 28.0287 0.0194954 28.0295 0H28.0935C28.0935 0.0186093 28.0935 0.0372185 28.0961 0.0558278C28.0748 0.0558278 28.0543 0.0567139 28.0329 0.0576001Z" fill="#CDCDCF"/>
<path d="M1.01166 0.0567139C0.991174 0.0381047 0.970685 0.0186093 0.950195 0C0.971538 0 0.992881 0 1.01422 0C1.03813 0.0141785 1.04581 0.0274708 1.03727 0.0389908C1.02874 0.0505108 1.0202 0.0567139 1.01166 0.0567139Z" fill="#AFB9BF"/>
<path d="M1.01172 0.0567139C1.01343 0.0381047 1.01428 0.0186093 1.01513 0H1.07916C1.10307 0.0141785 1.11075 0.0274708 1.10221 0.039877C1.09368 0.0522831 1.08599 0.0584862 1.07746 0.0584862C1.05611 0.0584862 1.03392 0.0576001 1.01257 0.0567139H1.01172Z" fill="#9AA7AF"/>
<path d="M27.9654 0C27.9654 0.0186093 27.9671 0.0372185 27.9689 0.0567139C27.9467 0.0602585 27.9245 0.062917 27.9023 0.0664616C27.8784 0.051397 27.8707 0.0372185 27.8784 0.0221539C27.886 0.00708924 27.8937 0 27.9023 0H27.9663H27.9654Z" fill="#909498"/>
<path d="M1.07666 0.0584862C1.07751 0.0389908 1.07837 0.0194954 1.07837 0H1.1424C1.15862 0.0141785 1.16374 0.0274708 1.15776 0.0407631C1.15179 0.0540555 1.14581 0.0602585 1.14069 0.0602585C1.11935 0.0602585 1.098 0.0584862 1.07666 0.0576001V0.0584862Z" fill="#8E9DA6"/>
<path d="M2.22809 0C2.22809 0.0221539 2.22809 0.0443078 2.22809 0.0664616C2.20675 0.0664616 2.18541 0.0664616 2.16406 0.0664616C2.16406 0.0443078 2.16406 0.0221539 2.16406 0H2.22809Z" fill="#899BA3"/>
<path d="M2.35901 0.0584862C2.3573 0.0389908 2.35645 0.0194954 2.35645 0H2.42047C2.43584 0.0124062 2.44182 0.0248123 2.43669 0.0372185C2.43157 0.0505108 2.4273 0.0567139 2.42218 0.0567139L2.39059 0.0611447L2.35901 0.0576001V0.0584862Z" fill="#ADB6BD"/>
<path d="M2.42114 0.0567139C2.42029 0.0381047 2.41943 0.0186093 2.41943 0C2.44078 0 2.46212 0 2.48346 0C2.46297 0.0186093 2.44248 0.0381047 2.42114 0.0567139Z" fill="#BEC5CA"/>
<path d="M26.4946 0.0558278C26.4741 0.0372185 26.4536 0.0186093 26.4331 0C26.4544 0 26.4758 0 26.4971 0C26.521 0.0132923 26.5287 0.0256985 26.5202 0.0381047C26.5116 0.0496247 26.504 0.0558278 26.4954 0.0558278H26.4946Z" fill="#CACACB"/>
<path d="M26.4945 0.0558278C26.4954 0.0372185 26.4962 0.0186093 26.4962 0H26.5602C26.5841 0.0132923 26.5918 0.0265847 26.5833 0.0381047C26.5748 0.0496247 26.5671 0.0558278 26.5577 0.0558278C26.5363 0.0558278 26.515 0.0558278 26.4937 0.0558278H26.4945Z" fill="#B5B6B9"/>
<path d="M26.5586 0.0558278C26.5594 0.0372185 26.5603 0.0186093 26.5612 0H26.6252C26.6491 0.0141785 26.6568 0.0265847 26.6482 0.0389908C26.6397 0.0505108 26.6312 0.0567139 26.6226 0.0567139C26.6013 0.0567139 26.5808 0.0567139 26.5594 0.0567139L26.5586 0.0558278Z" fill="#A4A5A8"/>
<path d="M26.6216 0.0567139C26.6233 0.0381047 26.6241 0.0194954 26.6241 0H26.6882C26.7061 0.0141785 26.7121 0.0274708 26.7061 0.0407631C26.7001 0.0540555 26.6933 0.0611447 26.6873 0.0611447C26.6651 0.0593724 26.6438 0.0584862 26.6216 0.0567139Z" fill="#909498"/>
<path d="M26.6875 0.0611447C26.6875 0.0407631 26.6884 0.0203816 26.6884 0H26.7524C26.7524 0.0212677 26.7524 0.0425354 26.7515 0.062917C26.7302 0.062917 26.7088 0.0611447 26.6875 0.0611447Z" fill="#868B8F"/>
<path d="M27.838 0.0664616C27.8166 0.0443078 27.7953 0.0221539 27.7739 0C27.7953 0 27.8166 0 27.838 0C27.8559 0.0150646 27.8619 0.0292431 27.8559 0.0443078C27.8499 0.0593724 27.8439 0.0664616 27.838 0.0664616Z" fill="#777D81"/>
<path d="M27.8379 0.0664616C27.8379 0.0443078 27.8379 0.0221539 27.8379 0H27.9019C27.9019 0.0221539 27.9019 0.0443078 27.9019 0.0664616C27.8806 0.0664616 27.8592 0.0664616 27.8379 0.0664616Z" fill="#84878D"/>
<path d="M1.14062 0.0611447C1.14148 0.0407631 1.14233 0.0203816 1.14233 0C1.16368 0 1.18502 0 1.20636 0C1.18416 0.0203816 1.16282 0.0407631 1.14062 0.0611447Z" fill="#82959E"/>
<path d="M15.3198 34C15.3198 33.9796 15.3198 33.9584 15.3215 33.938C15.3429 33.9389 15.3651 33.9398 15.3864 33.9406C15.4009 33.9548 15.4052 33.9681 15.4001 33.9805C15.395 33.9929 15.389 34 15.3839 34H15.3198Z" fill="#F7AEBA"/>
<path d="M15.3838 34C15.3838 33.9805 15.3846 33.9601 15.3864 33.9406C15.4068 33.9601 15.4273 33.9805 15.4478 34H15.3838Z" fill="#F9C0C9"/>
<path d="M8.41523 3.58982C8.66964 3.47728 8.92405 3.36474 9.17846 3.2522C9.33042 3.35676 9.33469 3.53399 9.37225 3.69084C9.83497 5.64039 10.1679 7.60676 10.0638 9.62631C10.0467 9.96748 10.1227 10.2564 10.3942 10.477C10.6417 10.6791 10.8996 10.7429 11.1958 10.6055C11.3725 10.524 11.5313 10.415 11.6816 10.2909C12.1725 9.88507 12.6574 9.47212 13.109 9.01752C13.4249 8.69851 13.5811 8.75079 13.6818 9.20007C13.9166 10.2546 14.0208 11.3135 13.7544 12.3823C13.6605 12.758 13.7945 13.054 14.0694 13.2923C14.1838 13.3916 14.3161 13.4642 14.4485 13.5369C14.4835 13.5564 14.5116 13.583 14.5364 13.6149C14.5586 13.6512 14.5748 13.6893 14.5868 13.7292C14.6252 13.8807 14.6184 14.0367 14.6184 14.1909C14.6192 16.3212 14.6201 18.4515 14.6175 20.5827C14.6175 20.7892 14.6525 21.0072 14.4903 21.1782L14.4946 21.1889C11.0447 21.04 8.72001 23.3325 6.24508 25.2989C3.85466 20.9461 2.81483 16.2875 3.3134 11.2808C3.80429 7.84868 5.50319 5.28238 8.41694 3.58805L8.41523 3.58982Z" fill="#F2E4E3"/>
<path d="M14.4886 21.1791C14.4886 18.6589 14.4886 16.1387 14.4886 13.6185C14.9428 13.4315 15.3646 13.1851 15.7436 12.8617C16.8799 11.8913 17.7208 10.6782 18.4354 9.35782C19.3566 7.65551 19.8782 5.82383 20.0814 3.88847C20.095 3.75554 20.1172 3.62528 20.2111 3.52248C20.2367 3.5021 20.2658 3.49058 20.2982 3.48704C20.3452 3.48704 20.393 3.49236 20.4322 3.45691C20.4766 3.47995 20.5202 3.50299 20.5646 3.52603C22.7894 4.93324 24.5045 6.77556 25.2267 9.45795C25.3855 10.0464 25.5213 10.6419 25.6681 11.2347C25.739 13.1727 25.7791 15.1036 25.4931 17.0372C25.0585 19.9784 24.1365 22.7272 22.7202 25.3051C20.2265 23.3892 17.9249 21.0604 14.4878 21.1791H14.4886Z" fill="#D7C5C5"/>
<path d="M12.5128 30.1434C12.0117 29.9733 11.6113 29.6623 11.6378 28.948C11.6446 28.7637 11.5353 28.4491 11.4132 28.4084C10.8378 28.2169 10.3777 27.9236 10.3555 27.2475C10.3427 26.862 10.5749 26.5129 10.9386 26.3915C11.6531 26.1522 12.2559 26.4987 12.7715 26.9524C13.3964 27.5009 13.6466 28.2825 13.5894 29.0996C13.5501 29.6525 13.2308 30.116 12.5128 30.1443V30.1434Z" fill="#535E63"/>
<path d="M18.5907 27.5426C17.4058 27.8661 17.5475 29.5329 16.4223 30.1133C16.1021 30.2782 15.7052 29.9928 15.5344 29.6472C15.1468 28.863 15.3167 28.0787 15.7846 27.4194C16.3028 26.6884 16.9909 26.1363 17.9522 26.3871C18.3449 26.489 18.5318 26.8638 18.5907 27.5435V27.5426Z" fill="#424C51"/>
<path d="M20.2939 3.51626C19.9226 6.04623 19.3019 8.48936 17.8156 10.5895C16.926 11.8461 16.1013 13.2072 14.4886 13.6184L14.4937 13.6069C14.3785 13.4935 14.3973 13.3446 14.3973 13.2028C14.3956 8.96257 14.3956 4.72231 14.3973 0.481174C14.3973 0.339389 14.3802 0.190515 14.4955 0.0770874C16.2814 0.125826 18.0196 0.441297 19.6681 1.17238C20.7404 1.64824 20.0959 2.68947 20.3118 3.44979C20.3306 3.47106 20.334 3.4879 20.3229 3.5003C20.3136 3.51094 20.3042 3.51626 20.2948 3.51626H20.2939Z" fill="#5A7983"/>
<path d="M14.4263 13.6025C13.8056 13.3969 13.4855 12.999 13.6596 12.2918C13.9302 11.193 13.7723 10.1146 13.5358 9.03611C13.4692 8.73216 13.3762 8.90851 13.2754 8.99801C12.6898 9.51818 12.1144 10.0525 11.5134 10.5541C11.2163 10.8022 10.8603 10.9387 10.4872 10.6959C10.1372 10.4681 9.91691 10.1766 9.9485 9.6963C10.0902 7.49863 9.6497 5.37275 9.17759 3.25218C8.55523 1.3629 9.27491 0.62916 12.0452 0.331412C12.8383 0.246341 13.6314 0.163042 14.4254 0.0788574C14.4826 0.182538 14.4553 0.295965 14.4553 0.404076C14.457 4.69573 14.457 8.98649 14.4553 13.2781C14.4553 13.3862 14.4826 13.4997 14.4254 13.6034L14.4263 13.6025Z" fill="#81A1B1"/>
<path d="M14.4263 13.6025C14.4263 9.09463 14.4263 4.58676 14.4263 0.0780052C14.4493 0.0780052 14.4715 0.0771191 14.4946 0.0762329C14.4946 4.58588 14.4946 9.09641 14.4937 13.606C14.4715 13.6043 14.4493 13.6034 14.4271 13.6016L14.4263 13.6025Z" fill="#80A0AE"/>
<path d="M20.2939 3.51629C20.2999 3.49414 20.305 3.47198 20.311 3.44983C20.3272 3.45337 20.3443 3.45515 20.3614 3.45692C20.3793 3.46932 20.387 3.48173 20.3819 3.49591C20.3776 3.51097 20.3725 3.51806 20.3665 3.51806C20.3426 3.51718 20.3178 3.51629 20.2939 3.5154V3.51629Z" fill="#D8C5C5"/>
<path d="M20.3665 3.51891C20.3656 3.49853 20.3639 3.47815 20.3613 3.45777C20.3852 3.45777 20.4091 3.45688 20.433 3.45599C20.4108 3.47726 20.3886 3.49764 20.3673 3.51891H20.3665Z" fill="#EDE3E3"/>
<path d="M8.73771 15.7948C9.32165 15.848 9.69814 16.151 9.68875 16.7749C9.68022 17.3633 9.35068 17.7771 8.76844 17.7824C8.17596 17.7878 7.80886 17.397 7.79435 16.7811C7.77984 16.1572 8.15633 15.8515 8.73686 15.7948H8.73771Z" fill="#535E63"/>
<path d="M21.1457 16.8334C21.0561 17.3634 20.7769 17.7674 20.2083 17.7852C19.5373 17.8064 19.265 17.2694 19.2393 16.7049C19.2146 16.1484 19.6269 15.8276 20.1588 15.8135C20.776 15.7966 21.0842 16.1741 21.1457 16.8334Z" fill="#424C51"/>
</g>
<defs>
<clipPath id="clip0_2257_9227">
<rect width="29" height="34" fill="white"/>
</clipPath>
</defs>
</svg>
