<svg width="19" height="22" viewBox="0 0 19 22" fill="none" xmlns="http://www.w3.org/2000/svg">
<path fill-rule="evenodd" clip-rule="evenodd" d="M17.6719 16.5638C17.3566 17.2921 16.9835 17.9625 16.5511 18.5789C15.9618 19.4192 15.4792 20.0008 15.1074 20.3238C14.5309 20.8539 13.9132 21.1254 13.2518 21.1409C12.777 21.1409 12.2044 21.0057 11.5379 20.7317C10.8691 20.4589 10.2546 20.3238 9.69263 20.3238C9.10329 20.3238 8.47124 20.4589 7.79517 20.7317C7.11807 21.0057 6.57261 21.1486 6.15557 21.1627C5.52132 21.1898 4.88913 20.9105 4.2581 20.3238C3.85534 19.9725 3.35157 19.3703 2.74808 18.5171C2.10058 17.6061 1.56824 16.5497 1.1512 15.3453C0.704563 14.0443 0.480666 12.7846 0.480666 11.565C0.480666 10.1679 0.782541 8.96302 1.38719 7.95329C1.8624 7.14224 2.49459 6.50246 3.28582 6.03279C4.07705 5.56312 4.93198 5.32378 5.85266 5.30847C6.35643 5.30847 7.01706 5.4643 7.83802 5.77055C8.65666 6.07783 9.1823 6.23366 9.41276 6.23366C9.58506 6.23366 10.169 6.05145 11.1589 5.68819C12.095 5.35132 12.8851 5.21183 13.5323 5.26678C15.2862 5.40832 16.6039 6.0997 17.4802 7.34529C15.9116 8.2957 15.1357 9.62686 15.1511 11.3345C15.1653 12.6647 15.6478 13.7715 16.5961 14.6504C17.0259 15.0583 17.5059 15.3736 18.0399 15.5975C17.9241 15.9333 17.8018 16.255 17.6719 16.5638V16.5638ZM13.6494 0.735302C13.6494 1.77785 13.2686 2.75128 12.5094 3.65228C11.5932 4.72338 10.485 5.34232 9.28331 5.24465C9.26799 5.11958 9.25912 4.98794 9.25912 4.84961C9.25912 3.84876 9.69481 2.77766 10.4685 1.90189C10.8548 1.45847 11.3461 1.08977 11.9419 0.795651C12.5364 0.505923 13.0987 0.345695 13.6276 0.318261C13.643 0.45763 13.6494 0.597013 13.6494 0.735289V0.735302Z" fill="black"/>
</svg>
