<svg width="35" height="35" viewBox="0 0 35 35" fill="none" xmlns="http://www.w3.org/2000/svg">
<g clip-path="url(#clip0_2257_9114)">
<path d="M4.70589 34.9422C4.23855 34.7712 3.94338 34.4499 3.90385 33.9568C3.85554 33.347 4.322 33.0456 4.74543 32.7572C8.16619 30.4262 11.572 28.0719 15.0341 25.8023C16.2982 24.9732 17.2302 26.1892 18.1913 26.6719C22.2419 28.7058 26.2354 30.8494 30.2597 32.9342C30.6717 33.1475 30.8764 33.4775 30.8702 33.8592C30.8623 34.3273 30.6972 34.7902 30.1358 34.9422C30.1148 34.9577 30.091 34.9646 30.0656 34.9646C30.0401 34.9646 30.0146 34.9655 29.9891 34.9664C29.9637 34.9698 29.9417 34.9811 29.9233 35.0001H4.91936C4.90092 34.9819 4.87895 34.9707 4.85348 34.9664C4.828 34.9655 4.80253 34.9646 4.77705 34.9646C4.7507 34.9646 4.72698 34.9569 4.70589 34.9413V34.9422Z" fill="#4EAF4F"/>
<path d="M4.70605 34.9421C4.72977 34.9421 4.75349 34.9421 4.77721 34.9421C4.80532 34.9534 4.81411 34.9655 4.8062 34.9793C4.79742 34.9931 4.78951 35 4.78072 35H4.71133C4.71133 34.981 4.70957 34.9611 4.70693 34.9421H4.70605Z" fill="#C8DFC0"/>
<path d="M4.77988 35C4.77988 34.981 4.77812 34.9612 4.77637 34.9422C4.79921 34.9352 4.82205 34.9344 4.84489 34.9413C4.86509 34.9525 4.87212 34.9655 4.86685 34.9793C4.86158 34.9931 4.85543 35 4.84928 35H4.77988Z" fill="#ADD2A4"/>
<path d="M4.84912 35C4.84912 34.9802 4.84736 34.9603 4.84473 34.9413C4.86932 34.9611 4.89392 34.9802 4.91852 35H4.84912Z" fill="#92C689"/>
<path d="M29.9233 35C29.9479 34.981 29.9725 34.9611 29.9971 34.9421C30.0191 34.9568 30.0261 34.9698 30.0173 34.9827C30.0094 34.9948 30.0006 35.0009 29.9927 35.0009H29.9233V35Z" fill="#98C88F"/>
<path d="M29.9927 35C29.9927 34.9802 29.9944 34.9612 29.9971 34.9422C30.0199 34.9352 30.0427 34.9344 30.0656 34.9422C30.0832 34.956 30.0884 34.9698 30.0823 34.9819C30.0761 34.994 30.0691 35.0009 30.063 35.0009H29.9936L29.9927 35Z" fill="#B5D5AB"/>
<path d="M30.062 35C30.062 34.9802 30.062 34.9603 30.0646 34.9413C30.0884 34.9413 30.1112 34.9413 30.1349 34.9421C30.1323 34.9611 30.1314 34.981 30.1314 35H30.062Z" fill="#D1E5CB"/>
<path d="M13.4159 13.0782C17.3259 13.0817 21.2369 13.0791 25.147 13.0946C25.9806 13.0981 27.0128 12.8649 27.2474 14.036C27.4459 15.03 26.4814 15.3306 25.8717 15.7469C18.1201 21.0401 10.3474 26.304 2.58873 31.5869C2.1741 31.8694 1.74628 31.9842 1.33867 31.7536C0.71408 31.4004 0.636775 30.8399 0.795778 30.1507C1.87015 25.4836 2.90938 20.8087 3.96354 16.1372C3.98726 16.0301 4.05051 15.9317 4.09443 15.8289C4.23938 15.8151 4.29033 15.9317 4.35797 16.0189C5.19252 17.0993 6.0745 18.1426 6.97845 19.1669C7.46512 19.7188 8.17141 19.7153 8.62909 19.1634C9.78692 17.7687 10.9764 16.3972 12.0297 14.9204C12.403 14.397 12.7544 13.8607 13.1242 13.3364C13.1989 13.2311 13.2367 13.0748 13.415 13.0791L13.4159 13.0782Z" fill="#498FCC"/>
<path d="M33.7657 32.2587C32.3434 31.5316 30.8386 30.7733 29.3443 29.9951C26.0527 28.2799 22.7259 26.6269 19.4975 24.8038C17.911 23.9082 18.9415 23.0869 19.8973 22.4357C23.2091 20.1824 26.4954 17.892 29.8573 15.7139C31.2849 14.789 31.6292 15.9497 31.8708 17.0249C32.9048 21.6204 33.9431 26.215 34.9595 30.8139C35.1396 31.6283 34.7012 32.0679 33.7657 32.2587Z" fill="#4EAF4F"/>
<path d="M15.5193 6.6993C15.0906 2.64709 11.5205 -0.194297 7.00778 0.0103861C3.3595 0.176206 -0.11397 3.72751 0.00286647 7.40231C0.109161 10.7498 2.26756 13.2345 4.09478 15.828C4.75275 16.6502 5.35363 17.5268 6.08715 18.279C6.75918 18.9691 7.411 20.5772 8.61714 19.2627C10.3785 17.3446 11.8315 15.1535 13.4153 13.0782C14.5591 11.0935 15.7793 9.15896 15.5193 6.6993ZM7.82037 10.8975C5.95801 10.8975 4.4286 9.4146 4.43123 7.60872C4.43299 5.83652 5.9097 4.38474 7.76151 4.33378C9.39195 4.28887 11.112 5.77779 11.184 7.29522C11.2763 9.24532 9.73456 10.8966 7.82037 10.8975Z" fill="#FFC110"/>
</g>
<defs>
<clipPath id="clip0_2257_9114">
<rect width="35" height="35" fill="white"/>
</clipPath>
</defs>
</svg>
