<svg width="38" height="27" viewBox="0 0 38 27" fill="none" xmlns="http://www.w3.org/2000/svg">
<g clip-path="url(#clip0_2257_9327)">
<path d="M0.0646529 7.16475C0.767878 6.14423 1.86598 6.53887 2.82782 6.45956C3.41865 6.41082 3.16799 6.92395 3.32714 7.16571C3.50817 7.43995 3.78369 7.6559 4.01843 7.89766C4.10198 8.30281 3.88713 8.60094 3.63449 8.8857C2.37923 8.6363 0.977751 8.81021 0 7.74381V7.60048C0.0308345 7.57277 0.0377971 7.53742 0.0377971 7.49919C0.0377971 7.46193 0.0377971 7.42466 0.0377971 7.38644C0.0377971 7.3616 0.0377971 7.3358 0.0377971 7.31095C0.0377971 7.28515 0.0377971 7.26031 0.0377971 7.23451C0.0387917 7.20871 0.0477437 7.18482 0.0636583 7.16475H0.0646529Z" fill="#304859"/>
<path d="M0.0745814 7.38637C0.0745814 7.43415 0.0745814 7.48288 0.0745814 7.53066C0.0497149 7.55359 0.0248484 7.55455 0.000976562 7.5297V7.38637C0.0258431 7.3491 0.0507096 7.35101 0.0755761 7.38637H0.0745814Z" fill="#384D5E"/>
<path d="M0.064671 7.16474C0.064671 7.18863 0.064671 7.21252 0.064671 7.23545C0.0477618 7.28323 0.0268739 7.2861 -0.000976562 7.24214V7.17048C0.0199113 7.16379 0.0417938 7.16188 0.0636763 7.16379L0.064671 7.16474Z" fill="#9A9FA8"/>
<path d="M0 7.24302C0.0218825 7.24015 0.0437651 7.23728 0.0656476 7.23633C0.0686316 7.26213 0.0716155 7.28888 0.0745995 7.31468C0.049733 7.34239 0.0248665 7.34335 0 7.31468V7.24302Z" fill="#67717F"/>
<path d="M0 7.3147C0.0248665 7.3147 0.049733 7.3147 0.0745995 7.3147C0.0745995 7.33859 0.0745995 7.36247 0.0745995 7.38636C0.049733 7.38636 0.0248665 7.38636 0 7.38636V7.3147Z" fill="#485867"/>
<path d="M0 7.52881C0.0248665 7.52881 0.0487383 7.52881 0.0736049 7.52976C0.0487383 7.55365 0.0248665 7.57659 0 7.60047C0 7.57659 0 7.5527 0 7.52881Z" fill="#485867"/>
<path d="M3.6346 8.88659C3.76291 8.55693 3.89122 8.22822 4.01853 7.89856C5.18925 5.73328 6.10931 3.43423 7.66595 1.47535C8.77003 0.0869401 10.4709 0.473938 11.9221 0.343983C15.6551 0.0104961 19.4079 -0.102259 23.1578 0.102229C25.1242 0.20925 27.1295 0.221673 29.0372 0.624914C30.9082 1.02051 31.2484 2.96792 32.1286 4.31238C32.8637 5.43611 33.3948 6.68214 34.0155 7.87467C34.2313 8.17089 34.3905 8.49577 34.5357 8.82735C35.1972 10.4938 36.5777 11.8727 36.8513 13.671C37.3307 16.8272 37.3595 19.9691 35.7154 22.9007C35.6398 23.1176 35.4786 23.2542 35.2737 23.3565C34.7844 23.6001 34.2751 23.7569 33.7141 23.7492C32.998 23.7406 32.2818 23.7492 31.5657 23.7463C31.3816 23.7463 31.1917 23.7578 31.0385 23.6269C23.0991 23.6747 15.1597 23.7225 7.22035 23.7702C7.09104 23.883 6.9299 23.8916 6.76877 23.8916C5.8696 23.8945 4.97042 23.9011 4.07125 23.8887C3.6704 23.883 3.29343 23.775 2.93833 23.5973C2.78416 23.5199 2.63297 23.4358 2.60512 23.2456C1.10816 21.6804 1.29814 19.6489 0.968905 17.7627C0.382056 14.3963 1.93572 11.6195 3.6346 8.88564V8.88659Z" fill="#F3705B"/>
<path d="M31.0373 23.6278C32.6079 23.4568 34.3108 24.0683 35.7142 22.9016C35.7431 23.3842 35.8256 23.8705 35.7888 24.3483C35.7301 25.0984 36.1937 26.1514 35.2666 26.4973C34.1019 26.9312 32.6696 27.02 31.5784 26.4811C30.4465 25.9221 31.2373 24.5948 31.0383 23.6278H31.0373Z" fill="#304859"/>
<path d="M2.6051 23.2466C4.04835 24.1926 5.68357 23.5762 7.22032 23.7702C7.24519 24.1448 7.29592 24.5194 7.28895 24.8939C7.27602 25.5667 7.51972 26.5748 6.67923 26.699C5.40507 26.8872 3.8345 27.4032 2.82989 26.3999C2.05605 25.6278 2.56631 24.3206 2.6051 23.2466Z" fill="#304859"/>
<path d="M34.5356 8.82742C34.3625 8.51017 34.1885 8.19293 34.0154 7.87473C34.9514 7.78109 34.4719 6.03721 35.8993 6.43281C36.6532 6.64208 37.8249 6.23692 37.9821 7.2756C38.1721 8.52833 36.8601 8.41653 36.0515 8.65542C35.573 8.79684 35.0429 8.77486 34.5356 8.82646V8.82742Z" fill="#304859"/>
<path d="M30.6663 7.95882C25.686 7.95882 20.7068 7.95022 15.7265 7.96168C12.4581 7.96933 9.1886 7.99704 5.92015 8.03908C5.47255 8.04481 5.42879 7.92059 5.58893 7.57851C6.42245 5.79641 7.32163 4.03915 8.05569 2.22074C8.5192 1.07217 9.49496 1.34928 10.2797 1.33495C15.3933 1.23653 20.5098 1.20786 25.6244 1.17059C26.6986 1.16295 27.7778 1.15722 28.8461 1.25181C30.1431 1.36744 30.0765 2.60583 30.5171 3.37982C31.1994 4.57713 31.658 5.89101 32.3264 7.09595C32.7481 7.85562 32.5721 7.98939 31.7813 7.89384C31.4153 7.84988 31.0383 7.88619 30.6663 7.88619C30.6663 7.91008 30.6663 7.93397 30.6663 7.95882Z" fill="#304859"/>
<path d="M16.1721 19.112C19.4863 19.112 22.8015 19.1177 26.1157 19.1063C26.5733 19.1043 26.8359 19.2515 26.7115 19.6987C26.4927 20.4889 27.2367 21.2744 26.7115 22.0407C26.5952 22.2108 26.3266 22.3857 26.1267 22.3876C21.5463 22.4306 16.9649 22.4335 12.3835 22.4899C11.5509 22.5004 11.3928 22.2127 11.2754 21.4588C10.976 19.5353 11.7001 18.8473 13.6825 19.1645C14.4902 19.2935 15.3396 19.1856 16.1701 19.1856C16.1701 19.1617 16.1701 19.1378 16.1701 19.1139L16.1721 19.112Z" fill="#3B556A"/>
<path d="M6.81542 16.466C5.22496 16.6256 3.05362 16.7909 2.65178 13.9634C2.48666 12.8053 2.29271 11.5908 4.33076 12.2234C5.82076 12.6859 7.42416 12.8139 8.91018 13.286C10.1028 13.6644 10.4539 14.8578 10.8368 15.8879C10.9502 16.1937 10.5673 16.4651 10.1615 16.466C9.23145 16.4689 8.30145 16.467 6.81542 16.467V16.466Z" fill="#E1E6E9"/>
<path d="M30.6276 16.466C30.3431 16.466 30.0397 16.5262 29.7761 16.4545C28.9158 16.2223 27.3412 17.0747 27.2994 15.8774C27.2607 14.7527 28.0594 13.4264 29.7314 13.155C31.2731 12.9056 32.778 12.4508 34.3068 12.1211C34.6172 12.0542 35.1921 12.0408 35.2547 12.1727C35.5939 12.8893 35.4825 13.6662 35.2945 14.4125C34.648 16.9896 32.5095 16.465 30.6266 16.4641L30.6276 16.466Z" fill="#E1E6E9"/>
<path d="M25.1539 14.9754C25.1509 15.4484 25.1479 15.9214 25.145 16.3944C25.0544 16.4517 24.952 16.4287 24.8555 16.4287C20.9734 16.4297 17.0912 16.4297 13.209 16.4287C13.1225 16.4287 13.035 16.4374 12.9504 16.4096C12.7127 15.9261 12.7326 15.4407 12.9425 14.9553C13.0618 14.9075 13.1872 14.9295 13.3095 14.9295C17.1379 14.9285 20.9664 14.9276 24.7948 14.9295C24.9142 14.9295 25.0435 14.8894 25.1539 14.9734V14.9754Z" fill="#3B556A"/>
<path d="M32.9372 22.0589C31.9425 21.9003 31.285 21.3384 31.2801 20.3226C31.2751 19.2916 31.9843 18.7173 33.0008 18.7116C34.0323 18.7059 34.7295 19.3317 34.7275 20.3265C34.7246 21.3346 34.0651 21.9394 32.9372 22.0589Z" fill="#EBEFF1"/>
<path d="M5.17021 18.8797C6.34391 18.9227 6.95065 19.5209 6.94269 20.5185C6.93374 21.5285 6.2892 22.1859 5.20502 22.1659C4.1467 22.1468 3.52106 21.4989 3.51808 20.4937C3.51509 19.4617 4.19445 18.9571 5.17021 18.8788V18.8797Z" fill="#EBEFF1"/>
<path d="M25.1539 14.9753C21.0857 14.9753 17.0185 14.9763 12.9504 14.9773C12.9175 14.9925 12.8927 14.983 12.8738 14.9534C16.9668 14.961 21.0598 14.9677 25.1539 14.9753Z" fill="#DA6A5B"/>
<path d="M12.9505 16.3954C17.0157 16.3954 21.0799 16.3954 25.1451 16.3954C24.1783 16.4192 23.2124 16.4622 22.2456 16.4632C19.1234 16.4689 16.0002 16.4584 12.8779 16.4546C12.8719 16.4011 12.8869 16.3705 12.9505 16.3954Z" fill="#3F566A"/>
<path d="M12.9504 16.3953L12.8778 16.4545C12.7783 16.3857 12.5814 16.2854 12.5933 16.2529C12.7425 15.8296 12.2233 15.2687 12.8748 14.9534C12.9007 14.961 12.9255 14.9687 12.9514 14.9773V16.3953H12.9504Z" fill="#3B556A"/>
<path d="M6.56567 14.3524C6.49008 15.0403 6.06238 15.5095 5.29848 15.5172C4.53756 15.5248 4.05515 15.0289 4.04819 14.3246C4.04023 13.5927 4.54055 13.1178 5.31837 13.1216C6.06337 13.1254 6.52987 13.5239 6.56567 14.3524Z" fill="#BDBDC1"/>
<path d="M8.9212 15.4177C8.8655 15.7636 8.5492 16.1143 7.98125 16.0952C7.36953 16.0752 7.06119 15.6891 7.07412 15.1014C7.08606 14.5377 7.49287 14.2682 7.98821 14.2768C8.5502 14.2873 8.97293 14.5778 8.9212 15.4177Z" fill="#BDBDC1"/>
<path d="M31.4661 14.3065C31.5556 13.5296 32.0151 13.1207 32.7621 13.1226C33.524 13.1245 34.0134 13.5659 33.9965 14.3074C33.9806 15.0222 33.52 15.5095 32.7591 15.5219C31.9495 15.5344 31.5625 15.0222 31.4661 14.3074V14.3065Z" fill="#BDBDC1"/>
<path d="M30.0188 16.123C29.4697 16.0274 29.1116 15.7455 29.1087 15.1808C29.1057 14.5845 29.4976 14.2654 30.0665 14.2721C30.6474 14.2797 31.0264 14.6705 31.0065 15.22C30.9876 15.7513 30.5818 16.0446 30.0188 16.123Z" fill="#BDBDC1"/>
</g>
<defs>
<clipPath id="clip0_2257_9327">
<rect width="38" height="27" fill="white"/>
</clipPath>
</defs>
</svg>
