<svg width="30" height="21" viewBox="0 0 30 21" fill="none" xmlns="http://www.w3.org/2000/svg">
<path d="M8.625 2.625C8.625 4.07344 7.44844 5.25 6 5.25C4.55156 5.25 3.375 4.07344 3.375 2.625C3.375 1.17656 4.55156 0 6 0C7.44844 0 8.625 1.17656 8.625 2.625ZM3 10.0172C2.53125 10.5422 2.25 11.2406 2.25 12C2.25 12.7594 2.53125 13.4578 3 13.9828V10.0172ZM9.76875 7.70625C8.37656 8.93906 7.5 10.7437 7.5 12.75C7.5 14.3578 8.0625 15.8344 9 16.9922V18C9 18.8297 8.32969 19.5 7.5 19.5H4.5C3.67031 19.5 3 18.8297 3 18V16.7438C1.22813 15.9 0 14.0953 0 12C0 9.09844 2.34844 6.75 5.25 6.75H6.75C7.875 6.75 8.91562 7.10156 9.76875 7.70156V7.70625ZM21 18V16.9922C21.9375 15.8344 22.5 14.3578 22.5 12.75C22.5 10.7437 21.6234 8.93906 20.2313 7.70156C21.0844 7.10156 22.125 6.75 23.25 6.75H24.75C27.6516 6.75 30 9.09844 30 12C30 14.0953 28.7719 15.9 27 16.7438V18C27 18.8297 26.3297 19.5 25.5 19.5H22.5C21.6703 19.5 21 18.8297 21 18ZM26.625 2.625C26.625 4.07344 25.4484 5.25 24 5.25C22.5516 5.25 21.375 4.07344 21.375 2.625C21.375 1.17656 22.5516 0 24 0C25.4484 0 26.625 1.17656 26.625 2.625ZM27 10.0172V13.9875C27.4688 13.4578 27.75 12.7641 27.75 12.0047C27.75 11.2453 27.4688 10.5469 27 10.0219V10.0172ZM15 6C13.3453 6 12 4.65469 12 3C12 1.34531 13.3453 0 15 0C16.6547 0 18 1.34531 18 3C18 4.65469 16.6547 6 15 6ZM11.25 12.75C11.25 13.5094 11.5312 14.2031 12 14.7328V10.7672C11.5312 11.2969 11.25 11.9906 11.25 12.75ZM18 10.7672V14.7375C18.4688 14.2078 18.75 13.5141 18.75 12.7547C18.75 11.9953 18.4688 11.2969 18 10.7719V10.7672ZM21 12.75C21 14.8453 19.7719 16.65 18 17.4938V19.5C18 20.3297 17.3297 21 16.5 21H13.5C12.6703 21 12 20.3297 12 19.5V17.4938C10.2281 16.65 9 14.8453 9 12.75C9 9.84844 11.3484 7.5 14.25 7.5H15.75C18.6516 7.5 21 9.84844 21 12.75Z" fill="#4F6070"/>
</svg>
