<svg width="36" height="28" viewBox="0 0 36 28" fill="none" xmlns="http://www.w3.org/2000/svg">
<g clip-path="url(#clip0_2257_9036)">
<path d="M2.29917 13.977C1.08395 13.9923 0.397572 13.2902 0 12.1943V12.0506C0.0187534 12.0343 0.0253171 12.019 0.0187534 12.0027C0.0121897 11.9864 0.0065637 11.9788 0 11.9788V11.3341C0.0187534 11.314 0.0309431 11.29 0.0328185 11.2622C0.0300055 11.2345 0.0196911 11.2105 0 11.1904V11.0467C0.290678 10.2401 0.836402 9.69605 1.61467 9.39047C1.87253 9.23912 2.12945 9.08489 2.42294 9.31096C2.47545 9.57439 2.39387 9.83111 2.38825 10.0898C2.36293 11.1483 2.3348 12.2077 2.40419 13.2662C2.42013 13.5095 2.50264 13.7653 2.29917 13.976V13.977Z" fill="#F9AE9F"/>
<path d="M0 11.9788C0.00750137 11.995 0.0178157 12.0113 0.0225041 12.0286C0.0234418 12.0334 0.00843904 12.0429 0 12.0506C0 12.0267 0 12.0027 0 11.9788Z" fill="#FCD0C4"/>
<path d="M0 11.1904C0.0215664 11.2134 0.0440705 11.2374 0.065637 11.2604C0.0440705 11.2862 0.0225041 11.2872 0 11.2623C0 11.2383 0 11.2144 0 11.1904Z" fill="#FDD8CE"/>
<path d="M0 11.2623C0.0215664 11.2623 0.0440705 11.2613 0.065637 11.2604C0.0440705 11.2853 0.0215664 11.3092 0 11.3341C0 11.3102 0 11.2862 0 11.2623Z" fill="#FBCCBF"/>
<path d="M2.29897 13.9771C2.32147 12.4003 2.34398 10.8245 2.36648 9.2478C2.22864 9.10411 2.27928 8.93456 2.31679 8.77554C2.55214 7.78601 2.97034 6.88844 3.60327 6.10199C3.9052 5.72649 4.09367 5.75714 4.25495 6.21981C4.75004 7.64233 5.68021 8.59929 7.08953 9.05238C7.42522 9.16063 7.76747 9.20469 8.12003 9.20374C9.89879 9.1999 11.6766 9.20086 13.4554 9.20374C13.6504 9.20374 13.853 9.17691 14.0339 9.29091C14.0667 9.31964 14.0921 9.35413 14.1117 9.3934C14.213 9.63959 14.229 9.9011 14.2299 10.1626C14.2327 11.1138 14.2336 12.065 14.2299 13.0163C14.229 13.3027 14.2074 13.5862 14.1033 13.8564C14.0049 14.0288 13.8361 14.0259 13.6739 14.0336C13.3954 14.047 13.115 14.023 12.8365 14.0479C12.5027 14.0776 12.2767 14.3018 12.287 14.5786C12.2974 14.844 12.5168 15.0413 12.8356 15.0739C13.1 15.1007 13.3719 15.0384 13.6307 15.1361C13.8201 15.2731 13.7601 15.4465 13.6879 15.6122C12.8947 17.4227 11.5979 18.6862 9.78346 19.3826C9.68875 19.4037 9.59968 19.4429 9.50403 19.4611C9.4609 19.4736 9.41589 19.4841 9.37276 19.4956C9.33056 19.509 9.28837 19.5215 9.24617 19.5339C9.20398 19.5474 9.16272 19.5617 9.12053 19.5732C9.06239 19.5895 9.00425 19.5991 8.94424 19.6077C8.87954 19.6173 8.82891 19.6594 8.77171 19.6872C8.72389 19.7131 8.67419 19.7313 8.62262 19.7447C7.8256 19.8539 7.09797 19.5847 6.37221 19.306C6.29626 19.2772 6.2325 19.2236 6.20249 19.1393C4.07492 18.0779 2.80062 16.3354 2.29709 13.9771H2.29897Z" fill="#FCCEC0"/>
<path d="M14.0303 9.31965C11.6007 9.18937 9.13374 9.70569 6.74455 9.03323C5.37555 8.64719 4.54477 7.5542 4.11626 6.1633C4.08907 6.07517 4.04593 5.99279 4.0103 5.90754C3.94373 5.94585 3.85934 5.96884 3.81433 6.02536C3.05763 6.96891 2.51847 8.01688 2.36656 9.2478C2.11621 9.2957 1.86585 9.3436 1.61549 9.39149C1.05289 7.30323 1.00038 5.16323 0.963809 3.01653C0.95537 2.49351 1.06883 2.41688 1.51328 2.60463C2.50628 3.02516 3.3033 2.67743 3.9878 1.90152C5.14301 0.592996 6.64797 0.115952 8.30765 0.0211182C8.97152 0.141816 9.61945 0.314242 10.2177 0.643766C12.4615 1.87948 13.7836 3.76754 14.0846 6.3865C14.1831 7.24288 14.1221 8.10021 14.139 8.9566C14.1418 9.08591 14.1418 9.22194 14.0303 9.31869V9.31965Z" fill="#D77E49"/>
<path d="M1.12357 27.7375C1.12169 25.9606 1.09919 24.1836 1.12357 22.4076C1.14795 20.5713 2.67917 19.7839 6.13167 19.7925C6.2395 19.8643 6.24794 19.9774 6.25169 20.0933C6.4908 21.4028 7.30657 22.2687 8.48804 22.4795C9.88423 22.7285 11.1801 21.7026 11.4726 20.3922C11.4886 20.3222 11.4923 20.2504 11.5083 20.1805C11.5467 20.008 11.543 19.8155 11.7305 19.7197C11.8515 19.6737 11.9743 19.6804 12.0971 19.7101C12.5153 19.85 12.9363 19.9783 13.2983 20.2571C14.0606 20.8453 14.4985 21.6078 14.5023 22.5992C14.5098 24.1376 14.5079 25.677 14.5004 27.2154C14.4994 27.4156 14.5679 27.658 14.3194 27.7825C10.0211 27.7854 5.72285 27.7825 1.4255 27.7825C1.32517 27.7825 1.21546 27.818 1.12451 27.7385L1.12357 27.7375Z" fill="#4186C6"/>
<path d="M19.1182 10.5573C17.2025 10.0687 18.3277 8.54564 18.4327 7.70172C18.8509 4.33463 21.7933 1.936 25.0442 1.91492C25.3865 1.91301 25.5731 2.5893 25.9547 2.07968C26.2951 2.04999 26.5933 2.20134 26.8868 2.33641C29.3725 3.4792 30.8034 5.42378 31.1175 8.22091C31.1916 8.87708 31.156 9.53134 31.1654 10.1875C31.1672 10.3188 31.1569 10.4509 31.0669 10.5601C30.6609 10.7795 30.2286 10.6531 29.8067 10.6636C29.1419 10.6895 28.478 10.6674 27.8582 10.3868C26.8436 9.92696 26.1301 9.16542 25.7522 8.08393C25.7372 8.04082 25.7372 7.96802 25.694 7.96514C25.65 7.96131 25.6509 8.03316 25.6387 8.07339C25.1736 9.62522 23.6884 10.7431 21.9162 10.6694C21.1979 10.6397 20.4778 10.6732 19.7577 10.6588C19.5364 10.6722 19.3094 10.7268 19.1172 10.5573H19.1182Z" fill="#5B5B5A"/>
<path d="M18.4991 27.8103C18.5422 25.9701 18.3125 24.0686 18.6932 22.3061C19.2296 19.8203 21.4143 20.2418 23.2344 20.2188C23.2831 20.2504 23.3094 20.2983 23.3244 20.3538C23.3694 21.0263 23.4369 21.694 23.8898 22.2333C24.4665 22.9201 25.1828 23.2918 26.0802 23.1117C26.9785 22.9316 27.6095 22.3971 27.9246 21.4976C28.0521 21.1336 28.0624 20.7495 28.1131 20.3711C28.1412 20.2964 28.1843 20.2379 28.265 20.2188C28.3128 20.2236 28.3597 20.2283 28.4075 20.2341C29.6621 20.3443 30.7226 21.5014 30.7535 23.2218C30.7789 24.6262 30.7648 26.0314 30.7554 27.4357C30.7545 27.5928 30.777 27.7815 30.5726 27.8543C26.6597 27.8563 22.7477 27.8543 18.8357 27.8543C18.7232 27.8543 18.6032 27.8936 18.4991 27.8112V27.8103Z" fill="#ED7281"/>
<path d="M19.8197 10.5572C21.5693 10.4518 23.7044 11.1195 24.7724 9.24771C25.7176 7.5905 25.9155 8.03498 26.645 9.29081C27.2882 10.3982 28.5147 10.5974 29.7252 10.5572C29.9231 10.7354 29.9202 10.9815 29.9231 11.2181C29.9324 11.9098 29.9249 12.6014 29.9277 13.292C29.9287 13.566 29.9193 13.84 29.984 14.1101C30.029 14.2959 29.9709 14.4636 29.8565 14.6101C29.7646 14.7481 29.6296 14.8008 29.473 14.8113C29.4158 14.8151 29.3586 14.8171 29.3004 14.8199C28.81 14.8448 28.6253 14.9655 28.6019 15.2778C28.5784 15.5911 28.7519 15.7702 29.1907 15.8842C29.2245 15.8928 29.2573 15.9033 29.2892 15.9167C29.3726 15.957 29.4242 16.0259 29.3952 16.1169C29.2901 16.4503 29.2357 16.7846 28.9835 17.0787C28.4294 17.7234 27.8658 18.3527 27.2029 18.8815C27.1307 18.939 27.0782 19.0386 26.9882 19.0578C26.6009 19.143 26.3018 19.393 25.983 19.6076C25.1475 19.8873 24.3345 19.7954 23.5347 19.4582C23.4119 19.4064 23.3181 19.3231 23.2375 19.2197C22.1132 18.71 21.2974 17.8374 20.5792 16.8469C20.1675 16.4005 20.0081 15.8277 19.8431 15.2615C19.7803 15.047 19.7559 14.8199 19.7099 14.5986C19.5702 13.383 19.5702 12.1655 19.6799 10.948C19.6931 10.8053 19.7062 10.6635 19.8197 10.5591V10.5572Z" fill="#FCCEC0"/>
<path d="M19.8196 14.6906C20.0727 15.4091 20.3259 16.1275 20.5791 16.845C20.5003 18.8442 19.7014 20.3251 17.7229 20.8865C17.2372 21.0244 16.7018 20.9813 16.1898 21.0206C15.7566 21.2169 15.556 21.0158 15.5944 20.4228C15.5625 19.349 15.5522 18.2733 15.5907 17.1994C15.6451 15.6763 16.8762 14.1743 18.2246 13.9214C18.2687 13.9339 18.2199 13.8975 18.2574 13.9233C18.7441 14.2519 19.2832 14.4674 19.8196 14.6897V14.6906Z" fill="#5B5B5A"/>
<path d="M14.0302 9.31956C14.2243 5.98983 13.7349 2.93598 10.648 1.04218C9.92791 0.599618 9.09057 0.357264 8.30762 0.0219918C12.9557 -0.226109 15.6365 1.66578 16.621 6.05593C16.8648 7.14413 16.7101 8.3262 16.7382 9.46517C16.606 9.58778 16.455 9.4987 16.3116 9.5054C16.2759 9.50348 16.2413 9.49869 16.2056 9.49199C15.9637 9.44888 15.7199 9.44026 15.4752 9.44792C15.1189 9.48433 14.7625 9.46325 14.4072 9.46229C14.2665 9.46229 14.1315 9.43835 14.0218 9.33585L14.0293 9.31956H14.0302Z" fill="#C86D35"/>
<path d="M15.6899 20.3654C15.6852 20.7218 15.6411 21.1107 16.1906 21.0216C17.2642 23.1568 16.5366 25.451 16.7438 27.6629C15.9806 27.7127 15.2164 27.7625 14.4531 27.8123C14.4231 27.7922 14.3753 27.7912 14.3781 27.7366C14.2562 25.6915 14.6678 23.6166 14.1587 21.6012C13.8989 20.5743 13.0119 20.1087 12.0742 19.8041C12.1277 19.7121 12.2186 19.6805 12.3114 19.6796C13.0625 19.6767 13.8173 19.5857 14.5609 19.7696C14.9829 19.874 15.372 20.0512 15.6899 20.3664V20.3654Z" fill="#1F78BE"/>
<path d="M31.0546 10.4806C31.3124 6.4267 29.8806 3.45427 25.9546 2.07966C27.3752 1.68499 28.641 2.21568 29.8159 2.89964C32.2576 4.32023 33.6219 7.54268 33.0471 10.3906C33.0265 10.494 32.567 10.5036 32.312 10.5563C32.1067 10.7421 31.8638 10.6588 31.6331 10.654C31.4212 10.6636 31.1952 10.722 31.0555 10.4797L31.0546 10.4806Z" fill="#444444"/>
<path d="M30.6291 27.8267C30.6075 26.1034 30.6441 24.3772 30.5465 22.6587C30.4706 21.3281 29.5451 20.648 28.4077 20.2332C32.1003 20.0397 32.9376 20.8549 32.9376 24.6454C32.9376 24.9682 32.8823 25.3025 32.947 25.611C33.3717 27.6581 32.4997 28.2903 30.6431 27.8832C30.6159 27.8774 30.6047 27.8669 30.6094 27.8516C30.615 27.8353 30.6216 27.8267 30.6291 27.8267Z" fill="#EA5669"/>
<path d="M31.0546 10.4806C31.2403 10.5064 31.426 10.5313 31.6107 10.5572C31.7776 10.6702 31.8057 10.8455 31.8067 11.0295C31.8151 11.996 31.8132 12.9625 31.8085 13.9291C31.8076 14.1762 31.6782 14.3851 31.6416 14.6188C31.6266 15.0259 31.5207 15.4129 31.3547 15.7779C31.2656 15.9742 31.2431 16.1898 31.1494 16.3814C31.0884 16.5068 31.0406 16.6467 30.9009 16.7118C30.2145 17.7924 29.3293 18.6478 28.1966 19.2206C27.8956 19.4237 27.6012 19.622 27.2055 19.5818C26.987 19.5597 26.792 19.7274 26.5782 19.7829C26.2735 19.8634 26.1197 19.7829 26.0269 19.5032C27.1117 18.8154 28.161 18.0778 28.8914 16.9753C29.0837 16.685 29.1709 16.3191 29.3059 15.9886C29.35 15.7932 29.5028 15.8698 29.6134 15.8689C29.8216 15.867 30.0326 15.8976 30.2351 15.8277C30.4892 15.7405 30.6589 15.5777 30.643 15.2798C30.6271 14.9885 30.4386 14.8774 30.1854 14.8305C30.0223 14.8008 29.8244 14.8449 29.7325 14.636C29.7307 13.2758 29.7278 11.9155 29.726 10.5562C30.1685 10.5304 30.6121 10.5055 31.0546 10.4796V10.4806Z" fill="#F9AE9F"/>
<path d="M33.2179 13.9751C35.3586 15.2358 36.66 18.6124 35.6549 20.8386C35.4355 21.3243 34.3309 21.0666 33.637 20.8549C33.4926 20.7141 33.5142 20.5273 33.5132 20.351C33.5095 19.5033 33.5104 18.6555 33.5123 17.8087C33.5142 16.6736 33.2113 15.6659 32.3749 14.8746C32.3064 14.8095 32.2455 14.7367 32.2192 14.6409C32.3233 14.2912 32.7021 14.2769 32.9075 14.047C32.9825 13.9627 33.0931 13.8985 33.2179 13.9742V13.9751Z" fill="#444444"/>
<path d="M32.242 14.5709C34.2795 16.2971 33.4638 18.6919 33.6372 20.8549C31.6044 20.2542 30.812 18.7905 30.903 16.7109C31.1177 16.0442 31.3315 15.3765 31.5462 14.7098C31.7469 14.5 31.9785 14.4521 32.242 14.5709Z" fill="#5B5B5A"/>
<path d="M16.4057 9.4058C16.5163 9.42496 16.6279 9.44507 16.7385 9.46423C17.2505 10.0945 17.7719 10.7191 17.9322 11.5602C18.0494 11.9567 17.9322 12.3169 17.7653 12.6685C17.5731 12.9329 17.4277 13.2308 17.1811 13.4559C16.8257 13.7806 16.4207 13.9904 15.9528 14.067C15.7699 14.0967 15.5768 14.1197 15.4755 13.8946C15.3789 13.5977 15.5018 13.3055 15.4943 13.0095C15.468 11.9644 15.5515 10.9174 15.4371 9.87422C15.4164 9.68743 15.408 9.4901 15.5599 9.33875C15.814 9.36078 16.0681 9.38377 16.3222 9.4058C16.3494 9.42592 16.3775 9.42592 16.4047 9.4058H16.4057Z" fill="#F8A690"/>
<path d="M17.7228 12.6311C17.7922 12.2748 17.8625 11.9175 17.9319 11.5612C18.3266 11.2268 18.7223 10.8925 19.1171 10.5573C19.3515 10.5573 19.585 10.5573 19.8194 10.5573C19.8194 11.9347 19.8194 13.3132 19.8194 14.6907C19.2165 14.6552 18.6998 14.4253 18.2798 13.9742C17.8437 13.7605 17.569 13.0996 17.7218 12.6302L17.7228 12.6311Z" fill="#F9AE9F"/>
<path d="M32.2417 14.5709C32.01 14.6169 31.7775 14.6639 31.5459 14.7098C31.5675 13.3256 31.589 11.9414 31.6106 10.5573C31.8441 10.5573 32.0776 10.5573 32.311 10.5573C33.7597 11.3753 33.9848 12.5363 33.2178 13.9751C32.8924 14.1744 32.567 14.3726 32.2417 14.5719V14.5709Z" fill="#F8A690"/>
<path d="M26.0277 19.5033C26.6719 19.941 27.2176 19.3328 27.8215 19.3213C27.948 19.3184 28.0728 19.2561 28.1984 19.2207C28.2209 19.5531 28.2434 19.8864 28.265 20.2188C28.2387 20.2686 28.2115 20.3194 28.1853 20.3692C28.1093 20.5369 27.9565 20.5991 27.8046 20.6556C26.4384 21.1643 25.0675 21.1902 23.6948 20.6834C23.5185 20.6183 23.3525 20.5369 23.2447 20.3683C23.2409 20.3185 23.2381 20.2686 23.2344 20.2198C23.2353 19.8864 23.2363 19.5531 23.2372 19.2197C24.1374 19.6249 25.061 19.7859 26.0277 19.5042V19.5033Z" fill="#F8A690"/>
<path d="M6.15194 20.1508C6.14444 20.0311 6.13693 19.9123 6.13037 19.7925C6.15475 19.5751 6.18007 19.3567 6.20445 19.1392C7.02303 19.4142 7.83131 19.7389 8.72022 19.646C9.05028 19.5282 9.40191 19.5741 9.73759 19.4994C10.2533 19.5167 10.7071 19.2446 11.2041 19.167C11.3682 19.1412 11.5257 19.0166 11.6926 19.1546C11.7902 19.3586 11.8117 19.5665 11.7226 19.7791C11.6786 19.9276 11.6354 20.0761 11.5914 20.2246C11.492 20.3443 11.3738 20.4344 11.2266 20.4851C9.67195 21.0196 8.12105 21.0819 6.57389 20.4497C6.40886 20.3826 6.26071 20.2974 6.15194 20.1499V20.1508Z" fill="#F8A690"/>
<path d="M11.6432 19.1479C11.0187 19.2906 10.3942 19.4343 9.76969 19.577C9.69093 19.4975 9.61029 19.418 9.7003 19.2935C11.6141 18.5367 13.0159 17.255 13.6732 15.2099C13.7464 15.094 13.8729 15.1036 13.9808 15.0729C14.2096 15.0097 14.384 14.8823 14.4337 14.6342C14.4815 14.3947 14.3605 14.2251 14.1833 14.0882C14.1195 14.0383 14.0473 13.9952 14.022 13.9081C14.022 12.384 14.022 10.86 14.022 9.33496C14.5349 9.33592 15.0469 9.33688 15.5598 9.33784C15.5607 10.883 15.5617 12.4281 15.5626 13.9732C15.3779 15.231 14.9025 16.3594 14.0914 17.3202C13.4941 18.0271 12.8087 18.6364 11.9685 19.0358C11.8635 19.0856 11.766 19.1565 11.6422 19.1469L11.6432 19.1479Z" fill="#F9AE9F"/>
<path d="M8.79263 17.0079C7.7143 16.822 7.0148 16.1879 6.9126 14.9637C6.88447 14.6207 7.05981 14.4301 7.40675 14.4158C7.75275 14.4014 7.99185 14.5 8.02936 14.91C8.07624 15.4264 8.38099 15.777 8.86201 15.8172C9.2849 15.8517 9.63372 15.5681 9.70404 15.1169C9.78562 14.592 9.99378 14.251 10.5339 14.4435C11.0721 14.6361 10.908 15.1399 10.7861 15.5135C10.4832 16.4437 9.81 16.9226 8.79356 17.0088L8.79263 17.0079Z" fill="#F8A69A"/>
<path d="M4.42111 15.2003C3.8932 15.206 3.17307 15.32 3.24527 14.522C3.32872 13.6015 4.16325 13.9808 4.70616 13.9224C5.15624 13.8735 5.65789 13.954 5.63258 14.545C5.59694 15.3583 4.93589 15.1935 4.42204 15.2003H4.42111Z" fill="#F58E84"/>
<path d="M14.0218 13.9081C14.3875 13.9962 14.6172 14.2453 14.5619 14.617C14.4887 15.1055 14.1071 15.2281 13.673 15.2099C13.1272 15.0892 12.1371 15.5375 12.198 14.5796C12.274 13.3841 13.3926 14.1217 14.0218 13.9081Z" fill="#F58E84"/>
<path d="M12.6969 12.0947C12.6969 12.6877 12.8038 13.4444 12.1399 13.3563C11.2294 13.2356 11.6739 12.3217 11.5904 11.7365C11.5323 11.3255 11.6701 10.9558 12.1371 10.9874C12.9547 11.0429 12.6153 11.7365 12.6969 12.0947Z" fill="#5B5B5A"/>
<path d="M5.08203 12.1656C5.15517 11.6933 4.87481 10.9471 5.62682 11.0084C6.61043 11.0889 6.10784 11.9884 6.19598 12.5363C6.26068 12.9396 6.14066 13.3745 5.62307 13.3285C4.82323 13.2586 5.19549 12.5718 5.08203 12.1646V12.1656Z" fill="#5B5B5A"/>
<path d="M9.70008 19.2944C9.72352 19.3893 9.74603 19.4831 9.76947 19.578C9.41972 19.601 9.06997 19.624 8.72021 19.6469C8.74366 19.624 8.76804 19.6 8.79148 19.577C8.82898 19.5339 8.89462 19.5521 8.93213 19.508C9.00152 19.508 9.06997 19.5061 9.13935 19.5052C9.16186 19.4803 9.18905 19.4621 9.21155 19.4362C9.2575 19.4352 9.30345 19.4333 9.34939 19.4324C9.3719 19.4075 9.39909 19.3883 9.42159 19.3644C9.51442 19.3414 9.60725 19.3184 9.70008 19.2944Z" fill="#F9AE9F"/>
<path d="M6.15186 20.1508C7.95406 20.9956 9.76845 20.9506 11.5913 20.2255C11.3391 21.7285 10.3864 22.5762 8.99019 22.6212C7.44209 22.672 6.47066 21.7361 6.15186 20.1508Z" fill="#F9AE9F"/>
<path d="M23.2449 20.3673C24.8915 21.1174 26.539 21.103 28.1855 20.3692C28.2005 22.1165 27.3454 23.2612 25.6754 23.2516C24.0269 23.2411 23.2271 22.0695 23.2449 20.3683V20.3673Z" fill="#F9AE9F"/>
<path d="M27.4746 16.1084C27.3086 16.9476 26.6391 17.598 25.5233 17.4725C24.4731 17.3537 23.8786 16.6496 23.9461 15.5049C23.9658 15.1649 24.218 15.0518 24.5443 15.0557C24.9279 15.0614 25.091 15.2741 25.1191 15.6256C25.1491 16.0088 25.3611 16.2444 25.7061 16.255C26.0362 16.2646 26.2678 16.0423 26.3062 15.6812C26.355 15.2166 26.58 14.9991 27.0479 15.0604C27.5036 15.1208 27.5111 15.4503 27.4755 16.1084H27.4746Z" fill="#F8A69A"/>
<path d="M28.7977 12.1244C29.23 12.0248 29.742 12.4003 29.5348 12.702C29.1419 13.2758 29.3369 14.4464 28.5005 14.4224C27.5947 14.3966 27.9829 13.4109 27.9173 12.8093C27.8479 12.1694 28.2661 12.1014 28.7977 12.1234V12.1244Z" fill="#5B5B5A"/>
<path d="M23.512 13.0795C23.5148 13.7577 23.6245 14.5269 22.9391 14.4359C22.1121 14.3257 22.2171 13.2672 21.8973 12.657C21.7145 12.3074 22.3296 12.1378 22.7656 12.112C23.6808 12.0593 23.5223 12.6953 23.512 13.0795Z" fill="#5B5B5A"/>
<path d="M21.7773 14.6984C22.3109 14.7242 22.9982 14.569 22.9625 15.3181C22.9204 16.2253 22.1252 15.9561 21.5757 15.9877C21.1163 16.0136 20.6503 15.9178 20.669 15.3229C20.6962 14.4905 21.3713 14.774 21.7773 14.6984Z" fill="#F58E84"/>
<path d="M29.7324 14.6379C30.1543 14.7845 30.896 14.5881 30.7535 15.4004C30.5997 16.2731 29.8383 15.9072 29.3067 15.9896C28.896 16.0068 28.5162 15.8938 28.4853 15.4215C28.4168 14.3994 29.286 14.8535 29.7324 14.6379Z" fill="#F58E84"/>
</g>
<defs>
<clipPath id="clip0_2257_9036">
<rect width="36" height="28" fill="white"/>
</clipPath>
</defs>
</svg>
