<svg width="37" height="37" viewBox="0 0 37 37" fill="none" xmlns="http://www.w3.org/2000/svg">
<g clip-path="url(#clip0_2491_9018)">
<path d="M8.35633 13.2656C10.1815 10.2873 12.9997 9.09955 16.3895 8.94086C16.5831 9.09955 16.5476 9.32213 16.5486 9.52873C16.5537 10.7963 16.5506 12.0649 16.5506 13.3324C16.5506 17.3348 16.5506 21.3371 16.5506 25.3394C16.5506 25.55 16.5658 25.7626 16.5202 25.9702C16.4138 26.3375 16.1321 26.3055 15.8473 26.2486C14.1692 25.9153 12.6541 25.2446 11.3286 24.1656C9.75988 22.8891 8.76979 21.2562 8.1192 19.3718C7.68141 18.1023 7.79896 16.8257 7.8172 15.5372C7.82835 14.7347 8.07967 14.0001 8.35734 13.2656H8.35633Z" fill="#F04F58"/>
<path d="M20.1198 30.221C20.0945 30.8458 20.0691 31.4706 20.0448 32.0964C20.2789 32.7152 20.2232 33.343 20.1107 33.9738V37.001H18.8591V0.00897217H20.0407V3.11002C20.0924 3.14895 20.139 3.19885 20.1441 3.26173C20.1857 3.81467 20.2992 4.3736 20.0407 4.90857C20.0418 5.55333 20.0438 6.1971 20.0448 6.84186C20.2911 7.3938 20.2505 7.94574 20.0448 8.49768C20.0448 10.4619 20.0448 12.4261 20.0448 14.3904C20.2941 14.7696 20.1634 15.1868 20.1705 15.5901C20.21 17.2199 20.1786 18.8508 20.1877 20.4807C20.1887 20.7422 20.1897 21.0037 20.2485 21.2602C20.1269 21.7063 20.2353 22.1744 20.1198 22.6216C20.0934 24.5609 20.0671 26.5001 20.0397 28.4394C20.2829 29.0243 20.2059 29.6241 20.1188 30.224L20.1198 30.221Z" fill="#95AFD0"/>
<path d="M16.3865 26.1269C16.3865 20.3979 16.3875 14.6699 16.3885 8.94084C16.3885 5.96955 16.3885 2.99725 16.3885 0H17.5843V36.998H16.3885V28.0641C16.3308 27.9973 16.274 27.9244 16.275 27.8366C16.2771 27.2647 16.1311 26.6828 16.3865 26.1269Z" fill="#95AFD0"/>
<path d="M16.3867 26.1269C16.3867 26.7726 16.3877 27.4184 16.3887 28.0642C9.37904 28.1031 4.78532 21.2063 7.51845 14.7288C7.73531 14.2157 8.07379 13.7516 8.35551 13.2656C7.90759 15.0322 7.58938 16.8557 8.04541 18.6203C9.09934 22.7015 11.725 25.2955 15.9904 26.1458C16.1161 26.1708 16.2539 26.1339 16.3867 26.1259V26.1269Z" fill="#E73944"/>
<path d="M20.0449 15.5941C20.0449 15.1929 20.0449 14.7906 20.0449 14.3894C20.3793 14.4832 20.7249 14.5531 21.0472 14.6779C21.3583 14.7986 21.6461 14.9773 22.0585 15.1889C22.9868 14.2387 23.9363 13.2666 24.8869 12.2944C24.9457 12.3264 24.9842 12.3783 24.9913 12.4402C25.0278 12.7785 25.2193 12.9711 25.5517 13.041C25.6014 13.051 25.6368 13.0889 25.6622 13.1338C24.6994 14.0451 23.7367 14.9573 22.8206 15.8247C23.1429 16.5892 23.4124 17.229 23.7012 17.9166H28.2352C28.2564 17.9486 28.2767 17.9905 28.2615 18.0204C28.071 18.3738 28.068 18.7291 28.2362 19.0904H23.6982C23.4297 19.7391 23.1702 20.3689 22.8399 21.1684C23.7235 21.9948 24.6913 22.9011 25.6591 23.8063C25.3338 24.0619 25.0217 24.3293 24.8332 24.7066C23.8745 23.7964 22.9169 22.8851 21.9775 21.9938C21.3978 22.1894 20.7604 22.405 20.1229 22.6206C20.0297 22.1855 19.9061 21.7493 20.199 21.3371C20.8972 21.0666 21.4576 20.6314 21.8893 20.0236C22.0677 19.7721 22.1791 19.5106 22.2298 19.2092C22.5105 17.5513 21.7758 16.3387 20.3408 15.8107C20.2202 15.7668 20.1057 15.7199 20.0459 15.5961L20.0449 15.5941Z" fill="#68C3E9"/>
<path d="M28.2353 19.0884C28.1319 18.9686 28.0295 18.8478 27.8887 18.6851C28.0012 18.4346 28.1177 18.1751 28.2342 17.9156C30.3776 15.7737 32.5199 13.6318 34.6885 11.464C35.0057 11.8203 35.253 12.0978 35.5884 12.4731C33.7816 14.2177 31.9129 16.0242 30.0431 17.8298C29.9935 18.1172 29.6753 18.224 29.577 18.4895C29.652 18.776 29.9823 18.8867 30.0624 19.1672C31.8906 20.9907 33.7187 22.8142 35.5692 24.6597C35.3087 24.8763 35.0128 25.1228 34.5973 25.4681C32.529 23.3941 30.3816 21.2412 28.2342 19.0884H28.2353Z" fill="#3693CD"/>
<path d="M27.0261 25.0858C28.6628 27.7447 31.2479 27.7707 33.9689 27.3615V28.643H30.6592C31.5611 29.4944 32.4012 30.2879 33.2798 31.1173C32.8846 31.4526 32.5927 31.7012 32.2127 32.0245C31.477 31.26 30.6764 30.4286 29.7694 29.4864V32.813H28.4469C28.7844 30.204 28.8807 27.638 26.18 26.038C25.9469 25.8075 25.8891 25.3264 26.0675 25.0998C26.2347 24.8872 26.6998 24.8802 27.0272 25.0858H27.0261Z" fill="#68C3E9"/>
<path d="M30.0632 19.1672C29.8322 18.9626 29.6011 18.759 29.291 18.4855C29.5626 18.248 29.8028 18.0394 30.043 17.8298C32.0697 18.4765 33.0537 16.8706 34.3235 15.8955C34.8941 15.4573 35.4291 14.9743 36.0139 14.4842C36.2824 14.7966 36.5175 15.0711 36.782 15.3785C35.7889 16.2199 34.8363 17.0273 33.8067 17.9006H36.9999V19.0734H33.7064C34.8049 20.1234 35.8467 21.1195 36.9219 22.1475C36.5266 22.4928 36.2378 22.7443 35.8821 23.0547C34.81 21.9838 33.6324 20.9079 32.5805 19.7251C31.8286 18.8798 30.9591 19.0953 30.0632 19.1682V19.1672Z" fill="#68C3E9"/>
<path d="M26.1183 11.0238C28.8139 9.41093 28.8453 6.86781 28.4278 4.18695H29.729V7.44769C30.5944 6.5584 31.4001 5.73099 32.2513 4.85667C32.5685 5.25091 32.8016 5.53936 33.059 5.85874C32.2959 6.59034 31.4406 7.40877 30.4779 8.332H33.9711V9.62651C31.2663 9.28317 28.6052 9.19734 26.9513 11.9191C26.6564 12.1078 26.2754 12.1177 26.096 11.9401C25.9116 11.7574 25.9227 11.3203 26.1183 11.0238Z" fill="#68C3E9"/>
<path d="M27.0261 25.0858H26.0897C26.1211 25.4242 26.1505 25.7316 26.1789 26.038C26.1789 27.8915 26.1789 29.7459 26.1789 31.6253H24.8311C24.8311 29.3107 24.8311 27.0082 24.8311 24.7056C24.8351 24.1646 25.1645 23.9111 25.657 23.8053C27.7577 23.8312 29.8575 23.8572 31.9582 23.8822C32.2197 23.8851 32.4812 23.8822 32.7629 23.8822V25.0858H27.0251H27.0261Z" fill="#3693CD"/>
<path d="M26.1182 11.0239V11.9192C26.4141 11.9192 26.6827 11.9192 26.9512 11.9192C28.8807 11.9192 30.8092 11.9192 32.761 11.9192V13.1328C30.3968 13.1328 28.0295 13.1328 25.6612 13.1328C25.045 13.1747 24.8464 12.8414 24.8859 12.2944C24.8859 9.99684 24.8859 7.69825 24.8859 5.37671H26.1182V11.0239Z" fill="#3693CD"/>
<path d="M20.1198 30.221C20.0935 29.6262 20.0671 29.0313 20.0408 28.4365C22.1689 30.5704 24.296 32.7043 26.4333 34.8482C26.2103 35.0608 25.9326 35.3252 25.5607 35.6816C23.7549 33.869 21.9378 32.0445 20.1198 30.221Z" fill="#3693CD"/>
<path d="M4.22686 16.146V20.9049C2.8071 20.1054 1.44409 19.3369 0 18.5234C1.44814 17.709 2.81926 16.9385 4.22686 16.146Z" fill="#F8CB5D"/>
<path d="M20.0449 8.49672C20.0449 7.94478 20.0449 7.39284 20.0449 6.8409C21.868 4.99544 23.6911 3.14998 25.5639 1.25562C25.8912 1.66483 26.1233 1.95427 26.333 2.21677C24.2941 4.25286 22.17 6.37479 20.0449 8.49672Z" fill="#68C3E9"/>
<path d="M10.9376 29.2748C9.50059 29.8826 8.14568 30.4555 6.64282 31.0903C7.06135 29.6391 7.4505 28.2887 7.86295 26.8564C8.9108 27.6809 9.88872 28.4494 10.9376 29.2738V29.2748Z" fill="#F8CB5D"/>
<path d="M6.64673 5.96157C8.11412 6.58038 9.47714 7.15528 10.9111 7.76012C9.88249 8.57256 8.9066 9.34308 7.87293 10.1595C7.46859 8.77417 7.07641 7.43075 6.64673 5.96057V5.96157Z" fill="#F8CB5D"/>
<path d="M20.1108 33.9728C20.0885 33.347 20.0662 32.7212 20.0449 32.0954C21.2002 33.3909 22.3565 34.6874 23.5421 36.0169C23.2118 36.2933 22.9057 36.5479 22.5946 36.8084C21.7454 35.8392 20.9286 34.906 20.1118 33.9728H20.1108Z" fill="#68C3E9"/>
<path d="M20.0408 4.90856C20.0408 4.30871 20.0408 3.70986 20.0408 3.11001C20.8748 2.16483 21.7078 1.22064 22.5874 0.224548C22.8773 0.45311 23.162 0.678677 23.535 0.973112C22.3625 2.29358 21.2021 3.60107 20.0408 4.90856Z" fill="#3693CD"/>
<path d="M12.7322 7.17423C12.9288 5.96456 13.1152 4.81277 13.323 3.53522C14.1722 4.57822 14.9627 5.54935 15.7947 6.57039C14.7701 6.77201 13.8266 6.95865 12.7322 7.17423Z" fill="#EC8229"/>
<path d="M13.3313 33.4638C13.1225 32.2301 12.932 31.1093 12.7273 29.8966C13.7599 30.0972 14.7338 30.2869 15.7553 30.4855C14.9466 31.4786 14.1714 32.4327 13.3313 33.4638Z" fill="#EC8229"/>
<path d="M4.84918 22.6844C5.48154 23.5159 6.06627 24.2854 6.68849 25.1048C5.44607 25.3064 4.28371 25.4951 3.00684 25.7017C3.65439 24.6407 4.23608 23.6895 4.8502 22.6844H4.84918Z" fill="#EC8229"/>
<path d="M3.03198 11.3672C4.26934 11.5698 5.43271 11.7595 6.64574 11.9581C6.04987 12.7416 5.47629 13.4951 4.84393 14.3255C4.23488 13.3304 3.65421 12.3833 3.03198 11.3662V11.3672Z" fill="#EC8229"/>
</g>
<defs>
<clipPath id="clip0_2491_9018">
<rect width="37" height="37" fill="white"/>
</clipPath>
</defs>
</svg>
