<svg width="34" height="34" viewBox="0 0 34 34" fill="none" xmlns="http://www.w3.org/2000/svg">
<g clip-path="url(#clip0_2257_9286)">
<path d="M25.3069 13.0956C27.6643 11.9536 29.9308 11.8985 31.8391 13.92C33.2286 15.3916 33.763 17.2947 33.9449 19.2684C34.2782 22.8799 33.1193 25.8975 30.232 28.1806C30.1383 28.255 30.0162 28.2917 29.9069 28.3459C29.8105 28.4046 29.7058 28.4331 29.5937 28.4386C29.4441 28.4386 29.3173 28.3734 29.1952 28.2963C28.8462 28.0741 28.5055 27.8382 28.1354 27.6491C25.1407 25.847 22.0036 24.3341 18.7508 23.058C18.3715 22.8836 17.9721 22.7606 17.5781 22.6229C17.4963 22.5733 17.433 22.5063 17.3898 22.4209C16.8296 20.7317 16.8103 19.0095 17.0932 17.2717C17.3108 15.9351 17.7764 14.6875 18.4946 13.5409C18.7784 13.0873 19.1099 12.6614 19.547 12.3346C19.6591 12.1923 19.7931 12.2015 19.9382 12.2767C21.5114 12.3658 22.8577 13.0313 24.1167 13.9182C24.2278 13.9898 24.2453 14.1073 24.2398 14.2193C24.1985 14.9601 24.0763 15.6835 23.7448 16.3574C23.6107 16.484 23.4674 16.4244 23.3288 16.3693C23.101 16.2802 22.8972 16.1462 22.7456 15.9571C22.5629 15.7294 22.3866 15.7404 22.1533 15.8837C21.6611 16.1838 21.6317 16.2711 22.0688 16.6686C22.9486 17.4691 24.0791 17.8106 25.2977 17.2047C25.6825 17.0137 26.0232 16.7778 26.2803 16.4235C26.4135 16.2398 26.4007 16.1196 26.1986 16.0149C26.1077 15.9681 26.0186 15.9149 25.9314 15.8607C25.7293 15.7349 25.5567 15.7395 25.3822 15.924C25.2821 16.0305 25.1554 16.1848 24.9809 16.0048C24.9267 15.8809 24.9506 15.757 24.98 15.6349C25.137 14.9766 25.1903 14.3092 25.1737 13.6336C25.1691 13.4472 25.1306 13.2397 25.3087 13.0938L25.3069 13.0956Z" fill="#ED7B80"/>
<path d="M18.7728 22.9791C22.0559 24.2175 25.1994 25.7433 28.1886 27.5839C28.2584 27.7226 28.1923 27.8511 28.1574 27.9814C27.9425 28.7755 27.6458 29.5439 27.4071 30.3298C27.3217 30.6107 27.397 30.7162 27.6605 30.7915C28.1932 30.943 28.2216 30.9347 28.3796 30.4078C28.5725 29.7624 28.814 29.1326 29.0004 28.4845C29.0344 28.3652 29.0711 28.2385 29.2181 28.2018C29.3301 28.2504 29.4412 28.2982 29.5532 28.3468C29.6194 28.4019 29.7489 28.3633 29.7645 28.4919C30.816 29.431 32.1366 30.1039 32.7252 31.4984C32.6297 31.6949 32.4313 31.7444 32.2532 31.8133C31.4882 32.1089 30.6865 32.231 29.8747 32.309C28.6073 32.4311 27.3354 32.4036 26.0672 32.3669C24.8109 32.331 23.5555 32.2374 22.3047 32.096C21.9098 32.0511 21.8162 31.9069 21.9108 31.514C21.9567 31.3249 22.0246 31.1422 22.0806 30.9558C22.1376 30.7667 22.0797 30.6465 21.8933 30.5822C21.807 30.5519 21.7197 30.5244 21.6334 30.495C21.4084 30.4179 21.2615 30.4785 21.1853 30.7162C21.1081 30.9558 21.0429 31.1991 20.9593 31.4369C20.8289 31.8087 20.6719 31.9143 20.2871 31.8638C18.3567 31.6113 16.4328 31.3102 14.5585 30.7796C13.5602 30.4968 12.5583 30.1985 11.6427 29.6862C10.8456 29.2401 10.1137 28.7214 9.66275 27.8896C9.22929 27.09 9.15398 26.24 9.28714 25.3586C9.31745 25.1567 9.35143 24.9538 9.39092 24.7537C9.45796 24.1322 9.72703 23.597 10.1026 23.1095C10.1789 23.0094 10.256 22.9103 10.3276 22.8075C11.0256 21.9867 11.9476 21.6388 12.9908 21.5452C13.3674 21.5755 13.7466 21.5369 14.1222 21.5828C15.1425 21.7297 16.1353 21.9968 17.1298 22.2557C17.2538 22.2878 17.3695 22.3328 17.4604 22.4265C17.5082 22.4733 17.5569 22.521 17.6046 22.5678C17.7442 22.779 17.6046 22.9681 17.5422 23.1535C16.9912 24.7886 16.4301 26.4208 15.879 28.0558C15.8276 28.2091 15.6862 28.39 15.8506 28.5323C16.0342 28.6911 16.2804 28.7544 16.5219 28.7498C16.6789 28.7462 16.7294 28.5827 16.7689 28.4524C17.2878 26.7467 17.9343 25.0842 18.4853 23.3895C18.5367 23.2325 18.5276 23.0113 18.7718 22.981L18.7728 22.9791Z" fill="#F8CC5C"/>
<path d="M10.3948 22.846C10.0927 23.4638 9.79057 24.0826 9.48844 24.7004C9.29099 25.1603 9.22395 25.657 9.08161 26.1325C9.04304 26.2629 9.02834 26.4006 8.94753 26.5153C7.89418 27.6335 6.79859 28.7021 5.44954 29.4723C4.9472 29.7587 4.40997 29.9763 3.836 30.0185C2.9599 30.0828 2.239 29.6945 1.62003 29.106C1.41799 28.9141 1.1682 28.7388 1.17004 28.4092C1.2931 27.8024 1.77799 27.4802 2.19675 27.1066C2.2142 26.8798 2.44011 26.8523 2.56225 26.7274C2.59532 26.7008 2.62562 26.6723 2.62838 26.6255C1.54473 26.1077 0.544644 25.5 0.0836333 24.3011C0.0983269 24.2781 0.106592 24.2543 0.111184 24.2276C0.10751 24.2001 0.0946535 24.179 0.0707764 24.1643C0.0496544 24.112 0.0285324 24.0596 0.00832875 24.0073C0.0312874 23.9926 0.0423076 23.9715 0.0423076 23.944C0.0386342 23.9183 0.0294508 23.8944 0.0147572 23.8724C-0.0963629 22.7175 0.461074 21.9261 1.39412 21.3395C1.56217 20.9494 1.9139 20.9512 2.25644 20.9411C2.87817 20.9227 3.49989 20.9273 4.11794 21.0081C4.18038 21.0109 4.24008 21.0256 4.29059 21.0632C4.30987 21.0779 4.30528 21.1054 4.31997 21.1229C4.3365 21.1082 4.33742 21.0898 4.32089 21.0696C4.23365 20.9484 4.17304 20.8126 4.10049 20.684C3.9407 20.2691 3.75794 19.8652 3.72121 19.4098C3.67437 18.8333 3.87457 18.3357 4.15192 17.8538C5.19516 16.3638 7.8602 16.4832 8.91263 18.2357C9.36997 18.9967 9.70241 19.8046 9.95679 20.6473C10.1313 21.2257 10.2709 21.8151 10.3912 22.409C10.4206 22.5559 10.4398 22.7019 10.3939 22.8488L10.3948 22.846Z" fill="#ACC847"/>
<path d="M14.1636 21.6709C13.754 21.6534 13.3435 21.636 12.9339 21.6186C12.7989 21.5139 12.7934 21.3606 12.7934 21.2128C12.7897 17.9198 12.7833 14.6269 12.7952 11.3339C12.7952 11.299 12.8053 11.266 12.8108 11.2329C12.8209 11.0815 12.7769 10.93 12.8035 10.7776C12.8485 10.6325 12.7851 10.4857 12.8099 10.3397C12.8145 9.89353 12.7658 9.44645 12.8237 9.00121C12.8347 8.92685 12.8669 8.85891 12.8935 8.79006C12.9844 8.51006 13.18 8.298 13.3628 8.07951C14.3234 6.93106 15.1912 5.70917 16.1334 4.54694C16.2271 4.43127 16.3024 4.30275 16.3511 4.15954C16.3667 4.12924 16.3869 4.10262 16.4117 4.07875C16.4411 4.06131 16.4732 4.05213 16.5072 4.05029C16.6459 4.06498 16.7239 4.16596 16.802 4.26327C17.8223 5.53199 18.7709 6.85578 19.7535 8.15295C19.827 8.25026 19.9152 8.35124 19.8674 8.49262C19.8904 9.75399 19.9133 11.0163 19.9363 12.2776C19.8435 12.2969 19.7517 12.3162 19.659 12.3355C19.5451 12.4236 19.4101 12.4429 19.2723 12.4612C17.6413 12.6724 16.5173 13.6317 15.6825 14.9647C14.9194 16.1838 14.4877 17.5306 14.3087 18.959C14.2095 19.7449 14.1691 20.5316 14.2398 21.3211C14.2508 21.446 14.2765 21.5745 14.1626 21.6718L14.1636 21.6709Z" fill="#E8E6E3"/>
<path d="M8.86308 26.4943C9.07154 25.8966 9.28001 25.2981 9.48756 24.7004C8.68859 28.49 11.0588 29.7964 15.6102 30.9247C17.1842 31.3148 18.8051 31.5416 20.4159 31.7527C21.0551 31.8363 20.9035 31.1257 21.0101 30.775C21.168 30.2582 21.3903 30.2848 21.8145 30.4041C22.3003 30.54 22.2756 30.7521 22.1571 31.1661C21.6676 32.8644 23.1792 32.0107 23.5594 32.0373C26.6285 32.2549 29.7344 32.6919 32.7254 31.4975C33.1369 32.6891 32.1533 33.6723 30.245 33.8275C24.0296 34.3342 17.9263 33.732 11.9956 31.7601C10.4013 31.2304 9.13307 30.2481 8.73727 28.468C8.6087 28.3028 8.61604 28.1063 8.61604 27.9144C8.61604 27.427 8.61604 26.9377 8.864 26.4924L8.86308 26.4943Z" fill="#F4A83D"/>
<path d="M16.4953 4.09439C16.4742 4.09622 16.4549 4.10081 16.4347 4.10724C16.3089 4.21465 16.1564 4.1972 16.0086 4.1972C13.3555 4.19904 10.7024 4.19904 8.04927 4.1972C7.91335 4.1972 7.77376 4.21281 7.64703 4.14029C7.5102 4.02278 7.50652 3.85845 7.50561 3.69963C7.49918 2.7302 7.49183 1.76076 7.50836 0.792247C7.51387 0.462676 7.57265 0.144121 7.97488 0.0550726C8.01988 0.0486464 8.0658 0.0413022 8.1108 0.034876C8.18702 -8.96677e-06 8.26783 0.0110073 8.34773 0.0110073C10.7823 0.0110073 13.2159 0.0110073 15.6504 0.0110073C15.7294 0.0110073 15.8111 -0.000926994 15.8865 0.035794C16.4439 0.0963837 16.4365 0.497561 16.4338 0.915263C16.4283 1.92968 16.4393 2.9441 16.443 3.95944C16.476 3.99891 16.544 4.0237 16.4944 4.09439H16.4953Z" fill="#518ECB"/>
<path d="M4.19582 21.0696C3.38951 21.0898 2.58228 21.1017 1.77689 21.1393C1.64648 21.1458 1.52159 21.2688 1.39394 21.3386C1.32139 21.0732 1.18731 20.8089 1.18639 20.5435C1.1717 17.5471 1.17629 14.5516 1.17996 11.5552C1.17996 11.4248 1.21945 11.2935 1.24057 11.1632C1.34159 11.0502 1.48026 11.0411 1.61618 11.0392C2.32973 11.0328 3.04421 11.0319 3.75776 11.0392C3.8946 11.0411 4.02959 11.0576 4.14163 11.1512C4.25918 11.2807 4.26561 11.4422 4.26653 11.6029C4.27112 13.5702 4.26745 15.5376 4.2702 17.504C4.2702 17.6444 4.22153 17.7729 4.20684 17.9088C3.66868 18.8434 3.78623 19.7788 4.20684 20.7134C4.24173 20.8327 4.30877 20.953 4.19673 21.0687L4.19582 21.0696Z" fill="#79ABDC"/>
<path d="M8.86296 26.4943C8.82071 27.1525 8.77847 27.8116 8.73623 28.4699C7.42023 29.8377 6.12536 31.2735 4.18949 31.7298C2.94696 32.0226 1.93953 31.4516 1.25628 30.4023C0.853127 29.7836 0.741088 29.0932 1.16996 28.4083C2.69258 30.4886 4.78825 30.3995 7.09973 28.1614C7.68104 27.5986 8.27522 27.0497 8.86296 26.4943Z" fill="#86B940"/>
<path d="M29.9648 8.84521C29.4037 9.93766 28.5 10.5821 27.285 10.6005C26.1904 10.617 25.0718 10.1314 24.7954 9.10776C24.4547 7.84364 25.6247 7.38371 26.6367 7.1386C28.1519 6.77139 29.2365 7.43696 29.9657 8.75892C29.9473 8.77452 29.9409 8.79472 29.9473 8.81859C29.9519 8.83695 29.9593 8.84521 29.9657 8.84521H29.9648Z" fill="#C1D575"/>
<path d="M1.1792 8.76807C2.34826 7.20834 3.51731 5.64862 4.68637 4.08889C4.7277 4.06961 4.76902 4.04391 4.81402 4.04391C5.70849 4.04207 6.60296 3.99434 7.49651 4.07053C7.76743 4.18896 7.61866 4.34319 7.51856 4.47446C7.04652 5.09321 6.55245 5.69544 6.08226 6.31602C5.48809 7.10002 4.83239 7.83811 4.28505 8.65791C4.21158 8.76715 4.12434 8.85161 3.98475 8.86354C3.17752 8.87823 2.3703 8.86722 1.56399 8.86905C1.42807 8.86905 1.28848 8.87823 1.18012 8.76899L1.1792 8.76807Z" fill="#E8E6E3"/>
<path d="M23.6529 16.3876C23.8072 15.5651 23.9615 14.7416 24.1157 13.919C24.2324 12.0555 23.1147 10.4884 22.864 8.71384C22.6896 7.47634 22.8962 6.29943 23.4499 5.18403C23.4738 5.13538 23.6281 5.0959 23.6777 5.1262C23.9706 5.2997 24.5116 5.63937 24.4987 5.6614C23.2158 7.96198 24.5832 9.99908 25.1076 12.1142C25.1875 12.4383 25.2398 12.7688 25.305 13.0956C25.2306 14.0825 25.1562 15.0693 25.0809 16.0562C25.1021 16.1168 25.0818 16.17 25.0442 16.2141C24.8321 16.4629 24.1387 16.6465 23.8292 16.5373C23.7512 16.5097 23.685 16.4684 23.652 16.3876H23.6529Z" fill="#665947"/>
<path d="M7.63432 4.16328C6.65168 4.13849 5.66813 4.1137 4.6855 4.08984C4.68366 3.7823 4.68091 3.47384 4.68091 3.1663C4.68091 0.982626 5.77895 -0.0541314 7.97502 0.0560317C7.25779 1.03281 7.7987 2.14638 7.64258 3.18466C7.59758 3.48486 7.63891 3.79882 7.63983 4.10636C7.64625 4.11646 7.65268 4.12748 7.65911 4.13757C7.65085 4.14675 7.64258 4.15502 7.6334 4.1642L7.63432 4.16328Z" fill="#417FC1"/>
<path d="M4.13175 11.1815C3.16748 11.1751 2.20413 11.1696 1.23987 11.1632C1.21966 10.3883 1.20038 9.61444 1.18018 8.83963C1.49241 8.75792 1.80924 8.80658 2.12424 8.80566C2.79279 8.80474 3.46135 8.77996 4.12899 8.81943C4.17491 8.85707 4.21256 8.90389 4.21348 8.96264C4.22266 9.63372 4.27593 10.3048 4.24287 10.9768C4.24011 11.0337 4.21256 11.086 4.18134 11.1347C4.16481 11.1503 4.14828 11.165 4.13175 11.1806V11.1815Z" fill="#D1CDC7"/>
<path d="M4.13077 8.83784C3.14722 8.83784 2.16367 8.83876 1.18104 8.83968C1.18104 8.81581 1.18012 8.79194 1.1792 8.76807C2.16367 8.76807 3.14814 8.76807 4.13261 8.76807C4.28964 8.65883 4.46597 8.63037 4.65423 8.63037C7.27611 8.63129 9.89708 8.63037 12.519 8.63313C12.6879 8.63313 12.867 8.61844 12.9965 8.76807L12.9285 8.90578C12.5245 9.02512 12.1112 8.94893 11.7016 8.95719C11.6116 8.95902 11.5207 8.93516 11.4289 8.9526C11.2829 8.98106 11.135 8.91496 10.989 8.96086C10.5427 8.97922 10.0964 8.97188 9.65096 8.94617C9.54443 8.95076 9.43607 8.9324 9.33046 8.9627C8.80975 8.98748 8.28905 8.95902 7.76835 8.9627C6.91245 8.97371 6.05655 8.98932 5.20156 8.94984C4.87922 8.97004 4.55597 9.00125 4.23822 8.91404C4.20056 8.89293 4.16567 8.86722 4.13261 8.83876L4.13077 8.83784Z" fill="#E5E2DF"/>
<path d="M29.7637 28.4927C29.693 28.4441 29.6232 28.3963 29.5525 28.3477C29.67 28.3477 29.7876 28.3467 29.9061 28.3458C29.8583 28.3945 29.8115 28.4431 29.7637 28.4927Z" fill="#E95E61"/>
<path d="M0.0138691 23.8715L0.0662149 23.9504C0.0460113 23.9734 0.0276443 23.9724 0.00927734 23.9477C0.011114 23.922 0.0120324 23.8972 0.0138691 23.8715Z" fill="#EAEFD3"/>
<path d="M0.0698242 24.1625C0.0918646 24.1845 0.114823 24.2056 0.136864 24.2277C0.114823 24.2479 0.0964563 24.2442 0.0817627 24.2185C0.0790077 24.1992 0.074416 24.1808 0.0698242 24.1625Z" fill="#D2DE9D"/>
<path d="M0.0817871 24.2184C0.100154 24.2211 0.118521 24.2239 0.136888 24.2276C0.118521 24.2514 0.100154 24.2753 0.0817871 24.3001C0.0817871 24.2735 0.0817871 24.2459 0.0817871 24.2193V24.2184Z" fill="#E8EED0"/>
<path d="M0.0100793 23.9476C0.0293646 23.9476 0.0477315 23.9495 0.0670168 23.9504C0.0468132 23.9687 0.0275279 23.988 0.00732422 24.0064C0.00732422 23.9871 0.00916092 23.9669 0.0100793 23.9476Z" fill="#F4F6E8"/>
<path d="M14.1637 21.6709C13.9268 18.6607 14.4539 15.8763 16.6396 13.6207C17.4514 12.7835 18.4689 12.3309 19.66 12.3355C16.928 15.264 16.6056 18.7167 17.4615 22.4264C16.3623 22.1749 15.263 21.9233 14.1637 21.6709Z" fill="#E95C60"/>
<path d="M18.7729 22.9791C18.153 24.7766 17.5368 26.576 16.9087 28.3707C16.8324 28.5892 16.86 29.0152 16.4715 28.8738C16.1354 28.7508 15.4219 28.9316 15.7369 28.0714C16.4036 26.2528 16.9877 24.4039 17.6057 22.5679C17.9942 22.7056 18.3835 22.8424 18.772 22.9801L18.7729 22.9791Z" fill="#F4A83D"/>
<path d="M23.6529 16.3877C24.1938 16.5557 24.6649 16.4208 25.0827 16.0563C25.361 16.0086 25.3702 15.432 25.7981 15.6854C26.0571 15.8387 26.3051 16.0086 26.5585 16.1711C26.2582 16.485 26.0057 16.8752 25.6494 17.0983C24.2176 17.9961 22.9228 17.7372 21.807 16.5043C21.7087 16.396 21.7032 16.2032 21.6545 16.0499C22.0357 16.0425 22.2349 15.3127 22.7575 15.8002C23.0146 16.0407 23.3526 16.1949 23.6538 16.3877H23.6529Z" fill="#E95C60"/>
<path d="M29.2183 28.2026C28.9868 28.9049 28.726 29.5989 28.535 30.3113C28.3991 30.819 28.3036 31.1339 27.6231 30.919C26.8801 30.685 27.3329 30.2801 27.4119 29.9854C27.6314 29.1739 27.9243 28.3825 28.1879 27.5839C28.5313 27.7895 28.8739 27.9961 29.2173 28.2017L29.2183 28.2026Z" fill="#F4A83D"/>
<path d="M4.20611 17.9088C4.18131 15.6661 4.15651 13.4233 4.13172 11.1806L4.12988 11.1613C4.45773 10.9382 4.82048 11.0704 5.16945 11.0594C5.89954 11.0181 6.62963 11.0245 7.35971 11.0594C8.22388 11.0181 9.08804 11.0199 9.95221 11.064C10.4747 11.0172 10.9973 11.0236 11.5198 11.0649C11.6282 11.0548 11.7366 11.0704 11.8449 11.0594C12.2086 11.0576 12.5851 10.9391 12.924 11.1742C12.9267 14.6553 12.9304 18.1365 12.9332 21.6167C11.9717 21.7884 11.0799 22.1042 10.393 22.845C10.0192 21.3973 9.79333 19.8936 8.97876 18.6001C7.71052 16.5868 5.99872 16.3518 4.20519 17.9079L4.20611 17.9088Z" fill="#A4C6E7"/>
<path d="M4.19604 21.0696C4.19972 20.9512 4.20247 20.8328 4.20615 20.7144C4.27043 20.8511 4.33472 20.9879 4.399 21.1247C4.38247 21.1532 4.36043 21.1568 4.33288 21.1412C4.28696 21.1174 4.24196 21.0935 4.19604 21.0696Z" fill="#A4C6E7"/>
<path d="M4.33179 21.1412C4.35383 21.1338 4.37495 21.1283 4.39791 21.1246C4.37587 21.1301 4.35383 21.1356 4.33179 21.1412Z" fill="#A7C89B"/>
<path d="M12.9955 8.76811C10.0412 8.76811 7.08684 8.76811 4.13159 8.76811C5.29881 7.23318 6.46603 5.69824 7.63417 4.1633L7.62958 4.15962C7.7159 4.11464 7.80866 4.13208 7.89957 4.13208C10.6546 4.13117 13.4087 4.13117 16.1638 4.13208C16.2538 4.13208 16.3475 4.11189 16.4319 4.1633C15.3474 5.60276 14.2628 7.04131 13.1801 8.48077C13.1121 8.57074 13.057 8.6708 12.9964 8.7672L12.9955 8.76811Z" fill="#F0EDEB"/>
<path d="M12.9249 11.1752C12.5594 11.1724 12.1939 11.1697 11.8275 11.1669C11.0818 10.5096 10.4114 9.77703 9.707 9.07933C9.64455 9.01782 9.58027 8.94255 9.62894 8.83789C10.0872 8.83789 10.5454 8.83789 11.0028 8.83789C11.2076 8.9251 11.3564 9.08209 11.5097 9.23631C11.8798 9.60903 12.2499 9.98175 12.6246 10.349C12.7495 10.4711 12.8487 10.606 12.9249 10.7602C12.9249 10.8989 12.924 11.0375 12.9231 11.1761L12.9249 11.1752Z" fill="#DAD6D1"/>
<path d="M11.4161 8.83691C11.9203 8.85986 12.4244 8.8819 12.9286 8.90485C12.9286 9.38589 12.9277 9.86602 12.9268 10.3471C12.8056 10.3985 12.7284 10.3149 12.6577 10.247C12.2702 9.87428 11.889 9.49422 11.5162 9.1059C11.4482 9.03521 11.3647 8.95809 11.4161 8.83691Z" fill="#DAD7D2"/>
<path d="M11.416 8.83691C11.9193 9.33999 12.4234 9.84399 12.9267 10.3471C12.9267 10.4848 12.9267 10.6216 12.9267 10.7593C12.2857 10.1185 11.6447 9.4777 11.0037 8.83691C11.1414 8.83691 11.2782 8.83691 11.416 8.83691Z" fill="#DAD6D2"/>
<path d="M16.4311 4.16416C13.497 4.16325 10.5638 4.16141 7.62964 4.15957C7.63331 4.14121 7.63699 4.12285 7.64066 4.10449C10.572 4.10449 13.5034 4.10633 16.4348 4.10633C16.4329 4.12469 16.432 4.14397 16.4311 4.16325V4.16416Z" fill="#BFD1E3"/>
<path d="M5.16192 11.1669C4.81846 11.1651 4.47408 11.1642 4.13062 11.1623C4.13062 10.3875 4.13062 9.6127 4.13062 8.83789C4.15357 8.83789 4.17653 8.83789 4.19949 8.83789C4.35837 9.00864 4.32898 9.22622 4.30786 9.42176C4.25827 9.88169 4.40796 10.2397 4.7707 10.5216C4.88642 10.6115 4.98743 10.7226 5.07927 10.8383C5.15457 10.9337 5.25467 11.0283 5.161 11.1678L5.16192 11.1669Z" fill="#D6D3CD"/>
<path d="M9.97238 11.1669C9.10179 11.1669 8.23211 11.1669 7.36152 11.1669C6.61398 10.5114 5.94267 9.77973 5.24105 9.07835C5.17952 9.01685 5.11432 8.94065 5.16299 8.83691C6.03359 8.83691 6.90418 8.83691 7.77386 8.83691C7.99885 8.9379 8.14762 9.13619 8.3166 9.29868C8.86669 9.82655 9.42321 10.3489 9.91912 10.93C9.97697 10.9979 10.0523 11.0659 9.97238 11.1659V11.1669Z" fill="#D7D5CF"/>
<path d="M5.16284 8.83691C5.89568 9.61356 6.62853 10.3902 7.36137 11.1669C6.62853 11.1669 5.89568 11.1669 5.16192 11.1669C4.54663 10.5123 3.93777 9.85409 4.20041 8.83691C4.52092 8.83691 4.84234 8.83691 5.16284 8.83691Z" fill="#D6D4CE"/>
<path d="M9.97245 11.1669C9.23961 10.3902 8.50677 9.61356 7.77393 8.83691C8.30106 8.83691 8.82727 8.83691 9.3544 8.83691C9.48389 8.90852 9.60879 8.9838 9.71531 9.09213C10.27 9.65396 10.8329 10.2075 11.3858 10.7703C11.4886 10.8749 11.665 10.9649 11.5529 11.1669C11.0258 11.1669 10.4996 11.1669 9.97245 11.1669Z" fill="#D9D5D0"/>
<path d="M11.5528 11.1669C10.8199 10.3902 10.0871 9.61356 9.35425 8.83691C9.44608 8.83691 9.53792 8.83691 9.62883 8.83691C10.3617 9.61356 11.0945 10.3902 11.8274 11.1669C11.7355 11.1669 11.6437 11.1669 11.5519 11.1669H11.5528Z" fill="#D9D5D1"/>
</g>
<defs>
<clipPath id="clip0_2257_9286">
<rect width="34" height="34" fill="white"/>
</clipPath>
</defs>
</svg>
