<svg width="36" height="37" viewBox="0 0 36 37" fill="none" xmlns="http://www.w3.org/2000/svg">
<g clip-path="url(#clip0_2257_8960)">
<path d="M32.1936 6.66664C32.0592 6.65279 31.9237 6.65279 31.7893 6.66664H4.17816C4.00119 6.66936 3.8254 6.6959 3.65552 6.74553L17.9048 20.9357L32.1936 6.66664Z" fill="black"/>
<path d="M33.6528 8.03735L19.295 22.336C18.9255 22.7033 18.4256 22.9095 17.9046 22.9095C17.3836 22.9095 16.8837 22.7033 16.5142 22.336L2.2846 8.14583C2.24086 8.3066 2.21767 8.47227 2.21558 8.63888V28.3611C2.21558 28.8842 2.42336 29.3858 2.79323 29.7557C3.16309 30.1255 3.66473 30.3333 4.1878 30.3333H31.7989C32.322 30.3333 32.8236 30.1255 33.1935 29.7557C33.5633 29.3858 33.7711 28.8842 33.7711 28.3611V8.63888C33.7633 8.43343 33.7234 8.23047 33.6528 8.03735ZM5.53877 28.3611H4.16808V26.951L11.3371 19.8411L12.7275 21.2315L5.53877 28.3611ZM31.7792 28.3611H30.3986L23.2099 21.2315L24.6003 19.8411L31.7693 26.951L31.7792 28.3611Z" fill="black"/>
</g>
<defs>
<clipPath id="clip0_2257_8960">
<rect x="0.3125" y="0.75" width="35.5" height="35.5" rx="17.75" fill="white"/>
</clipPath>
</defs>
</svg>
