<svg width="24" height="24" viewBox="0 0 24 24" fill="none" xmlns="http://www.w3.org/2000/svg">
<path fill-rule="evenodd" clip-rule="evenodd" d="M5.63604 5.06529L10.6072 10.0356C10.9673 9.68768 11.4585 9.47347 12 9.47347C13.1046 9.47347 14 10.3649 14 11.4646C14 12.0071 13.7821 12.4989 13.4287 12.8581L18.364 17.7932C18.7545 18.1837 18.7545 18.8169 18.364 19.2074C17.9734 19.5979 17.3403 19.5979 16.9497 19.2074L16.0498 18.3084C14.7649 19.0525 13.4151 19.4292 12 19.4292C8.41439 19.4292 5.2486 17.0106 2.49391 12.3261L2.28282 11.9613L2 11.4646L2.28282 10.9679C3.12423 9.49032 4.00457 8.22699 4.92408 7.18241L4.22183 6.4795C3.8313 6.08897 3.8313 5.45581 4.22183 5.06529C4.61235 4.67476 5.24551 4.67476 5.63604 5.06529ZM4.54572 11.069L4.30532 11.4646L4.51336 11.8079C6.87517 15.6384 9.37415 17.4381 12 17.4381C12.8728 17.4381 13.7313 17.2396 14.575 16.8343L10.7964 13.055C10.6453 12.9414 10.5108 12.807 10.3974 12.6561L6.33749 8.59402C5.73183 9.29538 5.13452 10.1192 4.54572 11.069ZM12 3.5C15.5856 3.5 18.7514 5.91863 21.5061 10.6031L21.7172 10.9679L22 11.4646L21.5113 12.3173C20.7425 13.6258 19.9416 14.7576 19.1086 15.7096L17.6965 14.2975C18.3734 13.5081 19.0396 12.5654 19.6948 11.4648C17.2718 7.39826 14.7031 5.49116 12 5.49116C11.1437 5.49116 10.3009 5.68253 9.47198 6.0733L7.99438 4.59542C9.26603 3.86816 10.6011 3.5 12 3.5Z" fill="#A3AAB9"/>
</svg>
