<svg width="35" height="35" viewBox="0 0 35 35" fill="none" xmlns="http://www.w3.org/2000/svg">
<g clip-path="url(#clip0_2257_9021)">
<path d="M6.59166 13.1035C4.83065 11.2184 4.10483 9.05086 5.16382 6.55787C6.18115 4.157 8.07899 3.03945 10.6075 3.13156C12.0115 3.18068 13.2133 3.76401 14.2068 4.80787C15.2718 5.93156 16.3486 7.86577 17.4552 7.89033C18.5022 7.91489 19.5791 5.907 20.6738 4.83243C22.3217 3.21752 24.2672 2.67717 26.4506 3.41401C30.3414 4.73419 31.4718 9.79998 28.5745 12.7903C28.4674 12.9009 28.3901 13.0482 28.3008 13.1833C27.9677 13.6377 27.5334 13.9938 27.1585 14.4052C27.0336 14.5465 26.8908 14.6754 26.7778 14.8351C26.7064 14.9088 26.6231 14.9517 26.516 14.9395C26.2126 14.8228 25.9449 14.6263 25.6177 14.5526C24.6003 14.3131 23.5592 15.1237 23.6068 16.2044C23.6306 16.8307 23.6722 17.4693 23.5651 18.0956C22.4943 19.2438 21.4234 20.3921 20.2811 21.4544C19.7754 21.9272 19.1329 22.2649 18.413 22.357C18.3297 22.3693 18.2405 22.3816 18.1572 22.3386C16.6877 22.6088 15.4383 22.1175 14.3794 21.0982C13.3858 20.1403 12.4399 19.1272 11.4701 18.1386C11.2738 18.0219 11.2678 17.8254 11.2678 17.6351C11.2559 17.1745 11.2381 16.7079 11.2678 16.2473C11.3511 14.9702 10.0185 14.1289 8.84646 14.7061C8.70962 14.7737 8.59064 14.8658 8.44785 14.921C8.32292 14.964 8.22178 14.9026 8.12659 14.8289C7.64469 14.307 7.19849 13.7544 6.67495 13.2754C6.62735 13.2324 6.60356 13.171 6.58571 13.1096L6.59166 13.1035Z" fill="#ED534A"/>
<path d="M26.7421 14.7307C27.2656 14.2149 27.7832 13.6991 28.3068 13.1833C30.389 15.3693 32.5606 17.4755 34.5119 19.7719C35.2973 20.6991 35.0652 22.0562 34.2502 23.0141C33.2328 24.2176 32.1084 25.3351 30.9602 26.4035C30.2998 27.0176 29.9547 27.6684 30.1094 28.5772C29.9845 28.743 29.806 28.743 29.6335 28.743C26.7421 28.743 23.8567 28.743 20.9653 28.743C20.7928 28.743 20.6083 28.743 20.4893 28.5772C20.7214 26.7597 19.8111 24.7026 21.5007 23.186C21.8101 22.9097 22.2265 22.75 22.5895 22.5351C22.6727 22.4062 22.7977 22.3386 22.9345 22.3386C23.2915 22.3263 23.351 22.1053 23.351 21.7983C23.351 20.7851 23.351 19.7658 23.351 18.7526C23.351 18.5377 23.3331 18.3105 23.4938 18.1325C23.6722 16.7263 22.8096 14.8412 25.0763 14.3869C25.6355 14.2763 26.1472 14.4912 26.5696 14.8904C26.4922 16.0386 26.6886 17.1807 26.641 18.3351C26.5934 19.4772 26.6291 20.6255 26.635 21.7737C26.635 21.9333 26.5755 22.1483 26.7718 22.2158C26.9979 22.2956 27.2478 22.3018 27.4679 22.2035C27.6048 22.1483 27.5691 21.9825 27.5691 21.8535C27.575 21.3746 27.5691 20.9018 27.575 20.4228C27.575 20.2325 27.5512 19.9991 27.7594 19.9132C27.9736 19.8272 28.0985 20.0298 28.2294 20.1588C28.4615 20.3798 28.6697 20.6132 28.8958 20.8404C29.1873 21.1228 29.2349 21.1228 29.5383 20.8158C29.8477 20.5026 29.8596 20.4351 29.5859 20.1588C29.1337 19.6921 28.7173 19.1948 28.2116 18.7895C27.7535 18.4272 27.5155 17.9912 27.5631 17.3649C27.6048 16.8676 27.6107 16.3641 27.5155 15.8605C27.4322 15.443 27.3311 15.05 26.8789 14.8965C26.8075 14.8719 26.7599 14.8044 26.7421 14.7246V14.7307Z" fill="#F3BE99"/>
<path d="M6.59209 13.1035C7.11564 13.6438 7.64513 14.1903 8.16867 14.7307C8.18652 14.8474 8.10323 14.8965 8.01994 14.921C7.57969 15.0623 7.46665 15.4307 7.38931 15.8421C7.28817 16.3947 7.31791 16.9474 7.31196 17.5C7.31196 17.6289 7.31196 17.7579 7.27627 17.8807C7.18108 18.1202 6.955 18.2368 6.79437 18.4088C6.23513 18.9982 5.66995 19.5816 5.09881 20.1588C4.87868 20.3798 4.86083 20.5579 5.09881 20.7666C5.24159 20.8895 5.37248 21.0368 5.49741 21.1781C5.63425 21.3316 5.72944 21.2702 5.81868 21.1228C6.13399 20.7544 6.47311 20.4167 6.81817 20.0789C6.91336 19.9807 7.03235 19.864 7.18108 19.9377C7.30007 19.9991 7.30602 20.1526 7.31196 20.2816C7.32981 20.7974 7.31197 21.3131 7.32386 21.8289C7.33576 22.2281 7.37146 22.2649 7.76412 22.2649C8.19247 22.2649 8.24601 22.2281 8.24601 21.8351C8.25791 20.1465 8.24601 18.4579 8.24601 16.7693C8.24601 16.407 8.25196 16.0447 8.42449 15.7131C8.57918 15.4245 8.40664 15.1605 8.3769 14.8903C8.97183 14.3009 9.67385 14.2272 10.3878 14.5465C11.0838 14.8535 11.423 15.443 11.3932 16.2596C11.3754 16.8859 11.4408 17.5123 11.4646 18.1324C11.4408 19.514 11.3873 20.9017 11.4408 22.2833C11.4408 22.4061 12.1071 22.4798 12.4522 22.6149C14.1299 23.2474 14.4988 24.6105 14.3976 26.2623C14.35 27.0359 14.3917 27.8096 14.3917 28.5833C14.2668 28.7491 14.0883 28.7491 13.9157 28.7491C11.0244 28.7491 8.13892 28.7491 5.24754 28.7491C5.07501 28.7491 4.89058 28.7491 4.77159 28.5833C4.92628 27.6745 4.50387 27.0789 3.93274 26.4035C2.56439 24.764 0.369078 23.7754 0.0121176 21.3316C-0.112819 20.4842 0.208446 19.7167 0.791482 19.1026C2.71312 17.0947 4.65261 15.0991 6.5802 13.0974L6.59209 13.1035Z" fill="#F3BE99"/>
<path d="M4.78331 28.5834H14.4094C15.5278 28.35 15.7004 28.9088 15.6349 29.9281C15.5338 31.5307 16.1882 33.7658 15.4029 34.5763C14.6176 35.3869 12.452 34.7851 10.8933 34.7913C8.579 34.7974 6.2647 34.7913 3.94446 34.7974C3.64699 34.7974 3.56965 34.7176 3.5756 34.4106C3.59345 32.9123 3.65294 31.4141 3.55775 29.9281C3.49231 28.9088 3.67079 28.35 4.78331 28.5834Z" fill="#01875F"/>
<path d="M20.4957 28.5834C23.7024 28.5834 26.9091 28.5834 30.1218 28.5834C31.2402 28.35 31.4128 28.9088 31.3473 29.9281C31.2462 31.5307 31.9006 33.7658 31.1153 34.5763C30.33 35.3869 28.1644 34.7851 26.6057 34.7913C24.2914 34.7974 21.9771 34.7913 19.6569 34.7974C19.3594 34.7974 19.282 34.7176 19.288 34.4106C19.3058 32.9123 19.3653 31.4141 19.2702 29.9281C19.2047 28.9088 19.3832 28.35 20.4957 28.5834Z" fill="#01875F"/>
<path d="M9.43568 0.0122506C12.6483 -0.00617041 14.7544 0.859619 16.3607 2.67716C17.271 3.71488 17.7886 3.7026 18.6096 2.6526C19.4246 1.60874 20.5729 0.957865 21.8103 0.515759C21.8996 0.485058 22.1375 0.601724 22.1435 0.669268C22.1792 1.00085 22.667 1.48593 22.2684 1.62102C20.4896 2.2412 19.2878 3.60436 18.0384 4.91839C17.6041 5.37278 17.2829 5.36664 16.8486 4.91839C13.2135 1.15436 10.221 0.294707 6.84177 2.12453C6.04456 2.55436 5.35443 3.22979 4.7 3.88681C4.14077 4.45172 3.98013 3.78857 3.68862 3.62892C3.32571 3.43243 3.60533 3.22365 3.77191 3.02716C5.47342 1.00085 7.65683 0.0490927 9.43568 0.0122506Z" fill="#CDDCE5"/>
<path d="M24.6896 0.626294C24.9097 1.57805 24.0887 1.31401 23.7734 1.28331C23.2855 1.23419 23.4283 0.638575 23.4462 0.306996C23.47 -0.190372 23.934 0.0859436 24.2017 0.0245401C24.6955 -0.0859862 24.7729 0.208751 24.6896 0.626294Z" fill="#CDDCE5"/>
<path d="M7.18088 17.9851C7.26417 17.064 7.31177 16.1369 7.46645 15.2281C7.50214 15.0254 7.92455 14.8904 8.16847 14.7307C8.23986 14.786 8.31126 14.8351 8.38265 14.8904C9.05492 15.3877 8.37075 15.8851 8.3767 16.3825C8.4005 18.2491 8.37075 20.1158 8.39455 21.9825C8.40644 22.6333 7.97809 22.357 7.70442 22.4C7.40695 22.443 7.10354 22.4491 7.18088 21.9763C7.19278 21.9026 7.18088 21.8228 7.18088 21.743C7.16303 21.1597 7.14518 20.5763 7.12734 19.993C6.69303 20.4351 6.26468 20.8772 5.83038 21.3132C5.79468 21.35 5.74709 21.3684 5.69354 21.3562C5.6281 21.3439 5.58646 21.2947 5.53886 21.2518C4.63456 20.3 4.67026 20.6009 5.46152 19.7597C6.02671 19.164 6.60974 18.5807 7.17493 17.9851H7.18088Z" fill="#EC917F"/>
<path d="M26.7425 14.7307C27.4981 14.8412 27.7777 15.4983 27.6647 16.0509C27.2363 18.1018 28.682 19.0412 29.8064 20.1711C30.2883 20.6623 29.7053 20.7483 29.5566 20.9877C29.4078 21.2272 29.2234 21.4237 28.9259 21.0798C28.5809 20.6807 28.1704 20.3491 27.7896 19.9869C27.7599 20.5333 27.6944 21.0798 27.7182 21.6202C27.7361 22.1483 27.7182 22.443 27.04 22.4369C26.3439 22.4307 26.5224 22.0132 26.5045 21.6386C26.3915 19.5877 26.7306 17.5246 26.3261 15.4798C26.2904 15.314 26.4867 15.0991 26.5759 14.9026C26.6295 14.8474 26.689 14.7921 26.7425 14.7369V14.7307Z" fill="#EC917F"/>
<path d="M7.18097 17.9851C6.60388 18.6176 6.07439 19.3114 5.43781 19.8763C4.49781 20.7176 5.40806 20.9202 5.83046 21.3132C5.72338 21.3193 5.55084 21.3746 5.5211 21.3316C5.29502 20.9877 4.5692 20.7237 4.84882 20.3614C5.5211 19.4895 6.38375 18.7711 7.17502 17.9912L7.18097 17.9851Z" fill="#F3BE99"/>
<path d="M13.7848 31.0886C13.9693 31.7334 13.5706 31.6658 13.1363 31.7088C12.4819 31.7763 12.6366 31.3527 12.589 30.9781C12.5057 30.3088 12.94 30.493 13.2851 30.45C13.8146 30.3763 13.8681 30.6588 13.7848 31.0948V31.0886Z" fill="#7FCAE4"/>
<path d="M22.2861 31.1254C22.4646 31.7517 22.0481 31.6596 21.6436 31.7088C21.007 31.7824 21.1319 31.3833 21.0843 30.9903C21.007 30.2903 21.4651 30.4991 21.8101 30.45C22.3872 30.364 22.3277 30.7386 22.2861 31.1316V31.1254Z" fill="#7FCAE4"/>
</g>
<defs>
<clipPath id="clip0_2257_9021">
<rect width="35" height="35" fill="white"/>
</clipPath>
</defs>
</svg>
