<svg width="24" height="24" viewBox="0 0 24 24" fill="none" xmlns="http://www.w3.org/2000/svg">
<path fill-rule="evenodd" clip-rule="evenodd" d="M2.09043 9.48124C2.61794 9.21952 3.22599 8.99014 3.88784 8.79158C4.48686 8.61188 5.14634 8.45263 5.85511 8.31667C6.14415 6.59337 6.63247 5.03397 7.27658 3.74573C7.47319 3.35252 7.68954 2.97552 7.92478 2.6224C5.05637 3.87065 2.87211 6.39641 2.09043 9.48124ZM12 0C5.37258 0 0 5.37258 0 12C0 18.6274 5.37258 24 12 24C18.6274 24 24 18.6274 24 12C24 5.37258 18.6274 0 12 0ZM11.1111 1.98613C10.3442 2.34247 9.55374 3.16666 8.86668 4.54078C8.38024 5.51366 7.9837 6.69731 7.71583 8.02783C8.78271 7.89791 9.92389 7.81559 11.1111 7.78806V1.98613ZM11.1111 9.56633C9.80165 9.59819 8.56466 9.69968 7.44102 9.85652C7.37063 10.5463 7.33333 11.2631 7.33333 12C7.33333 12.7369 7.37063 13.4537 7.44102 14.1435C8.56466 14.3003 9.80165 14.4018 11.1111 14.4337V9.56633ZM12.8889 14.4337V9.56633C14.1984 9.59819 15.4353 9.69968 16.559 9.85652C16.6294 10.5463 16.6667 11.2631 16.6667 12C16.6667 12.7369 16.6294 13.4537 16.559 14.1435C15.4353 14.3003 14.1984 14.4018 12.8889 14.4337ZM11.1111 16.212C9.92389 16.1844 8.78271 16.1021 7.71584 15.9722C7.98371 17.3027 8.38024 18.4863 8.86668 19.4592C9.55374 20.8333 10.3442 21.6575 11.1111 22.0139V16.212ZM7.92478 21.3776C5.05638 20.1294 2.87211 17.6036 2.09043 14.5188C2.61794 14.7805 3.22599 15.0099 3.88784 15.2084C4.48686 15.3881 5.14634 15.5474 5.85511 15.6833C6.14415 17.4066 6.63247 18.966 7.27658 20.2543C7.47319 20.6475 7.68954 21.0245 7.92478 21.3776ZM5.62698 13.8217C5.18903 13.7253 4.77838 13.6195 4.39868 13.5056C3.43954 13.2179 2.72811 12.8929 2.27631 12.5725C1.80141 12.2356 1.77778 12.0293 1.77778 12C1.77778 11.9707 1.80141 11.7644 2.2763 11.4276C2.72811 11.1071 3.43954 10.7821 4.39868 10.4944C4.77837 10.3805 5.18902 10.2747 5.62698 10.1784C5.57987 10.7734 5.55556 11.3818 5.55556 12C5.55556 12.6182 5.57987 13.2266 5.62698 13.8217ZM16.0752 21.3776C18.9436 20.1294 21.1279 17.6036 21.9096 14.5188C21.3821 14.7805 20.774 15.0099 20.1122 15.2084C19.5131 15.3881 18.8537 15.5474 18.1449 15.6833C17.8558 17.4066 17.3675 18.966 16.7234 20.2543C16.5268 20.6475 16.3105 21.0245 16.0752 21.3776ZM16.2842 15.9722C15.2173 16.1021 14.0761 16.1844 12.8889 16.212V22.0139C13.6558 21.6575 14.4463 20.8333 15.1333 19.4592C15.6198 18.4863 16.0163 17.3027 16.2842 15.9722ZM18.373 13.8217C18.811 13.7253 19.2216 13.6195 19.6013 13.5056C20.5605 13.2179 21.2719 12.8929 21.7237 12.5725C22.1986 12.2356 22.2222 12.0293 22.2222 12C22.2222 11.9707 22.1986 11.7644 21.7237 11.4276C21.2719 11.1071 20.5605 10.7821 19.6013 10.4944C19.2216 10.3805 18.811 10.2747 18.373 10.1784C18.4201 10.7734 18.4444 11.3818 18.4444 12C18.4444 12.6182 18.4201 13.2266 18.373 13.8217ZM18.1449 8.31667C17.8559 6.59337 17.3675 5.03397 16.7234 3.74573C16.5268 3.35252 16.3105 2.97552 16.0752 2.6224C18.9436 3.87065 21.1279 6.39641 21.9096 9.48124C21.3821 9.21952 20.774 8.99014 20.1122 8.79158C19.5131 8.61188 18.8537 8.45263 18.1449 8.31667ZM16.2842 8.02783C15.2173 7.89791 14.0761 7.81559 12.8889 7.78806V1.98613C13.6558 2.34247 14.4463 3.16666 15.1333 4.54078C15.6198 5.51366 16.0163 6.69731 16.2842 8.02783Z" fill="#4F6070"/>
</svg>
