<svg width="12" height="12" viewBox="0 0 12 12" fill="none" xmlns="http://www.w3.org/2000/svg">
<g clip-path="url(#clip0_3260_10558)">
<path d="M3.16266 6.54464C2.2561 6.54464 1.34954 6.54282 0.442979 6.54737C0.353091 6.54782 0.280874 6.50917 0.215571 6.45641C0.122994 6.38137 0.0477038 6.27358 0.0158206 6.14805C-0.0510189 5.88472 0.108781 5.55544 0.337726 5.46403C0.376139 5.44856 0.421851 5.45447 0.463722 5.45447C1.71562 5.45447 2.96751 5.45447 4.21941 5.45447C4.79024 5.45447 5.36106 5.45447 5.93189 5.45447C6.00756 5.45447 6.00141 5.46357 6.00065 5.37261C5.99873 5.17113 6.07594 5.00422 6.16006 4.83731C6.24649 4.66584 6.38056 4.56124 6.51961 4.46982C6.61642 4.40615 6.72436 4.36158 6.8419 4.36295C7.20145 4.36613 7.56139 4.36476 7.92132 4.36385C8.04348 4.36385 8.1518 4.40752 8.25206 4.48847C8.28087 4.51167 8.32197 4.5144 8.34886 4.53895C8.42223 4.60718 8.50867 4.66857 8.55783 4.75726C8.64004 4.90598 8.69766 5.0738 8.76335 5.2348C8.77103 5.253 8.76335 5.27983 8.7645 5.30257C8.76757 5.35214 8.75643 5.42173 8.7791 5.44492C8.80406 5.47039 8.86053 5.45447 8.90317 5.45447C9.78092 5.45447 10.6587 5.45675 11.5364 5.45311C11.7208 5.4522 11.8353 5.56818 11.9313 5.73327C12.0369 5.91519 12.0051 6.23856 11.8595 6.37454C11.8234 6.4082 11.788 6.44367 11.7512 6.47687C11.6901 6.53145 11.6221 6.54691 11.5449 6.54691C10.6621 6.54464 9.77977 6.54555 8.89703 6.54555C8.86822 6.54555 8.83941 6.54828 8.8106 6.54464C8.77141 6.53964 8.76296 6.55965 8.76335 6.6024C8.76565 6.88984 8.64004 7.11269 8.49407 7.32099C8.45181 7.38148 8.38613 7.41877 8.33004 7.46562C8.23823 7.54202 8.13144 7.58296 8.02926 7.63435C8.00506 7.64663 7.97241 7.63617 7.9436 7.63617C7.56945 7.63617 7.19531 7.63617 6.82116 7.63617C6.74011 7.63617 6.60143 7.57386 6.51692 7.51746C6.4255 7.45652 6.331 7.40331 6.2584 7.31098C6.13279 7.1518 6.0598 6.95851 6.00026 6.75612C5.99873 6.75112 6.00026 6.74475 6.00026 6.7393C5.99834 6.6779 5.99604 6.6165 5.99373 6.5551C5.93265 6.55192 5.87119 6.546 5.81012 6.546C4.92737 6.54555 4.04501 6.546 3.16227 6.546L3.16266 6.54464Z" fill="black"/>
<path d="M8.35487 2.18217H5.23223C5.19382 2.18217 5.1554 2.18399 5.11699 2.18171C5.08472 2.17989 5.07819 2.19763 5.07819 2.2322C5.08088 2.53237 4.95873 2.77432 4.79048 2.97398C4.67831 3.10724 4.53541 3.20411 4.36831 3.24368C4.29456 3.26096 4.22311 3.27233 4.14897 3.27233C3.82284 3.27279 3.49671 3.27233 3.17058 3.27279C3.0442 3.27279 2.93357 3.2264 2.82486 3.14817C2.73958 3.08677 2.64239 3.04402 2.57862 2.95124C2.4703 2.79388 2.35621 2.63788 2.34277 2.41958C2.34046 2.3841 2.32164 2.34999 2.31588 2.31406C2.30858 2.27131 2.3178 2.21764 2.29897 2.18763C2.28668 2.16807 2.23636 2.18171 2.20294 2.18171C1.62251 2.18171 1.04208 2.17899 0.461655 2.18308C0.277271 2.18444 0.166255 2.06437 0.068301 1.90065C-0.0354155 1.72691 -0.00430057 1.39263 0.142439 1.25937C0.178932 1.22617 0.215809 1.19343 0.251149 1.15841C0.311459 1.09883 0.381371 1.08882 0.457814 1.08928C1.04785 1.09155 1.63788 1.09064 2.22791 1.09018C2.31396 1.09018 2.31165 1.08928 2.31549 0.99604C2.32279 0.820941 2.38118 0.67131 2.45455 0.518496C2.54828 0.323386 2.68657 0.204682 2.84329 0.102806C2.94355 0.0382235 3.05342 0.0027488 3.16712 0.00183919C3.52667 -0.00134444 3.88661 0.000474779 4.24654 0.000929583C4.34411 0.000929583 4.46934 0.050958 4.56384 0.122362C4.60916 0.156473 4.65795 0.184216 4.70404 0.215597C4.82236 0.295642 4.89112 0.420259 4.9545 0.552607C4.98062 0.607183 4.99714 0.668127 5.02211 0.723613C5.0636 0.816393 5.08972 0.913721 5.07819 1.01924C5.07128 1.08473 5.09356 1.09883 5.14234 1.09155C5.17077 1.08746 5.19996 1.09064 5.22877 1.09064C7.325 1.09064 9.42123 1.09382 11.5171 1.08564C11.7149 1.08473 11.9162 1.25119 11.9765 1.47722C12.0207 1.64323 12.0065 1.82651 11.8931 1.97023C11.8735 1.99524 11.8528 2.01889 11.8321 2.04254C11.7533 2.1326 11.6642 2.18308 11.5497 2.18308C10.4849 2.18035 9.42007 2.18126 8.35525 2.18126L8.35487 2.18217Z" fill="black"/>
<path d="M8.36756 10.9076H5.23072C5.1973 10.9076 5.16349 10.909 5.13007 10.9076C5.09781 10.9058 5.07821 10.9094 5.07821 10.9603C5.07937 11.2596 4.95145 11.4925 4.79242 11.7049C4.72212 11.799 4.4248 11.9805 4.33453 11.9978C4.30649 12.0032 4.27691 11.9987 4.24848 11.9987C3.87933 11.9987 3.50979 11.9987 3.14064 11.9987C3.0615 11.9987 2.91016 11.9341 2.83563 11.8836C2.74075 11.819 2.63742 11.7672 2.56827 11.6639C2.50681 11.5725 2.45995 11.4665 2.40118 11.3719C2.35431 11.2964 2.36507 11.1964 2.31628 11.1232C2.31167 11.1163 2.3159 11.1009 2.31551 11.0895C2.31436 11.0331 2.31321 10.9772 2.31206 10.9208C2.25597 10.9162 2.19989 10.9085 2.14381 10.9085C1.58258 10.9076 1.02136 10.9053 0.460141 10.9094C0.275372 10.9108 0.167046 10.788 0.067939 10.6256C-0.00965629 10.4987 0.00455672 10.3586 0.0176173 10.2267C0.0268366 10.1372 0.0813838 10.0535 0.142845 9.98252C0.2408 9.86882 0.347589 9.81288 0.488951 9.81424C1.07399 9.82061 1.65941 9.81697 2.24445 9.81697C2.31398 9.81697 2.31628 9.81606 2.31475 9.73784C2.31167 9.54182 2.38466 9.37672 2.46456 9.21481C2.55368 9.03516 2.69273 8.92328 2.84447 8.82823C2.94204 8.76728 3.04691 8.73044 3.15447 8.72863C3.51402 8.72271 3.87395 8.71998 4.2335 8.72999C4.35335 8.73317 4.47013 8.76637 4.57769 8.85688C4.65759 8.92419 4.75785 8.9633 4.82276 9.05608C4.92955 9.20844 5.01445 9.3749 5.05325 9.57365C5.06592 9.63778 5.08244 9.69918 5.07783 9.76467C5.07399 9.81561 5.09665 9.81925 5.1293 9.81743C5.16272 9.81561 5.19653 9.81743 5.22995 9.81743C7.32617 9.81743 9.4224 9.82061 11.5182 9.81242C11.7203 9.81151 11.92 9.9857 11.9765 10.2058C12.0192 10.3709 12.0076 10.556 11.8909 10.6988C11.8709 10.7234 11.8505 10.7475 11.8298 10.7711C11.751 10.8612 11.6608 10.9103 11.5467 10.9099C10.4865 10.9071 9.42663 10.9085 8.36641 10.9085L8.36756 10.9076Z" fill="black"/>
</g>
<defs>
<clipPath id="clip0_3260_10558">
<rect width="12" height="12" fill="white"/>
</clipPath>
</defs>
</svg>
