<svg width="22" height="22" viewBox="0 0 22 22" fill="none" xmlns="http://www.w3.org/2000/svg">
<path d="M21.0395 10.973V10.973C21.0395 9.71412 19.926 8.8421 18.667 8.8421H12.7631C11.695 8.8421 10.8291 9.708 10.8291 10.7761V10.7761C10.8291 11.8443 11.695 12.7102 12.7631 12.7102H13.7013C15.2897 12.7102 16.4689 14.1876 15.3833 15.3472C15.1459 15.6008 14.873 15.842 14.5617 16.0603C14.5329 16.0805 14.5131 16.1116 14.5078 16.1464V16.1464C14.5007 16.1926 14.5195 16.239 14.5567 16.2673L17.5853 18.5666C17.63 18.6005 17.6832 18.6213 17.739 18.6268V18.6268C17.824 18.6351 17.9087 18.6074 17.9711 18.5492C19.9193 16.7332 21.0395 14.0939 21.0395 10.973" fill="#4285F4"/>
<path d="M10.8289 21.1646C12.6527 21.1646 14.2907 20.7908 15.6943 20.1087C16.9266 19.5097 16.8641 17.8745 15.7728 17.046V17.046C15.0222 16.4762 13.9994 16.4893 13.1055 16.7875C12.4527 17.0053 11.6977 17.1342 10.8289 17.1342C8.04865 17.1342 5.68409 15.3576 4.80817 12.8892C4.79025 12.8387 4.74074 12.806 4.68732 12.8105V12.8105C4.66524 12.8123 4.64414 12.8204 4.62649 12.8338L1.41022 15.2731C1.38425 15.2928 1.36448 15.3195 1.35325 15.3501V15.3501C1.33685 15.3948 1.33985 15.4444 1.3619 15.4866C3.1233 18.8555 6.69615 21.1646 10.8289 21.1646Z" fill="#34A853"/>
<path d="M4.77844 12.8029C4.55391 12.1543 4.42396 11.4594 4.42396 10.7414C4.42396 10.0369 4.54905 9.35469 4.75468 8.71667C4.76252 8.69235 4.76606 8.66686 4.76496 8.64133V8.64133C4.76225 8.57828 4.73163 8.51971 4.68141 8.48149L1.4973 6.05814C1.45989 6.02967 1.40978 6.02428 1.36718 6.04414V6.04414C1.3416 6.05606 1.32072 6.07617 1.30799 6.10137C0.599325 7.50451 0.193237 9.0775 0.193237 10.7414C0.193237 10.9186 0.197841 11.0947 0.206924 11.2697C0.323925 13.5241 2.97988 14.1671 4.77844 12.8029V12.8029" fill="#FBBC05"/>
<path d="M10.829 4.34849C11.816 4.34849 12.6443 4.55496 13.3223 4.8491C14.323 5.28318 15.555 5.31347 16.3431 4.55938V4.55938C17.2085 3.7313 17.1978 2.32099 16.163 1.7178C14.6386 0.829227 12.851 0.318237 10.829 0.318237C7.26108 0.318237 4.11045 2.03927 2.18249 4.6775C1.62637 5.4385 1.87398 6.47832 2.624 7.04917V7.04917C3.67891 7.85208 5.23965 7.35857 6.14378 6.38901C7.31293 5.13524 8.97894 4.34849 10.829 4.34849" fill="#EB4335"/>
</svg>
