<svg width="12" height="10" viewBox="0 0 12 10" fill="none" xmlns="http://www.w3.org/2000/svg">
<path d="M6 9C5.85764 9 5.72038 8.95362 5.61342 8.86938C5.20944 8.55174 4.81996 8.25325 4.47633 7.98995L4.47458 7.98858C3.46712 7.21658 2.59714 6.54989 1.99182 5.89315C1.31517 5.15895 1 4.46283 1 3.70236C1 2.9635 1.28175 2.28186 1.7933 1.7829C2.31096 1.27805 3.02126 1 3.79358 1C4.37082 1 4.89946 1.1641 5.36478 1.4877C5.59961 1.65105 5.81247 1.85096 6 2.08414C6.18761 1.85096 6.40039 1.65105 6.6353 1.4877C7.10062 1.1641 7.62926 1 8.2065 1C8.97874 1 9.68912 1.27805 10.2068 1.7829C10.7183 2.28186 11 2.9635 11 3.70236C11 4.46283 10.6849 5.15895 10.0083 5.89308C9.40294 6.54989 8.53304 7.21651 7.52573 7.98844C7.18149 8.25215 6.7914 8.55113 6.38651 8.86952C6.27962 8.95362 6.14229 9 6 9Z" fill="#01875F" stroke="#01875F"/>
</svg>
