<svg width="34" height="34" viewBox="0 0 34 34" fill="none" xmlns="http://www.w3.org/2000/svg">
<g clip-path="url(#clip0_2257_9080)">
<path d="M-0.000176833 22.2777C1.17218 22.2777 2.34453 22.2876 3.51599 22.2741C4.14924 22.2669 4.86242 22.0973 4.77805 23.1453C4.82334 23.2608 4.84555 23.3789 4.84555 23.5052C4.84466 25.429 4.84555 27.3537 4.84377 29.2775C4.84377 29.3452 4.83933 29.4119 4.82334 29.4769C4.81801 29.7826 4.90772 30.0965 4.75052 30.3896C4.55779 30.5908 4.30733 30.6331 4.05066 30.635C2.90228 30.6449 1.75391 30.644 0.60465 30.635C0.371956 30.6331 0.133045 30.6205 -0.00195312 30.3734V22.2786L-0.000176833 22.2777Z" fill="#A1DCF1"/>
<path d="M0 30.3724C1.56758 30.5988 3.13515 30.5889 4.70362 30.3742C4.87503 30.5537 4.85549 30.7585 4.78089 30.9713C4.84839 32.2737 3.89363 31.8309 3.26838 31.8444C2.1804 31.8678 1.08975 31.8119 0.000888146 31.7894V30.3724H0Z" fill="#71CFEE"/>
<path d="M8.50325 22.4769C6.67545 20.6234 4.95156 18.7583 4.38759 16.011C3.46836 11.5356 6.05641 6.9015 10.3568 6.02934C13.1483 5.46293 15.5782 6.64175 17.4709 8.68462C18.6992 10.0096 18.9088 8.42576 19.5642 8.14797C19.8937 8.00817 20.1637 7.72226 20.4613 7.50309C20.6833 7.47874 20.7703 7.65552 20.8618 7.80073C21.988 9.58745 22.6923 11.5302 22.9472 13.6389C23.0111 14.1638 23.0271 14.6906 23.0253 15.2173C22.9037 15.5429 22.6745 15.8062 22.5102 16.1084C22.2864 16.5197 22.0448 16.921 21.8095 17.326C21.7375 17.4505 21.6682 17.5839 21.5075 17.6146C21.4746 17.6173 21.4418 17.6146 21.4089 17.6074C21.3778 17.5966 21.3485 17.5803 21.3219 17.5614C21.2828 17.5325 21.2464 17.4992 21.2117 17.4649C20.8156 16.921 20.5652 16.2924 20.2277 15.7152C19.9923 15.312 19.8289 14.8682 19.5278 14.5012C19.3733 14.3127 19.3289 14.0556 19.217 13.8355C19.0429 13.4964 18.8422 13.1744 18.6548 12.8452C18.6379 12.8236 18.6192 12.8019 18.5988 12.783C18.5686 12.7586 18.5393 12.7316 18.5091 12.7081C18.4771 12.6874 18.4434 12.6693 18.4043 12.6621C18.3634 12.6603 18.3244 12.6621 18.2853 12.6729C18.2622 12.6865 18.24 12.6991 18.2169 12.7135C18.2062 12.7217 18.1947 12.7289 18.184 12.737C18.1299 12.7812 18.0766 12.8254 18.0206 12.8669C17.629 13.3701 17.3838 13.9573 17.1032 14.5237C17.0916 14.5553 17.0774 14.585 17.0632 14.6148C16.7728 15.0802 16.5126 15.5627 16.239 16.0371C15.9939 16.4628 15.8322 16.4665 15.5498 16.0489C15.2993 15.6782 15.0658 15.2967 14.8482 14.9052C14.4334 14.1566 14.0888 14.1494 13.6536 14.8764C13.4183 15.2696 13.166 15.6547 12.9591 16.0633C12.7628 16.4502 12.4928 16.6117 12.0594 16.5927C11.3968 16.563 10.7325 16.5846 10.0691 16.5855C9.95893 16.5855 9.84791 16.5855 9.73778 16.5945C9.48377 16.6171 9.36387 16.7803 9.34433 17.0166C9.32479 17.2529 9.49443 17.3476 9.68538 17.4063C9.80261 17.4423 9.92518 17.4423 10.0469 17.4423C10.832 17.4441 11.6171 17.4387 12.4022 17.4441C12.8712 17.4469 13.2388 17.3062 13.4458 16.8344C13.5577 16.5801 13.722 16.3483 13.8685 16.1102C13.9396 15.9956 14.008 15.8784 14.151 15.8405C14.2567 15.8297 14.333 15.9082 14.4281 15.9325C14.8233 16.3249 15.096 16.8083 15.3766 17.2836C15.4974 17.4865 15.596 17.6967 15.834 17.7815C15.9504 17.8112 16.0489 17.7679 16.1404 17.7003C16.1981 17.6624 16.2452 17.6137 16.2834 17.556C16.3509 17.464 16.3953 17.3603 16.4406 17.2565C16.4486 17.2286 16.4593 17.2024 16.4699 17.1754C16.5188 17.0067 16.5925 16.8516 16.7088 16.7199C16.7301 16.6838 16.7497 16.6468 16.7657 16.6081C16.8056 16.4683 16.8909 16.3564 16.9779 16.2455C16.9993 16.2085 17.0188 16.1706 17.0339 16.1309C17.0739 15.9938 17.1565 15.8847 17.2417 15.7765C17.263 15.7404 17.2835 15.7025 17.2986 15.6628C17.3376 15.523 17.4247 15.4112 17.5099 15.2994C17.5313 15.2624 17.549 15.2254 17.565 15.1857C17.605 15.0414 17.7009 14.9296 17.7799 14.8087C17.8004 14.7681 17.8181 14.7257 17.835 14.6833C17.8625 14.6085 17.8989 14.5408 17.9478 14.4786C18.264 14.0809 18.3519 14.0845 18.6263 14.4975C19.0216 15.0928 19.2818 15.7639 19.645 16.3772C20.1282 17.1934 20.511 18.0683 21.0332 18.8611C21.2926 19.2543 21.5927 19.2426 21.8645 18.8466C22.067 18.5517 22.2162 18.2234 22.4107 17.9249C22.4844 17.8112 22.5519 17.6471 22.742 17.7643C22.8166 17.8771 22.8015 17.9997 22.7766 18.1215C22.3903 19.9957 21.638 21.7121 20.5927 23.3004C20.5678 23.3383 20.5323 23.3644 20.4888 23.3779C20.3271 23.3599 20.249 23.2273 20.1522 23.1227C19.7543 22.6898 19.2694 22.421 18.6983 22.3046C17.7773 22.1161 16.8492 21.9664 15.9246 21.8032C15.056 21.6498 14.1865 21.7103 13.317 21.8284C12.1553 21.9863 11.0158 22.2695 9.8559 22.4372C9.45268 22.4958 9.05124 22.5761 8.64003 22.5707C8.60273 22.5617 8.56898 22.5455 8.53789 22.5229C8.52635 22.5076 8.51391 22.4931 8.50237 22.4778L8.50325 22.4769Z" fill="#F37E87"/>
<path d="M22.9809 15.266C22.8521 13.0599 22.456 10.9196 21.392 8.95973C21.1175 8.45375 20.7738 7.98746 20.4612 7.50312C21.138 6.86546 21.9586 6.52002 22.8397 6.29724C22.9898 6.33963 22.9924 6.47402 23.0164 6.59217C23.4081 8.55387 24.5333 9.91668 26.3016 10.7573C27.9376 11.3949 29.5292 11.3201 31.0745 10.4578C31.1936 10.3911 31.3214 10.2919 31.468 10.41C33.0818 14.7907 32.0737 18.4913 28.7805 21.7004C26.6258 23.8001 24.6017 26.0368 22.519 28.2123C22.5235 28.4098 22.3707 28.4504 22.2348 28.4829C21.1042 28.7498 19.9816 28.9907 18.803 28.7111C17.8696 28.4901 16.9184 28.3377 15.9743 28.1636C15.834 28.1374 15.6874 28.1266 15.5693 28.0319C15.3828 27.774 15.619 27.691 15.7629 27.6044C16.5249 27.1462 17.2115 26.587 17.8758 25.9981C17.9762 25.9088 18.0792 25.8267 18.2071 25.7816C18.6716 25.7176 19.1467 25.7518 19.5988 25.5678C20.1646 25.3379 20.4594 24.9013 20.5855 24.3268C20.6477 24.0445 20.5092 23.7793 20.4648 23.506C20.4612 23.4519 20.471 23.4023 20.5109 23.3635C21.4168 21.7049 22.3156 20.0435 22.6567 18.145C22.6798 18.0142 22.6887 17.8816 22.7038 17.7499C22.5892 17.5912 22.6745 17.4487 22.7473 17.3116C22.869 17.0843 23.0111 16.8696 23.1274 16.6397C23.3024 16.2933 23.5697 16.1418 23.9578 16.1445C25.0414 16.1535 26.1258 16.1517 27.2093 16.1445C27.3843 16.1436 27.5673 16.1607 27.7076 16.0137C27.8035 15.9127 27.8834 15.8045 27.8408 15.6557C27.7964 15.4996 27.6916 15.4112 27.5282 15.3986C27.3843 15.3878 27.2413 15.3869 27.0974 15.3869C25.9029 15.3869 24.7083 15.3896 23.5138 15.3842C23.3308 15.3842 23.1327 15.4239 22.9809 15.266Z" fill="#F1636F"/>
<path d="M20.5107 23.3636C20.5151 23.4042 20.5196 23.4448 20.524 23.4854C20.5533 23.7316 20.4032 23.8822 20.2398 24.022C19.6758 24.5063 19.0079 24.6065 18.3054 24.5325C17.3818 24.4351 16.4599 24.3169 15.5406 24.1844C15.3541 24.1573 15.1658 24.16 14.9784 24.1474C14.2501 24.096 13.8043 24.7643 13.9588 25.4552C13.9855 25.576 14.0317 25.6915 14.0548 25.8123C14.0752 25.9639 14.0077 26.0973 13.9713 26.238C13.7892 26.9397 14.1276 27.5251 14.8168 27.7154C15.0593 27.7822 15.3275 27.7659 15.5406 27.9346C17.7805 28.3477 19.9965 29.1594 22.3074 28.3468C22.3838 28.3197 22.4486 28.2584 22.5197 28.2133C24.2409 27.8886 25.9568 27.5314 27.6851 27.2536C28.4756 27.1264 29.3282 27.0191 29.8815 27.8732C29.9064 28.2115 29.6781 28.4072 29.4623 28.5939C29.1914 28.8284 28.8815 29.0016 28.5386 29.1134C26.5057 29.7736 24.47 30.4248 22.4442 31.1067C21.3855 31.4629 20.286 31.7055 19.2611 32.1439C18.3259 32.5434 17.3693 32.6264 16.3861 32.6462C15.7707 32.6589 15.1783 32.5218 14.5912 32.3558C11.4596 31.4683 8.31822 30.6169 5.18129 29.7493C5.01077 29.7024 4.83314 29.6672 4.72656 29.5003C4.74433 27.3826 4.76209 25.264 4.77985 23.1462C6.02148 22.9235 7.26311 22.7016 8.50385 22.4788L8.50029 22.4779C8.51628 22.5041 8.53671 22.5086 8.56158 22.4914C10.8015 22.302 12.9828 21.3721 15.2342 21.6517C17.0611 21.879 19.1225 21.64 20.5116 23.3654L20.5107 23.3636Z" fill="#FCD0A3"/>
<path d="M31.4677 10.4111C29.7785 11.3319 28.0448 11.6593 26.2241 10.816C26.2294 10.5788 26.4399 10.5563 26.5838 10.4832C27.3521 10.0954 27.9818 9.5425 28.512 8.86425C29.0324 8.19863 29.3477 7.44011 29.5174 6.61304C29.5529 6.44077 29.5467 6.25046 29.6861 6.11247C29.8593 6.01325 30.0494 6.05294 30.2341 6.04031C30.354 6.0322 30.4775 6.03671 30.5823 5.96275C30.727 5.86173 30.8283 5.73095 30.7839 5.54245C30.7439 5.37198 30.624 5.2845 30.4526 5.26646C30.2998 5.25022 30.1453 5.26014 29.9925 5.24932C29.8709 5.2403 29.7518 5.22226 29.6621 5.12395C29.6035 5.0509 29.5911 4.96251 29.5804 4.87322C29.3522 2.97015 28.3939 1.56494 26.7694 0.612507C26.6451 0.539451 26.4675 0.497962 26.4941 0.286911C29.3939 -0.557294 32.0788 0.502472 33.3639 2.99811C34.6464 5.48743 33.9563 8.31227 31.593 10.2577C31.5432 10.2992 31.5086 10.3596 31.4668 10.412L31.4677 10.4111Z" fill="#D6DBE9"/>
<path d="M26.4932 0.285889C28.313 1.3655 29.5688 2.83203 29.6825 5.08234C29.5351 5.36645 29.2855 5.25732 29.0724 5.22756C28.8672 5.1996 28.7899 5.02823 28.7739 4.83431C28.7429 4.44198 28.7722 4.04873 28.7544 3.6564C28.7473 3.49675 28.7375 3.34072 28.5706 3.25414C28.3228 3.12426 28.0625 3.27127 28.0243 3.58604C27.9862 3.89811 28.0101 4.21379 28.0084 4.52856C28.0048 5.21944 27.9604 5.26363 27.2668 5.26634C26.9905 5.26724 26.7143 5.26273 26.4381 5.27175C26.217 5.27896 26.0376 5.33759 26.0322 5.60636C26.0269 5.87514 26.2001 5.98698 26.4283 6.01404C26.7472 6.05102 27.0687 6.02666 27.3893 6.03117C27.9266 6.03929 27.9995 6.11325 28.0066 6.65621C28.0101 6.95926 27.995 7.26321 28.0163 7.56535C28.0368 7.8684 28.1744 8.03345 28.3903 8.03255C28.6087 8.03255 28.7366 7.87021 28.7526 7.56175C28.7686 7.24787 28.7508 6.9331 28.7624 6.61923C28.7695 6.42171 28.7322 6.17999 28.964 6.09341C29.2002 6.00502 29.4578 5.95992 29.6781 6.16556C29.4329 8.41136 28.1247 9.84182 26.2223 10.8159C24.2781 9.94013 23.2141 8.38431 22.8376 6.29724C22.7559 3.47781 23.9007 1.42773 26.4923 0.285889H26.4932Z" fill="#F7F1EF"/>
<path d="M4.72493 29.4993C8.41873 30.4996 12.0983 31.5639 15.8143 32.4721C17.6359 32.9168 19.3207 31.9995 21.0109 31.4421C23.7339 30.5438 26.449 29.6202 29.1507 28.6597C29.4474 28.5541 29.6392 28.1428 29.8799 27.8732C30.4501 29.6978 29.2031 30.2092 27.9064 30.6231C24.408 31.7388 20.9345 32.9646 17.3819 33.8629C15.1988 34.414 13.1259 33.1711 11.0219 32.6597C8.92852 32.151 6.86003 31.5386 4.78088 30.9722C4.75513 30.7729 4.72937 30.5744 4.70361 30.3751C4.71072 30.0838 4.71782 29.7916 4.72582 29.5002L4.72493 29.4993Z" fill="#FCBB85"/>
<path d="M22.981 15.2661C24.4846 15.2643 25.9874 15.2706 27.491 15.2553C27.8312 15.2517 28.0088 15.4375 28.0043 15.7198C27.999 16.021 27.8134 16.269 27.4652 16.2708C26.4483 16.2772 25.4207 16.3683 24.4171 16.2483C23.2172 16.1049 23.0707 17.014 22.7039 17.7491C22.3202 18.2461 21.9152 19.1787 21.5573 19.1597C20.4595 19.102 20.4365 17.842 19.9506 17.0997C19.3689 16.2113 18.9177 15.2345 18.4088 14.2974C18.3928 14.2677 18.3555 14.2505 18.3289 14.2271C18.1921 14.4147 18.0544 14.6032 17.9177 14.7908C17.8999 14.8151 17.8821 14.8395 17.8644 14.8638C17.7933 14.9973 17.7232 15.1299 17.6521 15.2634C17.6344 15.2877 17.6166 15.3121 17.5988 15.3364C17.5278 15.4699 17.4576 15.6025 17.3866 15.736C17.3688 15.7604 17.351 15.7847 17.3333 15.8091C17.2622 15.9425 17.1921 16.0751 17.121 16.2086C17.1032 16.233 17.0855 16.2573 17.0677 16.2817C16.9967 16.4152 16.9265 16.5477 16.8555 16.6812C16.8377 16.7056 16.8199 16.7299 16.8022 16.7543C16.7151 16.9103 16.629 17.0654 16.5419 17.2215C16.2977 17.3216 16.3101 17.6742 16.0401 17.75C15.9886 17.8014 15.9229 17.8321 15.8705 17.8817C15.0783 17.5002 14.9886 16.5586 14.4175 16.0012C14.3864 15.9813 14.3535 15.966 14.3225 15.9462C14.3038 15.9308 14.286 15.9137 14.2709 15.8956C14.2532 15.8794 14.2328 15.8677 14.2088 15.8614C13.4068 18.1 11.5337 17.5245 9.89328 17.5543C9.5469 17.5606 9.19608 17.4415 9.19875 17.0582C9.20141 16.6839 9.43322 16.407 9.89772 16.4738C11.6456 16.7245 13.1661 16.5126 13.7878 14.4733C13.8278 14.3434 14.1502 14.163 14.2239 14.2072C14.4903 14.3669 14.7497 14.5797 14.9308 14.8323C15.2452 15.2688 15.4948 15.7522 15.7879 16.205C15.8083 16.2357 16.0215 16.205 16.057 16.1482C16.3856 15.6124 16.6947 15.0641 17.01 14.5193C17.0251 14.4986 17.0251 14.4769 17.01 14.4562C17.3395 13.897 17.669 13.3378 17.9985 12.7786C18.1077 12.7975 18.1735 12.6839 18.2765 12.683C18.3653 12.6658 18.4506 12.6794 18.5349 12.7082C18.5749 12.7218 18.6158 12.7416 18.6566 12.7118C19.4524 14.1468 20.2473 15.5827 21.0448 17.0167C21.123 17.1574 21.2189 17.2891 21.3068 17.4253C21.3353 17.4452 21.3592 17.4695 21.3797 17.4993C21.3814 17.52 21.3859 17.5399 21.3939 17.5588C21.4134 17.5822 21.4338 17.5832 21.4552 17.5615C21.9641 16.7976 22.4739 16.0336 22.9828 15.2706L22.981 15.2661Z" fill="#F7F1EF"/>
<path d="M15.9351 17.6904C16.1367 17.5344 16.3383 17.3775 16.5399 17.2214C16.5337 17.2431 16.5275 17.2647 16.5212 17.2864C16.396 17.3657 16.3507 17.4893 16.3365 17.63C16.293 17.6742 16.2504 17.7184 16.2068 17.7626C16.1038 17.7878 16.0097 17.7779 15.9351 17.6913V17.6904Z" fill="#F7F1EF"/>
<path d="M18.5915 12.7659H18.2594C18.2203 12.728 18.1528 12.7046 18.1901 12.6279H18.1874C18.2114 12.6108 18.2345 12.5927 18.2585 12.5747H18.4592C18.4841 12.5927 18.5089 12.6099 18.5338 12.6279C18.5542 12.6487 18.5746 12.6703 18.5942 12.6911C18.6102 12.7082 18.6155 12.7253 18.6093 12.7416C18.6031 12.7578 18.5977 12.7659 18.5915 12.7659Z" fill="#F7F1EF"/>
<path d="M15.9353 17.6904C16.0259 17.7139 16.1164 17.7382 16.207 17.7617C16.0942 17.8014 15.9814 17.842 15.8687 17.8816C15.8909 17.8176 15.9131 17.7545 15.9353 17.6904Z" fill="#F7F1EF"/>
<path d="M18.1903 12.627C18.2134 12.673 18.2365 12.719 18.2596 12.765C18.1725 12.7686 18.0846 12.7722 17.9976 12.7758C18.0615 12.7262 18.1263 12.6766 18.1903 12.6261V12.627Z" fill="#F7F1EF"/>
<path d="M14.2065 15.8613C14.2305 15.8451 14.2536 15.8289 14.2776 15.8126C14.2998 15.8271 14.3167 15.8451 14.3309 15.8667C14.3593 15.9118 14.3877 15.956 14.4161 16.0011C14.3469 15.9542 14.2767 15.9082 14.2074 15.8613H14.2065Z" fill="#F37E87"/>
<path d="M18.2586 12.5737C18.2346 12.5918 18.2115 12.6098 18.1875 12.6269C18.2115 12.6089 18.2346 12.5918 18.2586 12.5737Z" fill="#F6E4E3"/>
<path d="M21.3786 17.4956C21.3546 17.4712 21.3306 17.4469 21.3066 17.4216C21.3306 17.446 21.3546 17.4703 21.3786 17.4956Z" fill="#F37E87"/>
<path d="M21.4534 17.5584C21.4329 17.5584 21.4125 17.5562 21.3921 17.5552C21.4125 17.5552 21.4329 17.5573 21.4534 17.5584Z" fill="#F37E87"/>
<path d="M8.56079 22.4896C8.54037 22.4851 8.51994 22.4806 8.49951 22.4761C8.52083 22.4788 8.54125 22.4833 8.56079 22.4896Z" fill="#FDE1C7"/>
<path d="M17.0087 14.4543C17.015 14.4688 17.023 14.4832 17.0265 14.4985C17.0274 14.5031 17.015 14.5112 17.0087 14.5175C17.0016 14.4967 17.0016 14.4751 17.0087 14.4543Z" fill="#F7F1EF"/>
<path d="M18.5918 12.7659C18.5927 12.7406 18.5936 12.7163 18.5945 12.691C18.6149 12.6965 18.6362 12.7028 18.6557 12.71C18.6344 12.7289 18.6131 12.7479 18.5918 12.7659Z" fill="#F7F1EF"/>
<path d="M14.0156 25.8546C13.7074 25.4226 13.7136 24.9482 13.9801 24.5324C14.4997 23.7216 15.2874 24.0995 15.9997 24.1256C17.3408 24.1762 18.7006 24.8688 20.0159 24.04C20.2202 23.911 20.357 23.6729 20.5248 23.4844C21.143 24.8968 20.1758 25.8781 18.197 25.8483C17.6179 25.9521 17.0584 25.7726 16.49 25.7248C16.0397 25.6869 15.5947 25.5922 15.1418 25.5678C14.8265 25.5507 14.5245 25.5796 14.2634 25.7888C14.195 25.8438 14.1124 25.8844 14.0174 25.8537L14.0156 25.8546Z" fill="#FCBB85"/>
<path d="M14.016 25.8547C15.4086 24.9185 16.803 25.8583 18.1965 25.8493C17.311 26.5447 16.4255 27.2392 15.5409 27.9345C14.1474 27.9679 13.4324 26.9929 14.0168 25.8547H14.016Z" fill="#F37E87"/>
<path d="M29.6792 6.16562C28.4891 5.9212 28.9545 6.83575 28.8905 7.35346C28.8452 7.72325 28.958 8.18143 28.3869 8.17061C27.8354 8.15978 27.8265 7.7016 27.8985 7.33813C28.1232 6.2053 27.5734 6.00417 26.64 6.14668C26.2758 6.2026 25.9143 6.13946 25.8939 5.62987C25.8726 5.08781 26.2589 5.08872 26.5955 5.15185C27.68 5.35569 28.1045 4.95162 27.894 3.83684C27.823 3.46164 27.9056 3.07561 28.386 3.06118C28.9198 3.04585 28.8088 3.48509 28.9038 3.83504C29.0317 4.30674 28.2963 5.41341 29.6819 5.0824C30.0575 5.15005 30.5593 5.09052 30.7796 5.3151C31.1429 5.6867 30.8951 6.05107 30.403 6.14668C30.1686 6.19178 29.9199 6.16111 29.6783 6.16472L29.6792 6.16562Z" fill="#F37E87"/>
</g>
<defs>
<clipPath id="clip0_2257_9080">
<rect width="34" height="34" fill="white"/>
</clipPath>
</defs>
</svg>
