<svg width="28" height="30" viewBox="0 0 28 30" fill="none" xmlns="http://www.w3.org/2000/svg">
<g clip-path="url(#clip0_2812_9290)">
<path d="M9.87007 21.2054C9.65356 19.9612 10.4826 18.4528 8.97907 17.5353C6.96206 16.3044 5.55353 14.6217 4.78487 12.4366C2.82339 6.8611 6.68518 0.857344 12.7024 0.113323C12.824 0.0984734 12.9399 0.0390767 13.0582 0C13.0783 0 13.0984 0 13.1185 0C13.1427 0.0250091 13.1741 0.0296983 13.2063 0.0296983C13.228 0.0296983 13.2497 0.0296983 13.2707 0.0296983C13.3037 0.0296983 13.3351 0.0257907 13.3592 0H14.5641C14.5891 0.0265722 14.6221 0.0289168 14.6559 0.0296983C14.6784 0.0296983 14.7001 0.0296983 14.7227 0.0296983C14.7444 0.0296983 14.7669 0.0296983 14.7887 0.0296983C14.8104 0.0296983 14.8329 0.0296983 14.8547 0.0296983C14.8764 0.0296983 14.8981 0.0296983 14.9207 0.0296983C14.9424 0.0296983 14.9641 0.0296983 14.9867 0.0296983C15.0084 0.0296983 15.0301 0.0296983 15.0519 0.0312614C15.0744 0.0343875 15.0921 0.045329 15.1042 0.0640859C15.1058 0.0812796 15.1082 0.0984734 15.1098 0.116449C15.0607 0.255562 14.9295 0.257125 14.8136 0.278226C13.6667 0.484552 12.5785 0.859688 11.5989 1.47085C10.3586 2.24535 9.2479 3.16053 8.49856 4.43365C8.10498 5.10186 7.66954 5.74975 7.45142 6.49768C7.24376 7.2081 7.08681 7.92476 7.00552 8.66722C6.90169 9.61679 7.00472 10.532 7.17857 11.455C7.23571 11.7566 7.42003 12.0192 7.47637 12.3084C7.5472 12.6702 7.66954 13.0063 7.82971 13.3299C8.22249 14.1223 8.69898 14.8531 9.31471 15.515C9.74129 15.9738 10.1759 16.4107 10.6782 16.7819C10.988 17.0109 11.2858 17.2586 11.6191 17.4579C11.9579 17.6603 12.2284 17.9276 12.4215 18.2684C12.4827 19.175 12.4481 20.0823 12.4408 20.9889C12.4408 21.0475 12.4223 21.1046 12.395 21.1577C12.3064 21.307 12.1527 21.3179 12.003 21.3211C11.3848 21.3328 10.7659 21.3242 10.1478 21.3257C10.0391 21.3257 9.92239 21.3312 9.86846 21.2054H9.87007Z" fill="#FEC458"/>
<path d="M13.5404 30C12.5649 29.6179 12.0385 28.9442 12.0989 27.8914C12.1585 27.8149 12.2454 27.7898 12.3355 27.7883C12.7903 27.7813 13.2467 27.7406 13.6998 27.8149C13.8479 27.8672 13.8704 27.9954 13.8833 28.1212C13.9429 28.7128 14.1473 29.2326 14.6488 29.6108C14.7164 29.6616 14.7896 29.7265 14.7502 29.8312C14.6504 29.8703 14.5498 29.9094 14.45 29.9492C14.429 29.9641 14.4065 29.9711 14.3807 29.9703C14.3558 29.9703 14.3308 29.9703 14.3059 29.9703C14.2809 29.9703 14.256 29.9703 14.231 29.9703C14.194 29.9703 14.157 29.9703 14.12 29.9703C14.0588 29.9703 13.9976 29.9703 13.9364 29.9703C13.9002 29.9703 13.8648 29.9703 13.8286 29.9703C13.8052 29.9703 13.7811 29.9703 13.7578 29.9703C13.7223 29.9703 13.6877 29.9719 13.6612 30H13.5404Z" fill="#6E60B8"/>
<path d="M13.9019 29.9414H14.1433C14.1659 29.9547 14.1731 29.9672 14.1659 29.9805C14.1586 29.9938 14.1514 30 14.1433 30H13.9027C13.8801 29.9867 13.8729 29.9742 13.8801 29.9609C13.8874 29.9477 13.8946 29.9414 13.9019 29.9414Z" fill="#6E60B8"/>
<path d="M14.1426 30C14.1426 29.9805 14.1426 29.9609 14.1426 29.9414C14.1828 29.9414 14.2231 29.9414 14.2641 29.9414C14.2858 29.9547 14.2931 29.968 14.2858 29.9805C14.2786 29.993 14.2714 29.9992 14.2633 29.9992H14.1426V30Z" fill="#7467BB"/>
<path d="M13.3594 0C13.3191 0.0195384 13.2789 0.0390767 13.2386 0.0586151C13.2161 0.045329 13.2088 0.0328245 13.2161 0.0195384C13.2241 0.00625228 13.2314 0 13.2394 0C13.2797 0 13.3191 0 13.3594 0Z" fill="#FFD98A"/>
<path d="M14.6849 0.0586151C14.6447 0.0390767 14.6045 0.0195384 14.5642 0C14.6045 0 14.6447 0 14.6849 0C14.7075 0.0132861 14.7147 0.0257907 14.7075 0.0390767C14.7002 0.0523628 14.693 0.0586151 14.6849 0.0586151Z" fill="#FED072"/>
<path d="M13.9018 29.9414C13.9018 29.9609 13.9018 29.9805 13.9018 30H13.7811C13.7586 29.9867 13.7513 29.9742 13.7586 29.9609C13.7658 29.9477 13.7731 29.9414 13.7811 29.9414C13.8213 29.9414 13.8616 29.9414 13.901 29.9414H13.9018Z" fill="#7669BB"/>
<path d="M14.928 0.0507998C14.9071 0.0531444 14.887 0.055489 14.8661 0.0578336C14.8435 0.0445475 14.8363 0.0320429 14.8435 0.0187568C14.8508 0.00625228 14.858 0 14.8661 0H14.9264C14.9482 0.0109415 14.9554 0.021883 14.949 0.033606C14.9425 0.045329 14.9353 0.0515813 14.928 0.0515813V0.0507998Z" fill="#FFE4AB"/>
<path d="M14.8057 0.0586151C14.7856 0.0586151 14.7655 0.0586151 14.7453 0.0586151C14.7284 0.045329 14.7228 0.0328245 14.7284 0.0195384C14.7341 0.00625228 14.7397 0 14.7453 0H14.8057C14.8226 0.0132861 14.8282 0.0257907 14.8226 0.0390767C14.817 0.0523628 14.8113 0.0586151 14.8057 0.0586151Z" fill="#FEDA8D"/>
<path d="M14.7454 0C14.7454 0.0195384 14.7454 0.0390767 14.7454 0.0586151C14.7253 0.0586151 14.7052 0.0586151 14.6851 0.0586151C14.6851 0.0390767 14.6851 0.0195384 14.6851 0H14.7454Z" fill="#FED680"/>
<path d="M14.9281 0.0507998C14.9273 0.033606 14.9265 0.0164122 14.9265 0H14.9869C15.0086 0.01016 15.0159 0.0211014 15.0094 0.0328245C15.003 0.0445475 14.9957 0.0500182 14.9893 0.0500182C14.9692 0.0500182 14.9491 0.0500182 14.9289 0.0507998H14.9281Z" fill="#FFEBBE"/>
<path d="M14.384 29.9414C14.4057 29.9438 14.4274 29.9461 14.4492 29.9492C14.4459 29.9664 14.4443 29.9828 14.4435 30H14.3832C14.3606 29.9867 14.3534 29.9742 14.3606 29.9609C14.3679 29.9477 14.3751 29.9414 14.3832 29.9414H14.384Z" fill="#BDB7DF"/>
<path d="M14.9877 0.0500182C14.9869 0.033606 14.9861 0.0164122 14.9861 0H15.0464C15.0634 0.0109415 15.069 0.0226645 15.0642 0.0343875C15.0593 0.0461106 15.0537 0.0523628 15.0481 0.0523628C15.0279 0.0523628 15.0078 0.0507998 14.9877 0.0500182Z" fill="#FFF2D2"/>
<path d="M13.6611 30C13.6813 29.9805 13.7014 29.9609 13.7215 29.9414C13.7384 29.9547 13.744 29.9672 13.7384 29.9805C13.7328 29.9938 13.7271 30 13.7215 30H13.6611Z" fill="#9B92CD"/>
<path d="M13.7207 30C13.7207 29.9805 13.7207 29.9609 13.7207 29.9414C13.7408 29.9414 13.7609 29.9414 13.7811 29.9414C13.7811 29.9609 13.7811 29.9805 13.7811 30H13.7207Z" fill="#877CC4"/>
<path d="M15.048 0.0523628C15.0464 0.0351691 15.0464 0.0171938 15.0464 0H15.1068C15.1068 0.0211014 15.1051 0.0422029 15.1043 0.0640859C15.0858 0.0609597 15.0665 0.057052 15.048 0.0523628Z" fill="#FFFCF2"/>
<path d="M13.179 0.0586151C13.1589 0.0390767 13.1388 0.0195384 13.1187 0C13.1388 0 13.1589 0 13.179 0C13.1959 0.0132861 13.2016 0.0257907 13.1959 0.0390767C13.1903 0.0523628 13.1847 0.0586151 13.179 0.0586151Z" fill="#FFE5AD"/>
<path d="M13.179 0.0586151C13.179 0.0390767 13.179 0.0195384 13.179 0H13.2393C13.2393 0.0195384 13.2393 0.0390767 13.2393 0.0586151H13.2095H13.1798H13.179Z" fill="#FFE19F"/>
<path d="M14.2633 30C14.2633 29.9804 14.2633 29.9609 14.2633 29.9421C14.2834 29.9421 14.3027 29.9421 14.3228 29.9421C14.3397 29.9554 14.3454 29.9679 14.3397 29.9812C14.3341 29.9945 14.3285 30.0008 14.3228 30.0008H14.2625L14.2633 30Z" fill="#877CC4"/>
<path d="M14.3235 30C14.3235 29.9805 14.3235 29.9609 14.3235 29.9414C14.3436 29.9414 14.3637 29.9414 14.3839 29.9414C14.3839 29.9609 14.3839 29.9805 14.3839 30H14.3235Z" fill="#9D94CF"/>
<path d="M14.8057 0.0586151C14.8057 0.0390767 14.8057 0.0195384 14.8057 0H14.866C14.866 0.0195384 14.866 0.0390767 14.866 0.0586151C14.8459 0.0586151 14.8258 0.0586151 14.8057 0.0586151Z" fill="#FFDF9B"/>
<path d="M12.3331 18.1613C10.2356 16.574 7.9803 15.0836 7.42011 12.3068C5.66548 6.73761 8.3103 1.44583 15.1107 0.115662C15.9904 0.138326 16.8146 0.395451 17.6219 0.702594C18.661 1.09805 19.5882 1.6717 20.4333 2.3868C21.6664 3.43171 22.5316 4.71187 23.1031 6.18741C23.442 7.06038 23.6045 7.96696 23.673 8.90324C23.8114 10.7938 23.3405 12.5327 22.398 14.163C21.5746 15.5861 20.4205 16.7108 18.9902 17.5611C18.3745 17.9268 18.0976 18.4356 18.1153 19.1312C18.133 19.8236 18.1169 20.5161 18.1153 21.2093C18.0573 21.3312 17.9406 21.3257 17.8328 21.325C17.2251 21.3218 16.6182 21.3304 16.0105 21.3203C15.8705 21.3179 15.7304 21.3015 15.6274 21.1913C15.5397 21.0733 15.5405 20.935 15.5397 20.799C15.53 19.5915 15.5518 18.384 15.5276 17.1766C15.5236 16.9593 15.6331 16.7842 15.7377 16.6068C15.8785 16.3692 16.0588 16.159 16.2407 15.9527C16.6536 15.4845 16.813 14.9422 16.8058 14.3349C16.7961 13.5166 16.8025 12.6992 16.8041 11.8809C16.8041 11.7355 16.7953 11.5886 16.8388 11.4464C16.8782 11.3229 17.0005 11.2877 17.0947 11.2205C17.374 11.0204 17.3571 10.7391 17.0561 10.5859C16.9683 10.5413 16.8669 10.5155 16.8718 10.3905C16.8782 10.3655 16.8871 10.3413 16.9007 10.3186C16.8613 10.3389 16.8186 10.3374 16.776 10.3335C15.3779 10.7375 13.9388 10.5101 12.523 10.6179C12.0272 10.6554 11.7318 9.97863 11.1282 10.4343C10.6066 10.8282 10.5986 11.0415 11.108 11.3651C11.2698 12.3123 11.1805 13.2681 11.1652 14.2177C11.1531 14.9461 11.3551 15.5408 11.8614 16.0754C12.4256 16.6701 12.6446 17.368 12.3331 18.1644V18.1613Z" fill="#FFE181"/>
<path d="M9.92577 23.4374C9.18609 23.092 9.41468 22.4332 9.3857 21.858C9.50241 21.779 9.57163 21.8705 9.63441 21.9353C9.7817 22.0893 9.96119 22.1768 10.1721 22.2104C12.6768 22.2753 15.1816 22.219 17.6856 22.237C17.9399 22.2323 18.1693 22.1659 18.3617 21.9932C18.4253 21.9361 18.4977 21.8767 18.5991 21.9166C18.5814 22.4785 18.7714 23.11 18.0582 23.4374C17.9045 23.5922 17.7041 23.5515 17.5182 23.5523C15.1993 23.5554 12.8813 23.5554 10.5624 23.5523C10.3451 23.5523 10.1173 23.5859 9.92577 23.4374Z" fill="#E2DFE2"/>
<path d="M10.4053 25.6656C9.45235 25.6289 9.20686 25.1451 9.50547 24.3182C9.78396 24.2643 10.0093 24.48 10.2814 24.4628C12.8087 24.448 15.336 24.5003 17.8625 24.4347C18.1756 24.4534 18.2762 24.047 18.5981 24.0838C18.5394 24.6887 18.8758 25.464 17.8762 25.6617C15.4599 25.7531 13.0413 25.6242 10.6251 25.732C10.543 25.7367 10.4641 25.7297 10.4045 25.6656H10.4053Z" fill="#E2DFE2"/>
<path d="M18.5984 24.0838C18.3979 24.2197 18.1983 24.3565 17.9979 24.4925C17.8941 24.5464 17.7814 24.5199 17.6736 24.5199C15.2791 24.5214 12.8846 24.5206 10.4909 24.5222C10.383 24.5222 10.2703 24.4948 10.1665 24.5503C9.94595 24.473 9.72622 24.3956 9.50569 24.3174C9.38093 23.8024 9.43325 23.6938 9.92583 23.4366C12.6367 23.4366 15.3475 23.4366 18.0583 23.4366C18.3432 23.5687 18.5895 23.7328 18.5984 24.083V24.0838Z" fill="#EFECEF"/>
<path d="M10.0457 22.2659C9.82594 22.1299 9.60621 21.994 9.38647 21.858C9.54745 21.6407 9.70923 21.4234 9.8702 21.2054C10.6928 21.1898 11.5146 21.1741 12.3371 21.1585C12.639 21.0452 12.9569 21.1413 13.2628 21.0897C13.7521 21.1108 14.2415 21.1116 14.7308 21.0913C15.0383 21.1249 15.353 21.0655 15.6556 21.1593C15.712 21.1765 15.7683 21.2077 15.8247 21.2077C16.5877 21.2109 17.3515 21.2093 18.1145 21.2093C18.2763 21.4453 18.4373 21.6806 18.5991 21.9166C18.3383 22.0526 18.0783 22.1886 17.8175 22.3238C15.4955 22.2558 13.1734 22.3152 10.8513 22.2925C10.5833 22.2902 10.3121 22.33 10.0457 22.2659Z" fill="#EFECEF"/>
<path d="M13.7787 27.8992C13.2185 27.8961 12.6592 27.8937 12.099 27.8906C10.8804 27.9711 9.6948 28.0102 9.98697 26.2502C10.1206 26.1665 10.189 26.276 10.2542 26.3479C10.4329 26.5425 10.651 26.6542 10.9158 26.687C13.0053 26.6816 15.0939 26.7121 17.1818 26.6699C17.5053 26.662 17.6413 26.2502 17.9963 26.3096C18.2732 28.0751 17.0441 27.9383 15.8851 27.8906C15.7941 27.9828 15.6758 28.0008 15.5543 28.0024C15.0738 28.0086 14.5941 28.0071 14.1136 28.0032C13.9912 28.0024 13.8745 27.9813 13.7779 27.8984L13.7787 27.8992Z" fill="#E2DFE2"/>
<path d="M17.9971 26.3104C17.7766 26.4464 17.5568 26.5824 17.3363 26.7191C15.1478 26.8059 12.9578 26.6894 10.7693 26.777C10.4216 26.7238 10.2502 26.4237 9.98779 26.251C10.127 26.0556 10.2663 25.8602 10.4063 25.6656C10.4675 25.6656 10.5279 25.664 10.589 25.664C10.6623 25.6179 10.7452 25.6367 10.8233 25.6359C12.9972 25.6351 15.1704 25.6351 17.3444 25.6359C17.4224 25.6359 17.5053 25.6164 17.5786 25.6648C17.7178 25.8798 17.8579 26.0955 17.9971 26.3104Z" fill="#EFECEF"/>
<path d="M13.7786 27.8992C14.4812 27.8961 15.1831 27.8938 15.8857 27.8906C15.9083 28.7597 15.6394 29.467 14.75 29.8304C14.6615 29.753 14.5754 29.6741 14.4852 29.5998C13.9411 29.1536 13.7931 28.5534 13.7794 27.8992H13.7786Z" fill="#8479C2"/>
<path d="M27.2908 12.4452C27.261 12.8719 27.0703 13.1517 26.8127 13.0446C26.1399 12.7648 25.2247 12.8602 24.8842 12.0356C24.7917 11.8121 25.0734 11.5417 25.3197 11.6175C26.0191 11.8332 26.7821 11.9559 27.2908 12.4452Z" fill="#FEC458"/>
<path d="M27.3303 5.87087C27.2369 5.98263 27.1677 6.14597 27.0469 6.19677C26.5109 6.42264 25.9644 6.62349 25.4147 6.81653C25.2231 6.88374 24.9696 6.70868 24.8891 6.49376C24.8166 6.29994 24.8987 6.06626 25.1112 5.98107C25.6239 5.77553 26.139 5.57389 26.6654 5.40586C27.022 5.29176 27.2755 5.48948 27.3303 5.87165V5.87087Z" fill="#FEC458"/>
<path d="M26.7701 8.78917C27.0301 8.78917 27.2901 8.78604 27.5509 8.78995C27.8438 8.79464 27.9855 8.90953 27.9992 9.14008C28.0161 9.43159 27.8559 9.65433 27.5774 9.66214C27.0172 9.67778 26.457 9.67309 25.8969 9.66293C25.7085 9.6598 25.4783 9.37845 25.4807 9.19401C25.484 8.97518 25.6844 8.7923 25.9307 8.78917C26.2108 8.78604 26.4909 8.78917 26.7709 8.78917H26.7701Z" fill="#FEC458"/>
<path d="M17.5777 25.6648C15.2476 25.6648 12.9182 25.664 10.5881 25.6632C13.0181 25.6632 15.4472 25.6617 17.8771 25.6609C17.7773 25.6617 17.6775 25.6632 17.5777 25.664V25.6648Z" fill="#E7E4E7"/>
<path d="M3.14139 12.1177C2.69468 12.7687 1.86405 12.7937 1.1775 13.0477C0.925569 13.1407 0.62857 12.8578 0.726765 12.6171C1.06401 11.7902 1.98961 11.916 2.65283 11.6206C2.88464 11.5175 3.07298 11.7707 3.14059 12.1177H3.14139Z" fill="#FEC458"/>
<path d="M1.2726 5.38477C1.77967 5.76068 2.73747 5.54342 3.09886 6.36247C3.20188 6.59615 2.84452 6.90641 2.66181 6.82201C1.9994 6.51565 1.07057 6.63757 0.724475 5.81383C0.619842 5.5653 0.85889 5.39571 1.2726 5.38555V5.38477Z" fill="#FEC458"/>
<path d="M2.61336 9.14474C2.43467 9.37529 2.31877 9.52535 2.16102 9.72855C1.47365 9.38389 0.566558 10.1553 0.00555972 9.25806C-0.0395133 9.18538 0.201949 8.80868 0.280022 8.81806C1.03017 8.90637 1.88092 8.48122 2.61336 9.14474Z" fill="#FEC458"/>
<path d="M13.2449 21.1593C12.9423 21.1593 12.6397 21.1585 12.3362 21.1577C12.3346 20.1589 12.3338 19.1601 12.3322 18.1613C12.3451 17.8416 12.4006 17.5173 12.358 17.2047C12.3258 16.9679 12.1906 16.7342 12.0602 16.5232C11.9129 16.284 11.7342 16.059 11.5434 15.8503C11.2078 15.4845 11.0597 15.0687 11.0653 14.5787C11.0774 13.5088 11.0686 12.4381 11.0678 11.3674C11.3599 11.1853 11.6626 11.2267 11.9668 11.3307C12.1052 11.4627 12.0835 11.6355 12.0843 11.7988C12.0883 12.6186 12.1012 13.4385 12.0803 14.2575C12.0698 14.6756 12.1889 15.0453 12.4666 15.3345C13.1878 16.0847 13.4285 16.9554 13.3641 17.9675C13.3053 18.8811 13.3536 19.8009 13.3496 20.7185C13.3496 20.8709 13.3761 21.035 13.2433 21.1593H13.2449Z" fill="#FFB640"/>
<path d="M15.6556 21.1585C15.3522 21.1569 15.0495 21.1553 14.7461 21.1538C14.6238 21.0514 14.6342 20.9084 14.6342 20.774C14.6302 19.5735 14.6165 18.3739 14.6407 17.1742C14.6495 16.71 14.8201 16.2739 15.1163 15.9019C16.0645 14.7139 15.8769 14.95 15.8955 13.6104C15.9035 13.025 15.8955 12.4397 15.8979 11.8543C15.8979 11.6988 15.8874 11.5401 15.9792 11.3994C16.2842 11.1923 16.5965 11.1923 16.9152 11.3666C16.9152 12.4381 16.9201 13.5096 16.9112 14.5811C16.9072 15.0273 16.7776 15.4353 16.4919 15.8026C16.2053 16.1715 15.9542 16.5662 15.6894 16.9515C15.658 16.9968 15.6194 17.0507 15.6202 17.1007C15.629 18.4536 15.6427 19.8056 15.6556 21.1585Z" fill="#FFB640"/>
<path d="M16.9152 11.3674C16.6158 11.3877 16.3156 11.4073 16.0162 11.4276C15.8938 11.4792 15.765 11.4839 15.6338 11.4839C14.5738 11.4823 13.5146 11.4839 12.4546 11.4823C12.2856 11.4823 12.1109 11.4972 11.9741 11.3674C11.6722 11.3674 11.3704 11.3674 11.0686 11.3674C10.7491 11.3104 10.6171 11.19 10.5889 10.9384C10.5599 10.6828 10.6831 10.5437 10.9261 10.4616C11.03 10.4265 11.1185 10.3366 11.2022 10.2592C11.3913 10.0818 11.7568 10.0935 11.9057 10.3077C12.0031 10.4476 12.1173 10.4921 12.2815 10.4913C13.4229 10.4874 14.5634 10.4898 15.7047 10.489C15.8866 10.489 16.0435 10.464 16.1699 10.2944C16.2922 10.1303 16.6576 10.1592 16.9152 10.3139L16.9136 10.3124C17.2838 10.6633 17.8827 11.0142 16.916 11.3682L16.9152 11.3674Z" fill="#FEC458"/>
<path d="M17.1317 2.38837C19.2412 3.3309 20.5113 4.60949 21.3082 6.34684C21.3363 6.40858 21.3774 6.47111 21.3838 6.53675C21.4313 6.99786 22.1187 7.61215 21.3154 7.87396C20.6144 8.10217 20.7182 7.27843 20.55 6.90486C19.8787 5.41525 18.8791 4.23904 17.3683 3.5044C17.1027 3.37545 16.9232 3.191 16.9852 2.8823C17.0238 2.68848 17.0979 2.50091 17.1317 2.38837Z" fill="#FFEAC8"/>
<path d="M16.9152 10.3131C16.9192 10.3061 16.9232 10.2983 16.9265 10.2913C16.9224 10.2983 16.9176 10.3045 16.9136 10.3116L16.9152 10.3131Z" fill="#FFC454"/>
<path d="M10.0457 22.266C12.5215 22.266 14.9972 22.2652 17.473 22.2683C17.5881 22.2683 17.7024 22.3043 17.8175 22.3238C15.3417 22.3238 12.8659 22.3246 10.3901 22.3214C10.275 22.3214 10.1608 22.2847 10.0457 22.266Z" fill="#EDEBED"/>
<path d="M10.1663 24.5504C10.2814 24.5308 10.3956 24.4949 10.5107 24.4949C13.0067 24.4917 15.5026 24.4925 17.9985 24.4925C16.1199 24.5121 14.2405 24.5332 12.362 24.5496C11.6303 24.5558 10.8987 24.5504 10.1671 24.5496L10.1663 24.5504Z" fill="#E9E7E9"/>
<path d="M11.975 11.3674C13.3224 11.3878 14.6697 11.4081 16.0163 11.4276C16.0147 12.3928 16.0002 13.358 16.0163 14.3232C16.0227 14.7116 15.9447 15.0524 15.6863 15.3525C15.5583 15.501 15.4497 15.6643 15.3233 15.8136C14.9522 16.2528 14.7438 16.7483 14.7454 17.3219C14.747 18.599 14.7462 19.8768 14.747 21.1538C14.2464 21.1554 13.7465 21.1577 13.2459 21.1593C13.2435 19.8432 13.2379 18.5279 13.2419 17.2118C13.2435 16.7358 13.0954 16.3192 12.7968 15.9425C12.5787 15.6674 12.3823 15.3751 12.1714 15.0938C12.0032 14.8695 11.9694 14.6202 11.9718 14.3498C11.9798 13.3557 11.975 12.3615 11.9758 11.3674H11.975Z" fill="#FFE181"/>
<path d="M10.7683 26.7769C12.9576 26.7574 15.146 26.7379 17.3353 26.7191C17.2202 26.7387 17.1059 26.7746 16.9908 26.7746C14.9166 26.7777 12.8425 26.7769 10.7683 26.7769Z" fill="#E6E3E6"/>
</g>
<defs>
<clipPath id="clip0_2812_9290">
<rect width="28" height="30" fill="white"/>
</clipPath>
</defs>
</svg>
