<svg width="24" height="24" viewBox="0 0 24 24" fill="none" xmlns="http://www.w3.org/2000/svg">
<path fill-rule="evenodd" clip-rule="evenodd" d="M13.8 0C11.4912 0 9.6 1.8864 9.6 4.18824C9.6 4.52424 9.6408 4.85064 9.71664 5.16432L8.19984 5.86872L0.85272 2.45592C0.775242 2.41989 0.690962 2.40083 0.60552 2.4C0.526264 2.39927 0.447648 2.41425 0.374214 2.44408C0.300781 2.4739 0.233984 2.51798 0.177683 2.57377C0.121382 2.62956 0.0766919 2.69595 0.0461945 2.76911C0.0156971 2.84227 -3.35381e-06 2.92074 5.37368e-10 3L5.37369e-10 19.8696C1.91882e-05 19.984 0.0327178 20.0959 0.0942445 20.1923C0.155771 20.2887 0.243563 20.3655 0.34728 20.4137L7.94712 23.9441C8.02798 23.9817 8.11619 24.0008 8.20536 24C8.29095 23.9993 8.3754 23.9803 8.45304 23.9443L15.8002 20.5313L23.1473 23.9441C23.2387 23.9865 23.3393 24.0053 23.4399 23.9986C23.5405 23.9919 23.6378 23.9599 23.7227 23.9057C23.8077 23.8515 23.8777 23.7767 23.9261 23.6884C23.9746 23.6 24 23.5008 24 23.4V6.5304C24 6.41604 23.9673 6.30408 23.9058 6.20768C23.8442 6.11129 23.7564 6.03449 23.6527 5.98632L17.9062 3.3168C17.5008 1.42896 15.809 0 13.8 0ZM13.8 1.96272C15.0432 1.96272 16.0318 2.94864 16.0318 4.18824C16.0318 5.42784 15.043 6.41352 13.8 6.41352C12.5568 6.41352 11.5682 5.42784 11.5682 4.18824C11.5682 2.94864 12.557 1.96272 13.8 1.96272ZM1.5 4.18824L7 7V22L1.5 19V4.18824ZM17.9062 5.16432L22.5 7.06368V21.5637L16.5 19V8.5L17.5298 6.12888C17.5949 6.01128 17.646 5.88624 17.6906 5.75808C17.8326 5.40946 17.8631 5.53826 17.9062 5.16432ZM10.1681 6.27792C10.2305 6.38496 10.2955 6.48984 10.3668 6.59064L13.2876 11.639C13.6966 12.1735 13.9685 12.072 14.3086 11.611L15.3826 9.78336L15.3487 18.807L8.91144 22V7.06368L10.1681 6.27792Z" fill="#01875F"/>
</svg>
