<svg width="27" height="24" viewBox="0 0 27 24" fill="none" xmlns="http://www.w3.org/2000/svg">
<path d="M13.5 0C10.238 0 7.59375 2.64422 7.59375 5.90625C7.59375 8.54344 11.4539 13.35 12.9328 15.0947C13.2323 15.4481 13.7681 15.4481 14.0672 15.0947C15.5461 13.35 19.4062 8.54344 19.4062 5.90625C19.4062 2.64422 16.762 0 13.5 0ZM13.5 7.875C12.4125 7.875 11.5312 6.99375 11.5312 5.90625C11.5312 4.81875 12.4125 3.9375 13.5 3.9375C14.5875 3.9375 15.4688 4.81875 15.4688 5.90625C15.4688 6.99375 14.5875 7.875 13.5 7.875ZM0.943125 10.1227C0.664771 10.234 0.426155 10.4262 0.258051 10.6744C0.0899478 10.9226 6.6666e-05 11.2155 0 11.5153L0 23.2491C0 23.7797 0.535781 24.1425 1.02844 23.9456L7.5 21V10.0744C7.08563 9.32531 6.74672 8.59594 6.50391 7.89844L0.943125 10.1227ZM13.5 16.8595C12.8405 16.8595 12.2166 16.5698 11.7886 16.0645C10.867 14.977 9.88688 13.7386 9 12.4683V20.9995L18 23.9995V12.4688C17.1131 13.7386 16.1334 14.9775 15.2114 16.065C14.7834 16.5698 14.1595 16.8595 13.5 16.8595ZM25.9716 7.55438L19.5 10.5V24L26.0569 21.3773C26.3353 21.2661 26.5739 21.0739 26.742 20.8257C26.9101 20.5774 27 20.2845 27 19.9847V8.25094C27 7.72031 26.4642 7.3575 25.9716 7.55438Z" fill="#01875F"/>
</svg>
