<svg width="36" height="31" viewBox="0 0 36 31" fill="none" xmlns="http://www.w3.org/2000/svg">
<g clip-path="url(#clip0_2257_9127)">
<path d="M7.30485 14.6048C7.29922 14.887 7.29454 15.1691 7.28891 15.4512C7.15292 15.5961 6.97379 15.5895 6.79935 15.5895C4.72297 15.5923 2.64659 15.5923 0.570208 15.5895C0.395769 15.5895 0.216642 15.5961 0.0806544 15.4503C0.0543948 15.0015 0.0271974 14.5528 0 14.104C0 14.0803 0 14.0566 0 14.033C0.349815 12.7984 0.628354 11.5373 1.06257 10.334C2.6147 6.04132 7.52618 2.43413 11.9706 2.27792C13.3099 2.23058 14.651 2.22963 15.9921 2.20691C16.1037 2.31105 16.1337 2.44833 16.1346 2.5913C16.1365 4.17619 16.1543 5.76202 16.1262 7.34691C16.1262 7.38194 16.1159 7.41602 16.1093 7.45011C16.0521 7.68585 15.8767 7.76443 15.662 7.76443C15.0449 7.76443 14.4259 7.81177 13.8097 7.73224C13.5171 7.69437 13.2245 7.76538 12.9525 7.82787C11.9359 8.05888 10.9399 8.39309 10.0865 9.0047C9.54442 9.39287 9.0286 9.82555 8.59438 10.368C8.11139 10.9711 7.8216 11.6452 7.54588 12.3439C7.44928 12.5882 7.3705 12.8344 7.40801 13.0985C7.47929 13.6088 7.27109 14.0993 7.30485 14.6058V14.6048Z" fill="#5CCAE8"/>
<path d="M32.9071 25.7341C34.5717 26.0077 35.4805 27.105 36.0001 28.6265V28.6975C35.971 28.725 35.9644 28.7609 35.9644 28.7988C35.9644 28.8234 35.9644 28.849 35.9644 28.8736C35.9644 28.8992 35.9644 28.9238 35.9644 28.9494C35.9644 28.9872 35.9691 29.0241 36.0001 29.0516V29.7598C35.9813 29.7778 35.9701 29.8005 35.9663 29.827C35.9654 29.8526 35.9644 29.8791 35.9644 29.9046C35.9644 29.9311 35.9569 29.9548 35.941 29.9766C35.2695 31.4801 33.9274 30.8552 32.8292 30.9508C32.2103 31.0048 31.5791 30.9224 30.9535 30.9006C30.4743 30.8438 30.2699 30.4878 30.117 30.094C29.8919 29.5136 30.0007 28.9247 30.1498 28.3548C30.3974 27.4071 30.931 26.6563 31.7592 26.1223C32.1146 25.8932 32.5001 25.789 32.908 25.7341H32.9071Z" fill="#50758D"/>
<path d="M32.9069 6.46552C34.5651 6.74671 35.4851 7.8317 35.9999 9.35789V9.4289C35.9812 9.44689 35.9699 9.46866 35.9662 9.49423C35.9653 9.51979 35.9643 9.54535 35.9643 9.56997C35.9643 9.59553 35.9643 9.62109 35.9662 9.64571C35.9699 9.67127 35.9812 9.69305 35.9999 9.71104V10.4902C35.9812 10.5082 35.9699 10.5309 35.9662 10.5574C35.9653 10.583 35.9643 10.6095 35.9643 10.6351C35.9643 10.6616 35.9568 10.6853 35.9409 10.707C35.2731 12.2209 33.9264 11.579 32.8291 11.6803C32.2101 11.7371 31.578 11.6519 30.9525 11.6311C30.4723 11.5752 30.2688 11.2183 30.1159 10.8244C29.8899 10.2441 29.9996 9.65518 30.1488 9.08522C30.3963 8.13751 30.93 7.38672 31.7581 6.8518C32.1135 6.62268 32.499 6.51854 32.9069 6.46362V6.46552Z" fill="#50758D"/>
<path d="M0.0805664 15.4503C2.48332 15.4503 4.88607 15.4503 7.28882 15.4503C7.43981 19.066 9.93541 21.4708 13.5386 21.4708C14.3564 21.4708 15.1733 21.4726 15.9911 21.4736C16.1027 21.5777 16.1336 21.715 16.1336 21.8599C16.1374 23.4381 16.1496 25.0154 16.127 26.5937C16.127 26.641 16.1149 26.6874 16.1045 26.7319C16.0455 26.9497 15.8813 27.0302 15.6806 27.0321C13.6024 27.05 11.5204 27.1532 9.49087 26.5123C7.51953 25.8903 5.75076 24.9293 4.21364 23.5271C2.35577 21.8315 1.06249 19.7808 0.334722 17.3646C0.229683 17.0153 0.142464 16.6612 0.132148 16.2929C0.115267 16.0117 0.0974476 15.7296 0.0805664 15.4484V15.4503Z" fill="#F16470"/>
<path d="M0.133094 16.2948C1.02404 19.8262 2.88378 22.6789 5.91208 24.7172C8.98914 26.7878 12.4141 27.1798 15.9882 26.8579C16.0276 26.8834 16.0576 26.9175 16.0773 26.9601C16.1392 27.5433 16.2405 28.1284 16.0117 28.7012C12.0137 29.0534 8.2473 28.4797 5.04082 25.8089C2.21698 23.4571 0.51292 20.4587 0.0768234 16.7634C0.0590045 16.612 0.112461 16.451 0.132156 16.2948H0.133094Z" fill="#F04A57"/>
<path d="M16.0117 26.9252C16.0042 26.9024 15.9967 26.8797 15.9883 26.857C15.9892 25.0629 15.9902 23.2687 15.9911 21.4746C17.2309 21.4737 18.4707 21.4727 19.7106 21.4708C20.1823 21.4708 20.4205 21.7028 20.4205 22.1809C20.4205 23.7629 20.4205 25.345 20.4205 26.927C20.2827 27.0653 20.1054 27.0653 19.9291 27.0653C18.7859 27.0672 17.6426 27.0681 16.5003 27.0653C16.3259 27.0653 16.1458 27.0728 16.0117 26.9252Z" fill="#F4F4F4"/>
<path d="M15.9894 7.59115C15.9904 5.79607 15.9913 4.001 15.9922 2.20593C17.3052 2.2599 18.6229 2.26842 19.9274 2.39907C20.2941 2.436 20.4395 2.90086 20.431 3.34868C20.4038 4.78493 20.4207 6.22117 20.4207 7.65837C20.2829 7.79565 20.1056 7.79565 19.9312 7.79659C18.7804 7.79943 17.6297 7.79943 16.479 7.79659C16.328 7.79659 16.1751 7.79659 16.0401 7.71233C15.9979 7.68298 15.981 7.64227 15.9894 7.59115Z" fill="#F4F4F4"/>
<path d="M15.9892 7.59119C15.9967 7.61296 16.0042 7.63474 16.0117 7.65651C16.2349 7.97747 16.1205 8.34292 16.1327 8.68849C16.142 8.93938 16.2039 9.21111 16.0108 9.4336C14.513 9.65514 12.9759 9.27833 11.4932 9.7536C9.11761 10.5148 7.84402 12.2341 7.30476 14.6048C7.12376 13.0938 7.40793 11.7181 8.37109 10.4987C10.0461 8.3789 12.2369 7.50976 14.8778 7.65178C15.2464 7.67166 15.6178 7.61296 15.9882 7.59119H15.9892Z" fill="#37BCEC"/>
<path d="M31.9943 0.0179997C33.387 -0.121175 34.3098 0.557657 34.5809 1.86514C34.7562 2.71061 34.4824 3.60246 33.6196 4.11656C33.3795 4.24721 33.1328 4.24058 32.8759 4.16768C31.2206 3.6943 30.5613 1.73354 31.5901 0.343688C31.6989 0.196939 31.8386 0.0994217 31.9943 0.0170529V0.0179997Z" fill="#FDC683"/>
<path d="M32.0629 19.2876C33.4678 19.1446 34.3466 19.8907 34.597 21.166C34.7574 21.983 34.4638 22.8787 33.6179 23.3861C33.4003 23.5111 33.1743 23.4997 32.9389 23.4439C31.2208 23.0368 30.5155 20.8942 31.6484 19.5318C31.7619 19.3955 31.9035 19.333 32.0629 19.2885V19.2876Z" fill="#FDC683"/>
<path d="M16.0107 9.43358C16.0107 8.8409 16.0107 8.24917 16.0107 7.65649C17.4803 7.65649 18.9499 7.65839 20.4195 7.65839C20.7384 9.4705 19.6767 9.64092 18.3037 9.50837C17.5441 9.43547 16.775 9.45535 16.0098 9.43263L16.0107 9.43358Z" fill="#E6E6E6"/>
<path d="M16.0117 26.9252C17.4813 26.9252 18.9509 26.9261 20.4205 26.9271C20.7263 28.7212 19.6899 28.9191 18.3066 28.778C17.547 28.7004 16.777 28.7231 16.0117 28.7004C16.0117 28.1086 16.0117 27.5169 16.0117 26.9252Z" fill="#E6E6E6"/>
<path d="M32.907 25.734C30.9319 26.4176 29.9585 27.7734 30.1817 29.9112C30.2314 30.3846 30.5812 30.661 30.9526 30.9005C30.1704 31.0208 29.2841 31.177 28.894 30.3031C28.3773 29.1452 28.7168 28.012 29.4764 27.0406C30.3505 25.9224 31.5481 25.5939 32.907 25.734Z" fill="#2B5980"/>
<path d="M32.9072 6.46548C30.9321 7.14905 29.9586 8.50482 30.1818 10.6436C30.2315 11.1169 30.5804 11.3934 30.9527 11.632C30.1696 11.7532 29.2815 11.9094 28.8923 11.0317C28.3774 9.871 28.7178 8.73678 29.4831 7.76539C30.3581 6.65578 31.551 6.32157 32.9072 6.46454V6.46548Z" fill="#2B5980"/>
<path d="M32.0628 19.2876C31.261 19.9844 31.0049 20.8602 31.3566 21.8552C31.7261 22.9005 32.512 23.4051 33.6178 23.3862C32.8272 24.0214 31.9662 24.0195 31.1587 23.5102C30.1899 22.8995 29.7951 21.9641 30.1543 20.8365C30.4422 19.9295 31.0546 19.3359 32.0638 19.2885L32.0628 19.2876Z" fill="#FAAB5E"/>
<path d="M31.9944 0.0179443C31.2488 0.82743 30.9487 1.75716 31.4307 2.79197C31.8518 3.69519 32.5983 4.16573 33.6196 4.11745C32.8422 4.73285 32.0178 4.74042 31.1888 4.26041C30.3062 3.74915 29.9095 2.92263 30.0577 1.93799C30.219 0.863407 30.8774 0.174161 31.9934 0.0179443H31.9944Z" fill="#FAAB5E"/>
<path d="M24.4928 28.2014C25.0996 28.2014 25.7054 28.209 26.3122 28.1985C26.6658 28.1929 26.9303 28.2658 26.95 28.6937C26.9687 29.1245 26.7324 29.3252 26.3479 29.329C25.0883 29.3432 23.8288 29.3441 22.5702 29.329C22.2148 29.3242 21.9794 29.0885 21.9766 28.7306C21.9738 28.3699 22.2148 28.2004 22.5702 28.2014C23.2117 28.2033 23.8532 28.2014 24.4947 28.2014H24.4928Z" fill="#F9D10F"/>
<path d="M24.1862 10.1436C23.5166 9.76206 22.1933 10.6435 22.2017 9.4572C22.2092 8.40723 23.4837 9.1637 24.1524 8.93269C24.1627 8.9289 24.1768 8.9289 24.1871 8.93269C24.8567 9.1779 26.1472 8.37599 26.1519 9.47897C26.1575 10.6549 24.8323 9.74218 24.1871 10.1436H24.1862Z" fill="#F9D10F"/>
<path d="M27.0971 25.6507C26.7004 25.6507 26.3028 25.6715 25.9079 25.6441C25.5703 25.6214 25.3959 25.3989 25.4062 25.0552C25.4156 24.7248 25.6078 24.5856 25.9239 24.5866C26.5888 24.5894 27.2537 24.5818 27.9187 24.5894C28.2835 24.5941 28.759 24.472 28.7637 25.0713C28.7684 25.6592 28.3304 25.664 27.9018 25.6517C27.6336 25.6431 27.3653 25.6498 27.0971 25.6498V25.6507Z" fill="#F9D10F"/>
<path d="M23.625 22.0009C23.2282 22.0009 22.8306 22.0218 22.4358 21.9943C22.0981 21.9716 21.9237 21.7491 21.934 21.4054C21.9434 21.075 22.1357 20.9358 22.4517 20.9368C23.1166 20.9396 23.7816 20.932 24.4465 20.9396C24.8113 20.9443 25.2868 20.8222 25.2915 21.4215C25.2962 22.0095 24.8582 22.0142 24.4296 22.0019C24.1614 21.9934 23.8932 22 23.625 22V22.0009Z" fill="#F9D10F"/>
<path d="M23.6523 2.86959C23.2556 2.86959 22.8579 2.89042 22.4631 2.86296C22.1255 2.84024 21.9511 2.61775 21.9614 2.27408C21.9707 1.94365 22.163 1.80448 22.4791 1.80543C23.144 1.80827 23.8089 1.80069 24.4738 1.80827C24.8387 1.813 25.3142 1.69087 25.3188 2.29017C25.3235 2.87811 24.8856 2.88285 24.457 2.87054C24.1887 2.86202 23.9205 2.86865 23.6523 2.86865V2.86959Z" fill="#F9D10F"/>
<path d="M27.4657 5.28671C27.8699 5.52625 28.8293 4.93262 28.7149 5.80933C28.5667 6.94829 27.4788 6.18046 26.8355 6.37076C26.4153 6.49574 26.0871 6.15963 26.1386 5.81312C26.2634 4.97901 26.9874 5.45429 27.4657 5.28577V5.28671Z" fill="#F9D10F"/>
<path d="M23.6907 5.29248C24.0818 5.4913 24.9531 4.97437 24.8659 5.79995C24.7468 6.91713 23.7264 6.20232 23.1271 6.3718C22.7173 6.48825 22.3684 6.18812 22.4125 5.82646C22.5119 4.99804 23.2274 5.44396 23.6917 5.29248H23.6907Z" fill="#F9D10F"/>
<path d="M23.2943 24.5961C23.7079 24.5715 24.2143 24.5062 24.1908 25.0951C24.1636 25.7682 23.5897 25.6319 23.1386 25.6565C22.6987 25.6811 22.3911 25.4681 22.4089 25.0686C22.4324 24.5204 22.9022 24.5601 23.2952 24.5952L23.2943 24.5961Z" fill="#F9D10F"/>
</g>
<defs>
<clipPath id="clip0_2257_9127">
<rect width="36" height="31" fill="white"/>
</clipPath>
</defs>
</svg>
