<svg width="32" height="32" viewBox="0 0 32 32" fill="none" xmlns="http://www.w3.org/2000/svg">
<g clip-path="url(#clip0_2257_9175)">
<path d="M31.9999 11.3653V11.4279C31.984 11.443 31.974 11.4622 31.9698 11.4839C31.969 11.5056 31.9682 11.5273 31.9682 11.549C31.9682 11.5707 31.9682 11.5924 31.9682 11.6141C31.9682 11.6358 31.9682 11.6575 31.9682 11.6792C31.9682 11.7009 31.9682 11.7226 31.9682 11.7443C31.9682 11.766 31.9682 11.7877 31.9698 11.8094C31.974 11.8311 31.984 11.8495 31.9999 11.8654V12.6768C31.9715 12.7026 31.969 12.7369 31.969 12.7719C31.969 12.7953 31.969 12.8178 31.969 12.8412C31.969 12.8637 31.969 12.8871 31.969 12.9097C31.969 12.9322 31.969 12.9556 31.969 12.9781C31.969 13.0007 31.969 13.0232 31.969 13.0457C31.969 13.0683 31.969 13.0908 31.969 13.1133C31.969 13.1359 31.969 13.1584 31.9707 13.181C31.974 13.2035 31.9848 13.2227 32.0007 13.2386V13.3638C31.8923 13.4898 31.9481 13.6443 31.9323 13.7845C31.6804 16.0284 30.0939 17.9241 27.9277 18.5644C27.5298 18.6821 27.127 18.7806 26.7149 18.8298C26.5748 18.8465 26.4221 18.8849 26.3104 18.7464C26.2002 18.566 26.2244 18.364 26.2236 18.1687C26.2219 15.7779 26.2228 13.388 26.2219 10.9972C26.2219 10.7476 26.2203 10.4997 26.1669 10.2534C26.066 9.78596 25.7682 9.57142 25.261 9.61316C24.9107 9.64238 24.6021 9.99382 24.6013 10.3878C24.5937 12.9547 24.5996 15.5225 24.5971 18.0894C24.5971 18.2964 24.6179 18.5059 24.5579 18.7088C24.4962 18.8732 24.3585 18.8707 24.2217 18.8532C23.5428 18.7647 22.8855 18.612 22.2599 18.3089C21.8303 18.1011 21.3957 17.9124 21.0279 17.6027C20.9019 17.4967 20.761 17.4024 20.7201 17.2254C20.7301 17.0902 20.8185 16.9975 20.9045 16.909C21.8862 15.8981 22.2849 14.6401 22.4467 13.277C22.6861 11.2635 22.1473 9.4028 21.3607 7.58885C21.1956 7.20736 21.0296 6.82671 20.8119 6.47026C20.7468 6.36424 20.6943 6.24988 20.6909 6.12049C20.7093 5.91347 20.8361 5.7557 20.9387 5.58958C21.6635 4.4159 22.4976 3.33654 23.6112 2.50177C23.7696 2.38324 23.9415 2.28807 24.1024 2.17454C25.1751 1.5685 26.1744 1.79138 27.1295 2.45419C27.9853 3.04688 28.6609 3.81904 29.2581 4.66215C30.4592 6.3584 31.3417 8.20407 31.8222 10.2359C31.8872 10.5105 31.9198 10.7868 31.9356 11.0673C31.9415 11.1708 31.9265 11.2769 31.9982 11.3653H31.9999Z" fill="#00A66C"/>
<path d="M31.9998 31.4098C31.461 32.2079 30.6369 31.965 29.897 31.9658C25.2927 31.9733 20.6892 31.9641 16.0849 31.9608C15.9648 31.8506 15.964 31.702 15.9631 31.5568C15.9598 29.9582 15.9606 28.3596 15.9631 26.7602C15.9631 26.6358 15.9681 26.5106 16.0282 26.3962C16.1141 26.2627 16.2492 26.2535 16.3835 26.271C16.5987 26.3002 16.8131 26.2844 17.0283 26.2819C17.8874 26.2894 18.7457 26.3011 19.6032 26.3595C20.6659 26.4313 21.7294 26.5039 22.787 26.6341C23.3309 26.7009 23.8789 26.7376 24.4186 26.8387C25.0717 26.9605 25.734 27.0181 26.3887 27.1358C27.9302 27.3821 29.4575 27.6976 30.9722 28.0724C31.0923 28.1025 31.2124 28.1325 31.33 28.1726C31.6904 28.2937 31.9264 28.5282 32.0007 28.9105V31.4082L31.9998 31.4098Z" fill="#60BD6A"/>
<path d="M8.12241 2.24219C8.90398 1.2388 9.81233 0.403193 11.0493 0H11.1119C11.1344 0.025043 11.1628 0.032556 11.1945 0.0317212C11.2153 0.0317212 11.2353 0.0317212 11.2562 0.0317212C11.277 0.0317212 11.2979 0.0317212 11.3187 0.0317212C11.3396 0.0317212 11.3613 0.0317212 11.3821 0.0317212C11.4147 0.0317212 11.4472 0.0317212 11.4797 0.0317212C11.5023 0.0317212 11.5239 0.0317212 11.5456 0.0317212C11.5681 0.0317212 11.5907 0.0317212 11.6132 0.0317212C11.6357 0.0317212 11.6582 0.0317212 11.6816 0.0317212C11.7049 0.0317212 11.7275 0.0317212 11.7508 0.0317212C11.7742 0.0317212 11.7975 0.0317212 11.8209 0.0317212C11.8442 0.0317212 11.8676 0.0317212 11.8918 0.0317212C11.9393 0.0317212 11.9877 0.0300517 12.0352 0.035895C12.0703 0.0475818 12.1053 0.0584338 12.1429 0.0617728C12.1812 0.0642771 12.2196 0.0667815 12.2571 0.0767987C12.2955 0.090155 12.3347 0.0985026 12.3722 0.112694C12.5174 0.167788 12.6567 0.235405 12.7818 0.328899C13.5083 0.797204 14.1381 1.37486 14.6869 2.04351C14.7386 2.10695 14.8095 2.15704 14.8145 2.24887C14.8028 2.35321 14.7278 2.41165 14.6502 2.46257C13.3615 3.31737 12.4732 4.52862 11.6741 5.82167C11.5957 5.94856 11.5473 6.11301 11.3638 6.14055C11.2328 6.09464 11.1845 5.97277 11.1227 5.86759C10.6139 5.00527 10.0267 4.20055 9.34439 3.47013C9.0341 3.13789 8.68044 2.84572 8.30675 2.5811C8.19665 2.50347 8.03316 2.43669 8.12325 2.24219H8.12241Z" fill="#00A66C"/>
<path d="M21.1207 0C22.3519 0.436584 23.2644 1.2989 24.1044 2.25805C22.643 3.2222 21.6371 4.59206 20.7454 6.06459C20.5402 6.07544 20.5043 5.89179 20.4293 5.76908C19.8762 4.86336 19.2448 4.02024 18.4949 3.26895C18.2155 2.9893 17.9052 2.74889 17.5866 2.5185C17.5032 2.45839 17.4048 2.41582 17.3655 2.3098C17.3514 2.19627 17.4056 2.10362 17.4748 2.02849C18.0787 1.37653 18.6726 0.714562 19.47 0.282152C19.7378 0.136902 20.0289 0.0851463 20.3125 0H20.375C20.3909 0.0166954 20.4101 0.0267126 20.4326 0.0300517C20.4551 0.0308864 20.4768 0.0317212 20.4993 0.0317212C20.521 0.0317212 20.5435 0.0317212 20.5652 0.0317212C20.5869 0.0317212 20.6086 0.0317212 20.6311 0.0317212C20.6528 0.0317212 20.6745 0.0317212 20.6962 0.0317212C20.7279 0.0317212 20.7604 0.0317212 20.7921 0.0317212C20.8129 0.0317212 20.8338 0.0317212 20.8547 0.0317212C20.8755 0.0317212 20.8955 0.0317212 20.9164 0.0317212C20.9364 0.0317212 20.9573 0.0317212 20.9773 0.0317212C21.009 0.032556 21.0373 0.025043 21.059 0H21.1216H21.1207Z" fill="#0C7669"/>
<path d="M11.4849 0.0626076H11.3607C11.3381 0.0484166 11.3298 0.0350603 11.3381 0.0208692C11.3448 0.00667814 11.3523 0 11.3598 0H11.4841C11.5066 0.0141911 11.515 0.0275473 11.5066 0.0417384C11.4991 0.0559295 11.4916 0.0626076 11.4841 0.0626076H11.4849Z" fill="#00A66C"/>
<path d="M20.8105 0.0617728C20.7688 0.0617728 20.7271 0.0617728 20.6845 0.0617728C20.662 0.0475818 20.6545 0.0342255 20.662 0.0200344C20.6703 0.00667814 20.6778 0 20.6854 0H20.8096C20.8322 0.0133563 20.8405 0.0275473 20.833 0.0409036C20.8255 0.0550947 20.818 0.0617728 20.8105 0.0617728Z" fill="#0C7669"/>
<path d="M31.9424 12.8036L31.9999 12.6768V12.802C31.9824 12.8337 31.9632 12.8329 31.9424 12.8045V12.8036Z" fill="#00A66C"/>
<path d="M11.2337 0.0584338C11.2129 0.0584338 11.1912 0.0567642 11.1703 0.0559295C11.157 0.0425732 11.1528 0.0300517 11.1578 0.0175301C11.1636 0.00584338 11.1687 0 11.1737 0H11.2362C11.2596 0.0133563 11.2671 0.0267126 11.2587 0.0392341C11.2504 0.0517556 11.2429 0.057599 11.2345 0.057599L11.2337 0.0584338Z" fill="#00A66C"/>
<path d="M11.2339 0.0584338C11.2347 0.0392341 11.2356 0.0191997 11.2356 0H11.2981C11.3156 0.0141911 11.3215 0.0275473 11.3156 0.0417384C11.3098 0.0559295 11.304 0.0626076 11.2981 0.0626076C11.2773 0.0609381 11.2556 0.0601033 11.2347 0.0584338H11.2339Z" fill="#00A66C"/>
<path d="M11.2979 0.0626076C11.2979 0.0417384 11.2979 0.0208692 11.2979 0H11.3604C11.3604 0.0208692 11.3604 0.0417384 11.3604 0.0626076C11.3396 0.0626076 11.3187 0.0626076 11.2979 0.0626076Z" fill="#00A66C"/>
<path d="M11.6109 0.0584338C11.5901 0.0601033 11.5684 0.0609381 11.5475 0.0626076C11.53 0.0484166 11.5242 0.0350603 11.53 0.0208692C11.535 0.00667814 11.5409 0 11.5467 0H11.6093C11.6318 0.0125215 11.6393 0.025043 11.6326 0.0383993C11.6259 0.0517556 11.6184 0.0584338 11.6109 0.0584338Z" fill="#00A66C"/>
<path d="M11.611 0.0584338C11.6102 0.0392341 11.6094 0.0191997 11.6094 0H11.6719C11.6936 0.010852 11.702 0.0233735 11.6953 0.035895C11.6886 0.0492513 11.6819 0.0559295 11.6753 0.0559295C11.6544 0.0567642 11.6327 0.057599 11.6119 0.0584338H11.611Z" fill="#00A66C"/>
<path d="M11.6742 0.0559295C11.6726 0.0375646 11.6717 0.0183649 11.6709 0H11.7335C11.7543 0.0100172 11.7627 0.021704 11.7568 0.0342255C11.751 0.0475818 11.7443 0.0534252 11.7376 0.0534252C11.7168 0.0534252 11.6951 0.0550947 11.6742 0.0559295Z" fill="#00A66C"/>
<path d="M11.7376 0.0534252C11.7351 0.035895 11.7334 0.0175301 11.7334 0H11.796C11.8126 0.010852 11.8185 0.0225387 11.8143 0.0350603C11.8093 0.0475818 11.8043 0.0542599 11.7993 0.0542599L11.7693 0.0584338L11.7392 0.0542599L11.7376 0.0534252Z" fill="#00A66C"/>
<path d="M11.7987 0.0534252C11.7962 0.035895 11.7954 0.0175301 11.7954 0H11.858C11.858 0.0175301 11.8596 0.0342255 11.8613 0.0517556C11.8405 0.0517556 11.8196 0.0534252 11.7987 0.0542599V0.0534252Z" fill="#00A66C"/>
<path d="M21.058 0C21.0379 0.0183649 21.0187 0.0375646 20.9987 0.0559295C20.9737 0.0450775 20.9654 0.032556 20.9729 0.0200344C20.9804 0.00667814 20.9879 0 20.9962 0C21.0171 0 21.0379 0 21.0588 0H21.058Z" fill="#0C7669"/>
<path d="M20.9965 0C20.9965 0.0183649 20.9981 0.0375646 20.9998 0.0559295C20.9781 0.057599 20.9564 0.0601033 20.9347 0.0617728C20.9122 0.0475818 20.9039 0.0342255 20.9114 0.0200344C20.9189 0.00667814 20.9264 0 20.9339 0H20.9965Z" fill="#0C7669"/>
<path d="M20.8105 0.0617728C20.8105 0.0409036 20.8105 0.0208692 20.8105 0H20.8731C20.8906 0.0141911 20.8965 0.0275473 20.8906 0.0417384C20.8848 0.0559295 20.8789 0.0626076 20.8731 0.0626076C20.8523 0.0626076 20.8322 0.0626076 20.8114 0.0626076L20.8105 0.0617728Z" fill="#0C7669"/>
<path d="M20.8721 0.0626076C20.8721 0.0417384 20.8721 0.0208692 20.8721 0H20.9346C20.9346 0.0208692 20.9346 0.0417384 20.9346 0.0626076C20.9138 0.0626076 20.8929 0.0626076 20.8721 0.0626076Z" fill="#0C7669"/>
<path d="M31.9473 11.4881C31.9648 11.468 31.9823 11.4472 31.999 11.4271V11.4897C31.9806 11.5223 31.9631 11.5206 31.9473 11.4881Z" fill="#00A66C"/>
<path d="M31.9476 11.4881C31.9651 11.4881 31.9826 11.4881 31.9993 11.4898V11.5524C31.981 11.5858 31.9635 11.5833 31.9468 11.5507C31.9468 11.5298 31.9468 11.509 31.9468 11.4881H31.9476Z" fill="#00A66C"/>
<path d="M31.9473 11.5507C31.9648 11.5507 31.9823 11.5507 31.9998 11.5523V11.6149C31.9806 11.6467 31.9631 11.6467 31.9473 11.6133C31.9473 11.5924 31.9473 11.5715 31.9473 11.5515V11.5507Z" fill="#00A66C"/>
<path d="M31.9476 11.6125C31.9651 11.6125 31.9826 11.6133 32.0002 11.6141V11.6767C31.981 11.7085 31.9635 11.7093 31.9468 11.6742C31.9468 11.6534 31.9468 11.6325 31.9476 11.6116V11.6125Z" fill="#00A66C"/>
<path d="M31.9465 11.675C31.964 11.675 31.9824 11.6767 31.9999 11.6776V11.7402C31.9799 11.7727 31.9615 11.7719 31.9448 11.7377C31.9448 11.7168 31.9457 11.6959 31.9465 11.675Z" fill="#00A66C"/>
<path d="M31.9449 11.7377C31.9632 11.7385 31.9816 11.7393 31.9999 11.7402V11.8028C31.9799 11.8245 31.9607 11.8237 31.9424 11.8011C31.9432 11.7802 31.9441 11.7594 31.9449 11.7385V11.7377Z" fill="#00A66C"/>
<path d="M20.6853 0C20.6853 0.0208692 20.6853 0.0409036 20.6853 0.0617728C20.6645 0.0617728 20.6436 0.0609381 20.6228 0.0601033C20.6003 0.0459122 20.5936 0.032556 20.6011 0.0191997C20.6078 0.00667814 20.6153 0 20.6236 0H20.6862H20.6853Z" fill="#0C7669"/>
<path d="M11.1739 0C11.1739 0.0183649 11.1722 0.0375646 11.1705 0.0559295C11.1505 0.0375646 11.1313 0.0183649 11.1113 0C11.1322 0 11.153 0 11.1739 0Z" fill="#7CBE99"/>
<path d="M31.9425 12.8037C31.9617 12.8028 31.9809 12.802 32.0001 12.8011V12.8638C31.9826 12.8946 31.9651 12.8955 31.9459 12.8654C31.9425 12.8446 31.9409 12.8245 31.9425 12.8037Z" fill="#00A66C"/>
<path d="M31.9458 12.8654C31.9642 12.8654 31.9817 12.8646 32 12.8638V12.9264C31.9833 12.9581 31.965 12.9573 31.9466 12.928C31.9466 12.9072 31.9466 12.8863 31.9458 12.8654Z" fill="#00A66C"/>
<path d="M31.9468 12.9272C31.9643 12.9272 31.9826 12.9272 32.0002 12.9255V12.9881C31.9835 13.0182 31.966 13.0199 31.9476 12.9898C31.9476 12.9689 31.9476 12.9481 31.9476 12.9272H31.9468Z" fill="#00A66C"/>
<path d="M31.9473 12.9907C31.9648 12.9907 31.9823 12.9898 31.9998 12.989V13.0516C31.984 13.0817 31.9665 13.0833 31.9473 13.0541C31.9473 13.0333 31.9473 13.0124 31.9473 12.9915V12.9907Z" fill="#00A66C"/>
<path d="M31.9476 13.0533C31.9651 13.0533 31.9826 13.0533 32.0002 13.0508V13.1134C31.9835 13.1451 31.966 13.1443 31.9468 13.1151C31.9468 13.0942 31.9468 13.0742 31.9468 13.0533H31.9476Z" fill="#00A66C"/>
<path d="M31.9414 11.8003C31.9606 11.8011 31.9798 11.802 31.999 11.802V11.8646C31.9798 11.8429 31.9606 11.822 31.9414 11.8003Z" fill="#00A66C"/>
<path d="M31.9998 13.2386C31.9823 13.2185 31.9648 13.1977 31.9473 13.1776C31.9639 13.1509 31.9815 13.1518 31.9998 13.176V13.2386Z" fill="#00A66C"/>
<path d="M20.6237 0C20.6237 0.0200344 20.6237 0.0400689 20.6229 0.0609381C20.602 0.0609381 20.5812 0.0592685 20.5603 0.0592685C20.5386 0.0459122 20.5311 0.032556 20.5395 0.0191997C20.5461 0.00667814 20.5536 0 20.5611 0H20.6237Z" fill="#0C7669"/>
<path d="M20.561 0C20.561 0.0191997 20.561 0.0392341 20.5593 0.0584338C20.5377 0.057599 20.5168 0.0567642 20.4959 0.0559295C20.4751 0.0425732 20.4693 0.0292169 20.4768 0.0175301C20.4843 0.00584338 20.4918 0 20.4993 0H20.5618H20.561Z" fill="#0C7669"/>
<path d="M20.4993 0C20.4993 0.0183649 20.4976 0.0375646 20.4959 0.0559295C20.4751 0.0559295 20.4534 0.0550947 20.4325 0.0542599C20.4192 0.0409036 20.4159 0.0283821 20.4217 0.0166954C20.4267 0.00584338 20.4317 0 20.4367 0H20.4993Z" fill="#0C7669"/>
<path d="M20.4367 0C20.4367 0.0183649 20.4351 0.0367298 20.4326 0.0542599C20.4134 0.035895 20.3942 0.0175301 20.375 0C20.3959 0 20.4167 0 20.4376 0H20.4367Z" fill="#0C7669"/>
<path d="M11.5464 0C11.5464 0.0208692 11.5464 0.0417384 11.5464 0.0626076C11.5256 0.0626076 11.5047 0.0626076 11.4839 0.0626076C11.4839 0.0417384 11.4839 0.0208692 11.4839 0H11.5464Z" fill="#00A66C"/>
<path d="M31.9998 13.1759C31.9823 13.1759 31.9648 13.1768 31.9473 13.1776C31.9473 13.1568 31.9473 13.1359 31.9473 13.115C31.9648 13.115 31.9823 13.1142 32.0006 13.1133V13.1759H31.9998Z" fill="#00A66C"/>
<path d="M16.0193 1.92914C16.4764 2.05352 16.9327 2.1779 17.3898 2.30144C18.9079 3.19632 19.807 4.64798 20.7454 6.06458C21.7622 8.04715 22.6238 10.0815 22.6072 12.3646C22.5938 14.2128 22.1242 15.9048 20.7513 17.2396C20.7621 17.3924 20.6387 17.4525 20.5461 17.5276C19.6052 18.2814 18.5233 18.6888 17.3381 18.8374C17.2004 18.8549 17.0436 18.9041 16.9502 18.733C16.881 18.5527 16.9002 18.3641 16.9002 18.1779C16.8985 15.7896 16.9002 13.4014 16.8993 11.0139C16.8993 10.8269 16.9052 10.6399 16.8843 10.4538C16.8167 9.84358 16.7125 9.72003 16.1286 9.55057C16.0919 9.53221 16.0619 9.50549 16.0377 9.4721C15.9601 9.34021 15.9626 9.19329 15.9626 9.04888C15.9609 6.79751 15.9626 4.54614 15.9609 2.29477C15.9609 2.16872 15.9718 2.04684 16.0193 1.92914Z" fill="#60BD6A"/>
<path d="M24.4771 26.9664C24.4738 24.2433 24.4705 21.5195 24.4671 18.7965C24.4705 16.0827 24.4888 13.368 24.4655 10.6542C24.4605 10.0656 24.6031 9.59233 25.1911 9.4955C26.067 9.35109 26.3397 9.92457 26.3405 10.6892C26.3439 13.2578 26.3405 15.8264 26.3447 18.395C26.3447 18.5252 26.3831 18.6554 26.4039 18.7856C26.3831 20.3475 26.3564 21.9085 26.3439 23.4704C26.3339 24.7192 26.3422 25.9671 26.3422 27.216C25.7208 27.1325 25.0986 27.0498 24.4771 26.9664Z" fill="#36414D"/>
<path d="M8.12285 2.24218C9.44409 3.33071 10.5651 4.58871 11.3609 6.11967C11.4376 6.21066 11.3892 6.29998 11.345 6.37929C10.968 7.06129 10.7003 7.79672 10.3366 8.48541C10.2165 8.71413 10.209 8.98376 10.1322 9.23252C9.93038 9.88615 9.69266 10.5473 9.65429 11.2234C9.61425 11.9121 9.61842 12.615 9.68432 13.3087C9.70934 13.5767 9.75855 13.8413 9.75355 14.1142C9.74938 14.3305 9.81861 14.5433 9.9187 14.7412C10.1247 15.1485 10.2966 15.5718 10.4726 15.9933C10.6185 16.3431 10.9388 16.5676 11.1657 16.8615C11.2591 16.9825 11.3984 17.0735 11.4034 17.2496C11.3851 17.374 11.2967 17.4458 11.2082 17.5193C10.3224 18.2597 9.2806 18.6312 8.16122 18.8165C7.99023 18.8449 7.80839 18.8641 7.66159 18.7238C7.54564 18.5452 7.57234 18.3423 7.57234 18.147C7.57067 15.7646 7.57234 13.3822 7.57067 10.9997C7.57067 10.771 7.574 10.5439 7.52813 10.3161C7.4272 9.81185 7.15361 9.58229 6.67149 9.61652C6.24109 9.64657 5.95415 9.98048 5.95082 10.4688C5.94498 11.4363 5.94915 12.4038 5.94831 13.3713C5.94831 15.0049 5.94998 16.6386 5.94581 18.2714C5.94581 18.4525 5.98501 18.652 5.81736 18.7948C0.705899 17.92 -1.26511 13.5792 1.03204 8.21744C2.06467 5.8083 3.30083 3.54358 5.67973 2.17205C6.50884 1.69373 7.31459 1.99842 8.12285 2.24218Z" fill="#60BD6A"/>
<path d="M16.0817 26.3586C16.0825 28.226 16.0842 30.0942 16.085 31.9616C11.0444 31.9649 6.0047 31.9716 0.964146 31.9649C0.550424 31.9649 0.277669 31.6636 0.183414 31.2888C-0.347918 29.1685 0.250143 28.2669 2.34711 27.9063C3.51237 27.7059 4.66762 27.4472 5.82787 27.2151C5.92296 27.1249 6.04307 27.0966 6.16569 27.0765C6.67366 26.9939 7.18247 26.9129 7.69462 26.8545C8.46951 26.7159 9.25275 26.6374 10.0343 26.5673C11.5999 26.4279 13.1656 26.2752 14.7412 26.2944C14.8655 26.296 14.9898 26.286 15.1124 26.3127C15.4235 26.3394 15.7355 26.19 16.0466 26.3144C16.0583 26.3286 16.07 26.3436 16.0817 26.3578V26.3586Z" fill="#9CCB43"/>
<path d="M7.69208 26.9664C7.07066 27.0499 6.44841 27.1325 5.827 27.216C5.82366 24.4095 5.82033 21.603 5.81699 18.7965C5.82033 16.0818 5.83701 13.3672 5.81699 10.6525C5.81198 9.98302 6.00467 9.53725 6.71783 9.49718C7.55195 9.45044 7.68207 10.0531 7.68541 10.6826C7.69959 13.252 7.69041 15.8214 7.69375 18.3908C7.69375 18.5085 7.73295 18.6262 7.7538 18.7439C7.82971 18.8666 7.8147 19.0044 7.8147 19.1379C7.8147 21.5587 7.8147 23.9796 7.8147 26.4004C7.8147 26.5982 7.82387 26.7978 7.69125 26.9664H7.69208Z" fill="#4E6666"/>
<path d="M17.0275 18.7965C17.0208 21.315 17.0142 23.8335 17.0066 26.3519C16.698 26.3545 16.3894 26.357 16.0808 26.3586L16.0883 26.3444C15.9256 26.1858 15.9615 25.9788 15.9615 25.7851C15.959 22.4978 15.9598 19.2105 15.9598 15.9232C15.9598 13.9673 15.9582 12.0115 15.9623 10.0564C15.9623 9.85693 15.9131 9.62821 16.1467 9.50216C16.9925 9.45958 17.0033 10.0932 17.0075 10.6491C17.03 13.3646 17.0225 16.081 17.0258 18.7965H17.0275Z" fill="#36414D"/>
<path d="M11.3657 17.2388C9.44728 15.4699 9.33301 13.1176 9.59742 10.8136C9.78593 9.16743 10.5183 7.58972 11.3616 6.11969C12.2933 4.64048 13.2709 3.20218 14.7881 2.24637C15.1985 2.14119 15.6089 2.03517 16.0193 1.92999C16.041 3.7932 16.0652 5.6564 16.0843 7.51876C16.091 8.17322 16.0843 8.82768 16.0843 9.48131C16.0251 9.55977 15.9375 9.58899 15.8525 9.62822C15.4771 9.80352 15.2652 10.0623 15.2677 10.5206C15.2811 13.0658 15.2752 15.611 15.2736 18.1562C15.2736 18.3424 15.2911 18.531 15.2319 18.7122C15.1818 18.8457 15.0692 18.8608 14.9516 18.8491C13.6646 18.7197 12.4935 18.3015 11.4984 17.4458C11.4333 17.3899 11.3899 17.3214 11.3674 17.2388H11.3657Z" fill="#9CCB43"/>
<path d="M12.0361 0.0667725C12.0595 0.0826331 12.0837 0.0984936 12.107 0.115189C12.0837 0.0993284 12.0595 0.0834678 12.0361 0.0667725Z" fill="#00A66C"/>
<path d="M15.1424 18.7965C15.1458 16.0184 15.1533 13.2402 15.1499 10.463C15.1491 9.81769 15.4953 9.54222 16.0842 9.48212C16.1058 9.48879 16.1275 9.49547 16.1492 9.50215C16.1284 9.60232 16.0883 9.70166 16.0883 9.80183C16.0867 15.3163 16.0883 20.8308 16.09 26.3453C15.778 26.3653 15.4652 26.3845 15.1533 26.4045C15.0332 26.2943 15.0315 26.1458 15.0315 26.0005C15.0282 23.7358 15.029 21.4711 15.0315 19.2063C15.0315 19.0594 15.0373 18.9142 15.1441 18.7965H15.1424Z" fill="#4E6666"/>
</g>
<defs>
<clipPath id="clip0_2257_9175">
<rect width="32" height="32" fill="white"/>
</clipPath>
</defs>
</svg>
