<svg width="34" height="33" viewBox="0 0 34 33" fill="none" xmlns="http://www.w3.org/2000/svg">
<g clip-path="url(#clip0_2257_9154)">
<path d="M0.549805 29.7192C0.555285 28.9082 0.560766 28.0982 0.56716 27.2873C0.838443 27.2773 0.954447 27.5015 1.10607 27.6552C1.69614 28.2537 2.4086 28.5358 3.24803 28.5385C4.20803 28.5421 4.98808 28.1533 5.63387 27.4771C6.00654 27.0866 6.02298 27.064 6.39383 27.4762C7.01312 28.1633 7.7877 28.5059 8.70294 28.534C9.67572 28.5629 10.464 28.1515 11.1153 27.4626C11.4596 27.0983 11.5035 27.0766 11.8305 27.4446C12.5064 28.2049 13.3531 28.5547 14.3643 28.5358C14.9397 28.5249 15.4521 28.3179 15.9299 28.0168C16.1409 27.8839 16.3281 27.7185 16.5172 27.554C16.8953 27.2249 17.0187 27.2204 17.374 27.5856C18.6418 28.8865 20.7162 28.8468 21.9045 27.6272C21.9675 27.5621 22.0397 27.5069 22.11 27.45C22.332 27.2701 22.5384 27.2719 22.7403 27.4834C23.0563 27.8134 23.4171 28.0801 23.8364 28.2754C24.9224 28.7835 26.3336 28.5792 27.2187 27.7727C27.642 27.387 28.0679 27.3819 28.4966 27.7574C29.5991 28.7229 31.2761 28.8169 32.4827 27.978C32.6992 27.8279 32.8463 27.6064 33.0271 27.4201C33.1185 27.3261 33.1861 27.1905 33.3551 27.2185C33.3605 28.0521 33.366 28.8847 33.3724 29.7183C33.366 29.7273 33.3596 29.7436 33.3523 29.7445C32.913 29.7707 32.8536 30.0853 32.7549 30.4298C32.5275 31.2226 31.7712 32.0742 30.3645 31.992C29.4995 31.9414 28.6227 31.1991 28.3824 30.2761C28.345 30.1314 28.3861 29.9262 28.1988 29.8692C27.9814 29.8023 27.7458 29.815 27.522 29.8503C27.3567 29.8765 27.3941 30.0419 27.3695 30.1558C27.206 30.8935 26.8095 31.4577 26.1099 31.7831C24.8082 32.3889 23.281 31.6692 22.9193 30.2914C22.8809 30.1459 22.9257 29.9361 22.7494 29.8756C22.5238 29.7969 22.2754 29.815 22.0397 29.8539C21.8945 29.8783 21.9264 30.0311 21.9054 30.135C21.7492 30.8899 21.3428 31.4595 20.6312 31.7886C19.3314 32.3898 17.8015 31.6593 17.4507 30.2779C17.3466 29.8674 17.0333 29.7138 16.6241 29.8602C16.4697 29.9154 16.4679 30.0419 16.4487 30.1595C16.3446 30.8059 15.9682 31.2723 15.4394 31.624C14.1295 32.4937 12.3602 31.7913 11.9775 30.2607C11.9437 30.1251 11.9803 29.9325 11.8177 29.8747C11.6021 29.7978 11.3665 29.8168 11.1427 29.8674C10.9883 29.9027 11.0029 30.0573 10.9773 30.173C10.7371 31.2624 9.78625 32.0155 8.66914 31.9992C7.65616 31.9838 6.75645 31.2525 6.50526 30.2462C6.47147 30.1124 6.50983 29.9217 6.33445 29.8692C6.11523 29.8051 5.88049 29.8087 5.66035 29.8756C5.51421 29.9199 5.53248 30.0754 5.5069 30.192C5.27672 31.2416 4.33042 32.001 3.25168 32.0001C2.27798 31.9983 1.37736 31.3609 1.10059 30.4207C1.00468 30.0953 0.922478 29.8123 0.554372 29.7183L0.549805 29.7192Z" fill="#A4CAEC"/>
<path d="M8.75059 25.3896C9.28859 23.662 9.77544 21.937 9.80284 20.0945C9.83938 17.5704 9.337 15.1963 8.18154 12.9506C8.01073 12.6189 7.86915 12.2726 7.71387 11.9327C8.10024 11.9797 8.49118 12.0014 8.87116 12.0791C12.0343 12.7228 14.9289 13.946 17.439 15.9919C17.5404 16.3888 17.3696 16.7595 17.3248 17.1419C17.3001 17.3498 17.2517 17.5577 17.1704 17.7548C17.0005 17.9564 16.8845 17.7693 16.7804 17.6834C16.1109 17.1265 15.4377 16.5741 14.696 16.1112C14.369 15.9078 14.0457 15.7008 13.7104 15.5091C13.5013 15.3898 13.3688 15.407 13.2501 15.6366C13.0199 16.0823 13.0153 16.1185 13.4574 16.3707C14.5846 17.0153 15.5921 17.8154 16.5566 18.6743C16.6735 18.7782 16.8032 18.8813 16.7868 19.0657C16.1611 20.6632 15.2541 22.0726 13.9872 23.2533C12.6317 24.5154 11.036 25.2558 9.19451 25.4863C9.04106 25.5053 8.8739 25.537 8.75242 25.3896H8.75059Z" fill="#8992A0"/>
<path d="M17.089 17.8281C17.2059 17.216 17.3229 16.604 17.4389 15.9919C20.8769 18.7132 23.144 22.1811 24.2155 26.4103C24.1506 26.6246 23.9615 26.5875 23.8035 26.6029C23.6355 26.6192 23.4683 26.5993 23.3048 26.5595C22.9906 26.4031 22.9203 26.0984 22.8764 25.8019C22.8335 25.5153 22.6508 25.5045 22.438 25.5153C22.2242 25.5262 21.9767 25.452 21.9155 25.7901C21.8607 26.0948 21.7995 26.4167 21.4588 26.5667C21.214 26.6363 20.9628 26.611 20.7144 26.6119C19.8868 26.6137 19.0593 26.6137 18.2317 26.6119C18.1057 26.6119 17.9842 26.5866 17.8618 26.5658C17.5293 26.4293 17.4544 26.1219 17.4133 25.8263C17.3713 25.5234 17.1886 25.5081 16.9584 25.5135C16.7191 25.5189 16.4889 25.4882 16.435 25.8353C16.3903 26.121 16.3592 26.4537 15.9975 26.5731C15.3526 26.6571 14.705 26.6074 14.0592 26.6083C13.5048 26.6092 12.9476 26.6599 12.395 26.5667C12.0616 26.4311 11.9867 26.1228 11.9456 25.8272C11.9036 25.5244 11.7209 25.5081 11.4907 25.5135C11.2514 25.5189 11.0212 25.4882 10.9664 25.8353C10.9217 26.121 10.8906 26.4537 10.528 26.5731C9.84656 26.6517 9.16516 26.6083 8.48284 26.5984C8.38053 26.5966 8.28006 26.5658 8.21338 26.4754C8.39149 26.1138 8.57052 25.7513 8.74864 25.3896C11.7401 25.4882 15.2311 22.7869 16.5492 19.3596C16.5949 19.2411 16.6889 19.1399 16.7602 19.0314C16.8844 19.0061 16.9429 19.0992 17.0132 19.1697C18.2518 20.4164 19.2547 21.8304 20.054 23.3872C20.265 23.7985 20.4687 24.2144 20.6806 24.6257C20.8404 24.9367 20.8906 24.9503 21.2094 24.8029C21.6643 24.5941 21.6588 24.5959 21.436 24.1348C20.6678 22.5455 19.8 21.0176 18.6619 19.6516C18.2408 19.1471 17.7878 18.6743 17.3174 18.215C17.2087 18.1093 17.058 18.0179 17.0863 17.8281H17.089Z" fill="#4E5D7A"/>
<path d="M5.46593 6.45679C4.27392 6.26151 2.73117 6.83107 1.31172 6.19822C0.490565 5.83208 0.364514 4.99944 0.65498 4.21743C0.936311 3.45802 1.58483 3.15877 2.40143 3.27811C2.66084 3.31608 2.78689 3.33868 2.75674 2.97344C2.62887 1.41303 3.36416 0.343532 4.8987 0.0641771C6.53554 -0.234163 7.6024 0.515303 8.15867 2.13267C8.35506 2.70313 9.04103 2.06667 9.53975 2.1634C10.7911 2.4066 11.4716 3.13165 11.4406 4.32049C11.4068 5.5925 10.6724 6.41068 9.30227 6.44955C8.1194 6.483 6.93561 6.45679 5.46684 6.45679H5.46593Z" fill="#A4CAEC"/>
<path d="M27.3172 6.45681C26.1243 6.24978 24.5807 6.84375 23.1639 6.1874C22.3611 5.81493 22.2414 4.99676 22.5218 4.22831C22.7995 3.46709 23.4425 3.16603 24.261 3.27543C24.4866 3.30526 24.6638 3.38572 24.6281 2.98522C24.4921 1.42753 25.2237 0.350792 26.7573 0.0669171C28.3905 -0.235943 29.4674 0.502674 30.0219 2.12365C30.2283 2.72757 30.9006 2.06218 31.3993 2.16072C32.6497 2.40572 33.3385 3.12264 33.3101 4.31058C33.28 5.59886 32.5374 6.41884 31.149 6.45139C29.9661 6.47941 28.7824 6.45681 27.3172 6.45681Z" fill="#A4CAEC"/>
<path d="M0.549661 29.7192C0.911373 29.6722 1.05569 29.7716 1.15525 30.183C1.44207 31.3619 2.26414 32.0092 3.49725 31.8709C4.56594 31.7506 5.25374 31.1069 5.41359 29.9931C5.48666 29.485 5.90318 29.796 6.15711 29.7373C6.32792 29.6975 6.52978 29.6514 6.58367 29.9886C6.76636 31.1232 7.44685 31.8437 8.62789 31.8736C9.88384 31.9052 10.6584 31.2471 10.8804 29.9904C10.9717 29.4742 11.3974 29.8069 11.6613 29.7355C11.8367 29.6876 12.0011 29.6894 12.0514 29.9913C12.2386 31.125 12.9164 31.8455 14.0983 31.8736C15.3543 31.9034 16.1462 31.248 16.3389 29.9868C16.3965 29.6107 16.6705 29.7074 16.8532 29.7409C17.0724 29.7816 17.4323 29.4959 17.5063 29.9624C17.6807 31.0617 18.3201 31.7931 19.4327 31.8672C20.8156 31.9586 21.6696 31.2688 21.803 29.8367C21.8075 29.7843 21.9245 29.6894 21.94 29.6984C22.2606 29.8837 22.836 29.4281 22.953 29.9579C23.1959 31.0572 23.7924 31.8003 24.925 31.8672C26.297 31.9486 27.1318 31.2525 27.2716 29.844C27.2771 29.7879 27.3848 29.6876 27.3995 29.6957C27.7274 29.862 28.3138 29.4661 28.4106 29.9172C28.6499 31.0355 29.24 31.7949 30.3845 31.8654C31.7674 31.9513 32.6123 31.2552 32.7548 29.8214C32.7603 29.768 33.1549 29.7517 33.3686 29.7183C34.0482 29.6143 33.8801 30.0736 33.7988 30.4027C33.2115 32.7668 30.949 33.6609 28.7184 32.4223C28.4654 32.3346 28.2508 32.19 28.0973 31.9748C27.9283 31.7371 27.7913 31.7723 27.6278 31.9793C27.4652 32.1855 27.256 32.3383 27.0012 32.4214C25.7507 33.2053 24.5012 33.1772 23.2507 32.4223C22.9977 32.3346 22.7831 32.19 22.6296 31.9748C22.4606 31.7371 22.3236 31.7723 22.1601 31.9793C21.9975 32.1855 21.7884 32.3383 21.5335 32.4214C20.2831 33.2053 19.0335 33.1772 17.783 32.4223C17.5181 32.3319 17.3026 32.171 17.14 31.9486C17.0012 31.7588 16.8833 31.7823 16.7344 31.9405C16.5581 32.1267 16.3965 32.3364 16.1352 32.4214C14.8619 33.1094 13.5896 33.2288 12.3163 32.4223C12.0632 32.3346 11.8486 32.19 11.6951 31.9748C11.5262 31.7371 11.3882 31.7723 11.2256 31.9793C11.0631 32.1855 10.853 32.3374 10.6 32.4223C9.34949 33.1655 8.09903 33.1863 6.84856 32.4223C6.59555 32.3346 6.38089 32.19 6.22744 31.9748C6.05846 31.7371 5.92053 31.7723 5.75795 31.9793C5.59536 32.1855 5.38527 32.3374 5.13226 32.4223C2.68248 33.5931 0.675712 32.7722 0.0491105 30.3538C-0.0696332 29.8946 0.00435326 29.6378 0.550575 29.7192H0.549661Z" fill="#67ACD6"/>
<path d="M10.6012 26.4898C11.0195 26.243 10.5592 25.5406 11.2369 25.3842C12.2682 25.1455 11.9777 26.0948 12.3148 26.4745C12.5769 26.6191 12.734 26.8795 12.9697 27.0576C13.8054 27.6859 15.0596 27.5738 15.7483 26.7891C15.846 26.6779 15.9419 26.5694 16.068 26.4907C16.4872 26.2439 16.026 25.5415 16.7037 25.3851C17.7359 25.1473 17.4436 26.0975 17.7815 26.4772C17.9231 26.5522 18.0318 26.6643 18.1405 26.78C18.9854 27.6814 20.2477 27.7022 21.131 26.8334C21.2598 26.7068 21.374 26.5658 21.5357 26.4772C21.8791 26.1147 21.5658 25.1997 22.5797 25.3787C23.3241 25.5098 22.819 26.243 23.2492 26.4772C23.378 26.5504 23.484 26.6462 23.5854 26.7547C24.4531 27.6904 25.7182 27.7112 26.6225 26.8081C26.7421 26.6887 26.8563 26.5649 27.0006 26.4727C27.3596 26.1246 27.0152 25.1853 28.0501 25.3751C28.8 25.5125 28.2922 26.2394 28.7197 26.4727C28.8558 26.5549 28.9672 26.6634 29.075 26.7791C29.9199 27.6805 31.1813 27.7013 32.0655 26.8325C32.1943 26.7059 32.3121 26.5694 32.4674 26.4727C32.8483 26.2132 32.4994 25.3914 33.0091 25.4312C35.1181 25.5957 33.1689 26.6245 33.3507 27.2194C31.3055 29.1351 30.3684 29.174 28.0145 27.4689C27.9341 27.4102 27.6628 27.5105 27.5487 27.6118C25.8917 29.0773 24.2403 29.061 22.64 27.525C22.3532 27.2502 22.2116 27.4879 22.0581 27.629C20.4889 29.0655 18.7251 29.0402 17.1924 27.5611C16.711 27.0974 16.5649 27.7148 16.3256 27.8866C14.6896 29.061 13.061 28.9091 11.647 27.4066C11.5347 27.2863 11.4735 27.186 11.3164 27.3677C9.83575 29.08 7.77783 29.0971 6.18209 27.4255C6.11998 27.3595 5.9309 27.3044 5.89071 27.3406C3.91135 29.1613 2.70473 29.1523 0.564597 27.2872C0.40475 26.9292 0.201059 26.5821 0.0996699 26.2087C0.0320773 25.9601 0.111544 25.6726 0.124332 25.4032C0.444027 25.423 0.880639 25.3254 1.05419 25.4936C1.27432 25.7069 1.28163 26.1363 1.38028 26.4718C1.63695 26.6245 1.79679 26.8813 2.03337 27.0585C2.86092 27.6805 4.10225 27.5765 4.79188 26.8072C4.89783 26.6887 5.00927 26.5784 5.1271 26.4736C5.52443 26.187 5.08508 25.2938 6.07065 25.3661C6.94297 25.4303 6.40496 26.2439 6.84797 26.4718C7.10373 26.6245 7.26357 26.8804 7.49923 27.0585C8.33409 27.6877 9.58821 27.5747 10.2778 26.7891C10.3756 26.6779 10.4715 26.5694 10.5975 26.4907L10.6012 26.4898Z" fill="#67ACD6"/>
<path d="M5.12964 26.4727C4.841 27.1345 4.27377 27.4581 3.60606 27.5476C2.65063 27.6751 1.87332 27.337 1.38281 26.4718C2.63145 26.4718 3.881 26.4727 5.12964 26.4736V26.4727Z" fill="#A4CAEC"/>
<path d="M10.6011 26.4899C10.2705 27.1453 9.70507 27.4816 8.99808 27.554C8.06184 27.6507 7.32471 27.3008 6.85156 26.4709C7.30644 26.4727 7.76132 26.4736 8.2162 26.4754C9.01179 26.4799 9.80646 26.4844 10.602 26.4899H10.6011Z" fill="#A4CAEC"/>
<path d="M27.0014 26.4727C26.6479 27.1046 26.0962 27.4753 25.3837 27.553C24.4521 27.6552 23.7396 27.2655 23.25 26.4763C23.5715 26.4546 23.894 26.4329 24.2155 26.4103C25.1444 26.4311 26.0724 26.4519 27.0014 26.4718V26.4727Z" fill="#A4CAEC"/>
<path d="M32.4694 26.4727C32.1058 27.1137 31.5477 27.4871 30.817 27.5558C29.8963 27.6417 29.1966 27.2574 28.7207 26.4727C29.9703 26.4727 31.2198 26.4727 32.4694 26.4727Z" fill="#A4CAEC"/>
<path d="M5.13135 32.4232C5.70314 31.5978 6.27586 31.5788 6.84765 32.4232C6.27586 32.4232 5.70314 32.4232 5.13135 32.4232Z" fill="#A4CAEC"/>
<path d="M10.5991 32.4232C11.1709 31.5987 11.7436 31.5788 12.3154 32.4232C11.7436 32.4232 11.1709 32.4232 10.5991 32.4232Z" fill="#A4CAEC"/>
<path d="M21.5347 32.4223C22.1074 31.5915 22.6801 31.5834 23.251 32.4232C22.6792 32.4232 22.1065 32.4232 21.5347 32.4223Z" fill="#A4CAEC"/>
<path d="M27.0024 32.4223C27.5752 31.5915 28.1479 31.5834 28.7187 32.4232C28.1469 32.4232 27.5742 32.4232 27.0024 32.4223Z" fill="#A4CAEC"/>
<path d="M16.1353 32.4223C16.6851 31.4785 17.235 31.6728 17.784 32.4232C17.2341 32.4232 16.6851 32.4232 16.1353 32.4223Z" fill="#A4CAEC"/>
<path d="M16.0686 26.4899C15.748 27.1372 15.189 27.4717 14.5003 27.5521C13.554 27.6624 12.8032 27.3107 12.3154 26.4745C13.5668 26.4799 14.8182 26.4844 16.0696 26.4899H16.0686Z" fill="#A4CAEC"/>
<path d="M21.5364 26.4763C20.7782 27.93 18.7459 27.93 17.7822 26.4763C19.0336 26.4763 20.285 26.4763 21.5364 26.4763Z" fill="#A4CAEC"/>
</g>
<defs>
<clipPath id="clip0_2257_9154">
<rect width="34" height="33" fill="white"/>
</clipPath>
</defs>
</svg>
