<svg width="12" height="13" viewBox="0 0 12 13" fill="none" xmlns="http://www.w3.org/2000/svg">
<path d="M10 7.5H2V4.5H4.54L3.5 5.915L4.31 6.5L5.5 4.88L6 4.2L6.5 4.88L7.69 6.5L8.5 5.915L7.46 4.5H10M10 10H2V9H10M4.5 2.5C4.63261 2.5 4.75979 2.55268 4.85355 2.64645C4.94732 2.74021 5 2.86739 5 3C5 3.13261 4.94732 3.25979 4.85355 3.35355C4.75979 3.44732 4.63261 3.5 4.5 3.5C4.36739 3.5 4.24021 3.44732 4.14645 3.35355C4.05268 3.25979 4 3.13261 4 3C4 2.86739 4.05268 2.74021 4.14645 2.64645C4.24021 2.55268 4.36739 2.5 4.5 2.5ZM7.5 2.5C7.63261 2.5 7.75979 2.55268 7.85355 2.64645C7.94732 2.74021 8 2.86739 8 3C8 3.13261 7.94732 3.25979 7.85355 3.35355C7.75979 3.44732 7.63261 3.5 7.5 3.5C7.36739 3.5 7.24021 3.44732 7.14645 3.35355C7.05268 3.25979 7 3.13261 7 3C7 2.86739 7.05268 2.74021 7.14645 2.64645C7.24021 2.55268 7.36739 2.5 7.5 2.5ZM10 3.5H8.91C8.965 3.345 9 3.175 9 3C9 2.60218 8.84196 2.22064 8.56066 1.93934C8.27936 1.65804 7.89782 1.5 7.5 1.5C6.975 1.5 6.52 1.77 6.25 2.175L6 2.5L5.75 2.17C5.48 1.77 5.025 1.5 4.5 1.5C4.10218 1.5 3.72064 1.65804 3.43934 1.93934C3.15804 2.22064 3 2.60218 3 3C3 3.175 3.035 3.345 3.09 3.5H2C1.445 3.5 1 3.945 1 4.5V10C1 10.555 1.445 11 2 11H10C10.555 11 11 10.555 11 10V4.5C11 3.945 10.555 3.5 10 3.5Z" fill="#6B8E6B"/>
</svg>
