<svg width="31" height="30" viewBox="0 0 31 30" fill="none" xmlns="http://www.w3.org/2000/svg">
<g clip-path="url(#clip0_2257_9540)">
<path d="M19.7914 29.9507C18.6226 28.7169 17.4516 27.4845 16.2858 26.2477C15.9035 25.842 15.5994 25.3357 15.1489 25.0263C13.6236 23.9769 14.4875 23.0848 15.2399 22.1147C16.6529 20.2937 18.0318 18.4469 19.4099 16.6002C19.6321 16.3018 19.9143 16.2122 20.2313 16.2893C20.5461 16.3658 20.6447 16.6413 20.6432 16.9463C20.6401 17.5313 20.6424 18.1162 20.6424 18.7953C21.523 18.7335 22.3816 18.674 23.2402 18.6138C23.9736 18.6402 24.7078 18.6321 25.442 18.6321C26.3491 18.6321 27.2562 18.6292 28.1634 18.6336C28.5365 18.6358 28.8392 18.5109 29.1205 18.2713C29.5756 17.884 29.9966 17.4637 30.4304 17.0551C30.5594 16.9338 30.6845 16.7964 30.8938 16.8207C30.9462 16.8376 30.9818 16.875 30.9841 16.9257C31.0144 17.5526 31.0402 18.178 30.6253 18.724C28.9218 20.9646 27.345 23.2905 25.7075 25.5745C25.0521 26.488 24.1966 27.1046 23.112 27.4323C22.5492 27.6028 21.9652 27.6307 21.3789 27.6329C21.1893 27.6329 20.9966 27.6043 20.8131 27.6719C20.7198 27.774 20.7433 27.8953 20.7418 28.0092C20.7365 28.4384 20.7524 28.8683 20.7342 29.2974C20.7198 29.6333 20.5908 29.9045 20.2177 29.9993H20.157C20.1418 29.9838 20.1236 29.975 20.1024 29.9713C20.0812 29.9706 20.0599 29.9699 20.0387 29.9699C20.0174 29.9699 19.9962 29.9699 19.975 29.9699C19.9537 29.9699 19.9325 29.9699 19.9113 29.9699C19.89 29.9699 19.8688 29.9699 19.8475 29.9699C19.8256 29.9699 19.8058 29.9632 19.7891 29.95L19.7914 29.9507Z" fill="#378E43"/>
<path d="M9.08717 8.75682C10.0785 9.23376 10.0618 10.2846 10.4388 11.0864C11.3118 12.9412 12.0725 14.846 12.8439 16.7442C12.9083 16.9022 12.771 17.2278 12.6193 17.3527C12.479 17.4681 12.1567 17.5012 11.9784 17.4269C11.3034 17.1433 10.6542 16.8016 9.95334 16.4613C9.55363 17.2366 9.16833 17.984 8.78303 18.7313C8.67912 18.8555 8.53046 18.8401 8.39242 18.8408C6.51674 18.8438 4.64029 18.8438 2.76461 18.8423C2.46198 18.8423 2.16845 18.7821 1.9394 18.5983C1.28029 18.07 0.637111 17.5217 0.0819143 16.8875C-0.0310971 16.6413 0.0561264 16.4069 0.147142 16.1828C0.31628 15.7654 0.53396 15.3678 0.75619 14.9754C1.25905 14.0862 1.69972 13.1661 2.1768 12.2644C2.21775 12.1865 2.25947 12.1079 2.25871 12.0087C2.23596 11.8793 2.12598 11.8029 2.03496 11.714C1.45322 11.1474 0.871477 10.5808 0.284425 10.0193C0.152452 9.89221 0.0530926 9.75405 0 9.58356V9.46598C0.0288217 9.441 0.0303386 9.40793 0.0303386 9.37412C0.0303386 9.35207 0.0303386 9.32929 0.0303386 9.30725C0.0303386 9.2852 0.0303386 9.26242 0.0303386 9.24037C0.0303386 9.21833 0.0303386 9.19555 0.0303386 9.1735C0.0303386 9.15072 0.0364063 9.13014 0.0500587 9.11103C0.21237 8.99272 0.37544 8.8744 0.537752 8.75682C0.613599 8.71934 0.696271 8.73404 0.77591 8.73404C3.46695 8.73331 6.15722 8.73331 8.84826 8.73404C8.9279 8.73404 9.00981 8.71934 9.08642 8.75682H9.08717Z" fill="#4EAF4F"/>
<path d="M0.055368 16.7949C2.37855 19.9233 5.80378 18.3815 8.78303 18.7306C9.98065 18.7511 11.1783 18.7688 12.3751 18.7952C12.7559 18.8033 12.8332 19.0921 12.903 19.3773C12.9364 19.4522 12.9235 19.5316 12.9235 19.6088C12.9235 21.9604 12.9235 24.3112 12.9235 26.6629C12.9235 26.74 12.9364 26.8194 12.903 26.8944C12.7938 27.3728 12.4752 27.5543 11.9845 27.5388C9.83957 27.4698 7.49819 28.0106 5.86445 26.1213C4.7169 24.7933 3.7544 23.3118 2.74185 21.8781C1.80591 20.5516 0.912434 19.1972 0 17.8553C0 17.8164 0 17.7774 0 17.7377C0.0303386 17.7106 0.0303386 17.6745 0.0303386 17.6385C0.0303386 17.6143 0.0303386 17.59 0.0303386 17.5658C0.0303386 17.5415 0.0303386 17.5165 0.0303386 17.4923C0.0303386 17.3813 0.0303386 17.2704 0.0303386 17.1601C0.0303386 17.1359 0.0303386 17.1116 0.0303386 17.0874C0.0303386 17.0631 0.0303386 17.0389 0.0303386 17.0154C0.0303386 16.9794 0.0303386 16.9433 0 16.9162V16.7986C0.0159278 16.7684 0.0341309 16.7684 0.055368 16.7942V16.7949Z" fill="#378E43"/>
<path d="M0.0606772 17.0933C0.0606772 17.2505 0.0599188 17.4071 0.0591603 17.5643C0.0386817 17.593 0.0189616 17.5915 0 17.5629V17.0933C0.0204786 17.0624 0.0401987 17.0639 0.0606772 17.0933Z" fill="#489749"/>
<path d="M0.0606772 9.34846C0.0401987 9.38741 0.0204786 9.42636 0 9.46604C0 9.42709 0 9.38815 0 9.34846C0.0204786 9.31907 0.0401987 9.31907 0.0606772 9.34846Z" fill="#6FB867"/>
<path d="M0.0508172 9.11107C0.0591603 9.13017 0.0591603 9.14928 0.0515757 9.16839C0.0371648 9.20219 0.0197201 9.20366 0 9.1728V9.11401C0.0166862 9.1096 0.0341309 9.10886 0.0508172 9.11107Z" fill="#D2E5CB"/>
<path d="M2.60436e-05 9.17281C0.0174707 9.16913 0.034157 9.16766 0.0516017 9.1684C0.0576694 9.1875 0.0584279 9.20661 0.0538771 9.22572C0.0402247 9.26467 0.0220215 9.26687 -0.000732422 9.2316V9.17281H2.60436e-05Z" fill="#A4CE9A"/>
<path d="M0 9.23159C0.0182032 9.23012 0.0364063 9.22791 0.0546095 9.22571C0.0568849 9.24702 0.0584018 9.26907 0.0606772 9.29038C0.0401987 9.31389 0.0204786 9.31316 0 9.29038L0 9.23159Z" fill="#77BB6D"/>
<path d="M0 9.29041C0.0204786 9.29041 0.0401987 9.29041 0.0606772 9.29041C0.0606772 9.31025 0.0606772 9.32935 0.0606772 9.3492C0.0401987 9.3492 0.0204786 9.3492 0 9.3492V9.29041Z" fill="#61B45B"/>
<path d="M0 16.917C0.0174447 16.9354 0.0348894 16.9537 0.0523341 16.9714C0.0379233 17.0059 0.0197201 17.0052 0 16.975C0 16.9559 0 16.9368 0 16.917Z" fill="#93BC89"/>
<path d="M0 16.9757C0.0174447 16.9743 0.0348894 16.9728 0.0523341 16.972C0.055368 16.9926 0.0576434 17.0139 0.0606772 17.0345C0.0409571 17.058 0.0204786 17.058 0 17.0345L0 16.9757Z" fill="#77AC6E"/>
<path d="M0 17.0345C0.0204786 17.0345 0.0401987 17.0345 0.0606772 17.0345C0.0606772 17.0544 0.0606772 17.0735 0.0606772 17.0933H0.0303386H0V17.0345Z" fill="#5FA058"/>
<path d="M0 17.5621C0.0197201 17.5621 0.0394402 17.5621 0.0591603 17.5636C0.0576434 17.5842 0.0561264 17.604 0.0546095 17.6246C0.0341309 17.6496 0.0159278 17.6496 0 17.6209V17.5621Z" fill="#60A15A"/>
<path d="M0 17.621C0.0182032 17.6217 0.0364063 17.6232 0.0546095 17.6246C0.0546095 17.6445 0.0530926 17.6636 0.0523341 17.6834C0.0333725 17.6996 0.0159278 17.6989 0 17.679V17.6202V17.621Z" fill="#7BAF72"/>
<path d="M0 17.6797C0.0174447 17.6812 0.0348894 17.6826 0.0523341 17.6841C0.0348894 17.7025 0.0174447 17.7201 0 17.7385C0 17.7186 0 17.6995 0 17.6797Z" fill="#9DC293"/>
<path d="M19.7915 29.9508C19.812 29.9508 19.8317 29.9508 19.8522 29.9508C19.8772 29.9604 19.8856 29.9706 19.8787 29.9824C19.8711 29.9949 19.8636 30.0008 19.856 30.0008H19.7953C19.7953 29.9839 19.7938 29.9677 19.7915 29.9508Z" fill="#BDCFB4"/>
<path d="M19.8558 30C19.8558 29.983 19.8536 29.9669 19.8521 29.95C19.8718 29.9441 19.8915 29.9434 19.9112 29.9485C19.9362 29.9573 19.9461 29.9684 19.9393 29.9808C19.9317 29.9941 19.9249 30.0007 19.9165 30.0007H19.8558V30Z" fill="#95B68B"/>
<path d="M19.9164 29.9999C19.9164 29.9823 19.9142 29.9654 19.9111 29.9485C19.9316 29.947 19.9521 29.9456 19.9726 29.9441C19.9847 29.9529 19.9976 29.961 20.0097 29.9698C19.9984 29.9801 19.9877 29.9904 19.9764 30.0007H19.9157L19.9164 29.9999Z" fill="#6FA266"/>
<path d="M19.9772 30C19.9772 29.9808 19.9757 29.9625 19.9734 29.9434C19.9954 29.9434 20.0174 29.9426 20.0394 29.9419C20.0614 29.9551 20.0682 29.9684 20.0606 29.9808C20.053 29.9933 20.0454 30 20.0386 30H19.9779H19.9772Z" fill="#479349"/>
<path d="M20.0371 29.9999C20.0371 29.9808 20.0371 29.9617 20.0386 29.9426C20.0599 29.9434 20.0811 29.9448 20.1023 29.9456C20.1152 29.9588 20.1183 29.9713 20.113 29.983C20.1076 29.9948 20.1023 29.9999 20.0978 29.9999H20.0371Z" fill="#579852"/>
<path d="M20.0979 29.9999C20.0979 29.9816 20.0994 29.9639 20.1025 29.9456C20.1214 29.9639 20.1404 29.9816 20.1586 29.9999H20.0979Z" fill="#76A66D"/>
<path d="M8.48486 1.1934C9.14473 0.478364 9.99193 0.0499286 10.9552 0.0359659C14.0429 -0.00739205 17.1314 -0.0162106 20.2191 0.0330263C22.2389 0.0646262 22.829 1.79453 23.7884 3.06147C23.8984 3.20624 23.9909 3.36277 24.1047 3.53252C24.6053 3.29148 25.0975 3.04383 25.5989 2.81602C26.0009 2.63377 26.4173 2.24942 26.864 2.6345C27.3024 3.01223 26.9922 3.44213 26.82 3.84485C25.8454 6.1193 24.8927 8.40257 23.8916 10.6667C23.3781 11.8278 22.4406 11.0614 21.7337 10.9651C19.8482 10.7094 17.9816 10.3258 16.1067 9.99432C15.7874 9.93774 15.553 9.78562 15.4999 9.45786C15.4445 9.11614 15.6167 8.91552 15.9292 8.75238C16.4996 8.45401 17.0441 8.10936 17.6615 7.74779C17.2239 7.13344 16.7825 6.51246 16.3403 5.89149C16.1909 5.81874 16.0968 5.69601 16.0028 5.56667C15.2906 4.58414 14.5943 3.58984 13.8889 2.60217C13.2761 1.74383 12.3985 1.37639 11.3534 1.35214C10.5373 1.33303 9.7204 1.35214 8.90429 1.34552C8.75108 1.34405 8.57057 1.383 8.48486 1.19267V1.1934Z" fill="#378E43"/>
<path d="M8.4849 1.19348C9.54903 1.21626 10.6147 1.21112 11.6765 1.2677C13.3725 1.35809 14.071 2.66251 14.8826 3.81627C15.3687 4.50779 15.8542 5.20005 16.3396 5.89157C15.3771 7.14895 14.4275 8.41515 13.4491 9.66077C12.8218 10.4588 12.2886 9.71809 11.7994 9.47117C9.72499 8.42396 7.64604 7.37676 5.63838 6.21712C4.41574 5.5109 5.58908 4.91491 5.95921 4.39462C6.74574 3.29009 7.63618 2.25612 8.48414 1.19348H8.4849Z" fill="#4EAF4F"/>
<path d="M30.7018 16.1541C30.7761 16.3885 30.8497 16.623 30.924 16.8574C30.7989 16.9338 30.632 16.9816 30.5539 17.0903C28.6782 19.7095 25.8651 18.4616 23.4183 18.7174C23.3637 18.7232 23.2999 18.6505 23.2408 18.6137C22.5961 17.5945 22.031 16.5164 21.2855 15.5713C20.4314 14.4881 20.5808 13.8973 21.868 13.3072C23.5245 12.5473 25.0444 11.5045 26.7085 10.7645C27.8796 10.2435 27.9509 11.4906 28.3271 12.0895C29.1614 13.4189 29.9145 14.7968 30.7011 16.1541H30.7018Z" fill="#4EAF4F"/>
</g>
<defs>
<clipPath id="clip0_2257_9540">
<rect width="31" height="30" fill="white"/>
</clipPath>
</defs>
</svg>
