<svg width="32" height="32" viewBox="0 0 32 32" fill="none" xmlns="http://www.w3.org/2000/svg">
<g clip-path="url(#clip0_2257_9465)">
<path d="M32.0001 11.3653V11.4279C31.9843 11.443 31.9742 11.4622 31.9701 11.4839C31.9692 11.5056 31.9684 11.5273 31.9684 11.549C31.9684 11.5707 31.9684 11.5924 31.9684 11.6141C31.9684 11.6358 31.9684 11.6575 31.9684 11.6792C31.9684 11.7009 31.9684 11.7226 31.9684 11.7443C31.9684 11.766 31.9684 11.7877 31.9701 11.8094C31.9742 11.8311 31.9843 11.8495 32.0001 11.8654V12.6768C31.9717 12.7026 31.9692 12.7369 31.9692 12.7719C31.9692 12.7953 31.9692 12.8178 31.9692 12.8412C31.9692 12.8637 31.9692 12.8871 31.9692 12.9097C31.9692 12.9322 31.9692 12.9556 31.9692 12.9781C31.9692 13.0007 31.9692 13.0232 31.9692 13.0457C31.9692 13.0683 31.9692 13.0908 31.9692 13.1133C31.9692 13.1359 31.9692 13.1584 31.9709 13.181C31.9742 13.2035 31.9851 13.2227 32.0009 13.2386V13.3638C31.8925 13.4898 31.9484 13.6443 31.9325 13.7845C31.6806 16.0284 30.0941 17.9241 27.9279 18.5644C27.5301 18.6821 27.1272 18.7806 26.7151 18.8298C26.575 18.8465 26.4224 18.8849 26.3106 18.7464C26.2005 18.566 26.2247 18.364 26.2239 18.1687C26.2222 15.7779 26.223 13.388 26.2222 10.9972C26.2222 10.7476 26.2205 10.4997 26.1671 10.2534C26.0662 9.78596 25.7684 9.57142 25.2613 9.61316C24.911 9.64238 24.6023 9.99382 24.6015 10.3878C24.594 12.9547 24.5998 15.5225 24.5973 18.0894C24.5973 18.2964 24.6182 18.5059 24.5581 18.7088C24.4964 18.8732 24.3588 18.8707 24.222 18.8532C23.543 18.7647 22.8857 18.612 22.2601 18.3089C21.8306 18.1011 21.396 17.9124 21.0281 17.6027C20.9022 17.4967 20.7612 17.4024 20.7204 17.2254C20.7304 17.0902 20.8188 16.9975 20.9047 16.909C21.8864 15.8981 22.2852 14.6401 22.447 13.277C22.6864 11.2635 22.1475 9.4028 21.361 7.58885C21.1958 7.20736 21.0298 6.82671 20.8121 6.47026C20.747 6.36424 20.6945 6.24988 20.6912 6.12049C20.7095 5.91347 20.8363 5.7557 20.9389 5.58958C21.6637 4.4159 22.4979 3.33654 23.6114 2.50177C23.7699 2.38324 23.9417 2.28807 24.1027 2.17454C25.1754 1.5685 26.1746 1.79138 27.1297 2.45419C27.9855 3.04688 28.6611 3.81904 29.2584 4.66215C30.4595 6.3584 31.342 8.20407 31.8224 10.2359C31.8875 10.5105 31.92 10.7868 31.9359 11.0673C31.9417 11.1708 31.9267 11.2769 31.9984 11.3653H32.0001Z" fill="#00A66C"/>
<path d="M32.0001 31.4098C31.4612 32.2079 30.6371 31.965 29.8973 31.9658C25.293 31.9733 20.6895 31.9641 16.0852 31.9608C15.965 31.8506 15.9642 31.702 15.9634 31.5568C15.96 29.9582 15.9609 28.3596 15.9634 26.7602C15.9634 26.6358 15.9684 26.5106 16.0284 26.3962C16.1144 26.2627 16.2495 26.2535 16.3838 26.271C16.599 26.3002 16.8133 26.2844 17.0285 26.2819C17.8877 26.2894 18.746 26.3011 19.6035 26.3595C20.6661 26.4313 21.7296 26.5039 22.7873 26.6341C23.3311 26.7009 23.8791 26.7376 24.4188 26.8387C25.0719 26.9605 25.7342 27.0181 26.389 27.1358C27.9304 27.3821 29.4577 27.6976 30.9725 28.0724C31.0926 28.1025 31.2127 28.1325 31.3303 28.1726C31.6906 28.2937 31.9267 28.5282 32.0009 28.9105V31.4082L32.0001 31.4098Z" fill="#60BD6A"/>
<path d="M8.12266 2.24219C8.90423 1.2388 9.81258 0.403193 11.0496 0H11.1121C11.1346 0.025043 11.163 0.032556 11.1947 0.0317212C11.2156 0.0317212 11.2356 0.0317212 11.2564 0.0317212C11.2773 0.0317212 11.2981 0.0317212 11.319 0.0317212C11.3398 0.0317212 11.3615 0.0317212 11.3824 0.0317212C11.4149 0.0317212 11.4474 0.0317212 11.48 0.0317212C11.5025 0.0317212 11.5242 0.0317212 11.5459 0.0317212C11.5684 0.0317212 11.5909 0.0317212 11.6134 0.0317212C11.636 0.0317212 11.6585 0.0317212 11.6818 0.0317212C11.7052 0.0317212 11.7277 0.0317212 11.7511 0.0317212C11.7744 0.0317212 11.7978 0.0317212 11.8211 0.0317212C11.8445 0.0317212 11.8678 0.0317212 11.892 0.0317212C11.9396 0.0317212 11.9879 0.0300517 12.0355 0.035895C12.0705 0.0475818 12.1056 0.0584338 12.1431 0.0617728C12.1815 0.0642771 12.2198 0.0667815 12.2574 0.0767987C12.2957 0.090155 12.3349 0.0985026 12.3725 0.112694C12.5176 0.167788 12.6569 0.235405 12.782 0.328899C13.5085 0.797204 14.1383 1.37486 14.6871 2.04351C14.7389 2.10695 14.8098 2.15704 14.8148 2.24887C14.8031 2.35321 14.728 2.41165 14.6504 2.46257C13.3617 3.31737 12.4734 4.52862 11.6743 5.82167C11.5959 5.94856 11.5475 6.11301 11.364 6.14055C11.2331 6.09464 11.1847 5.97277 11.123 5.86759C10.6142 5.00527 10.0269 4.20055 9.34464 3.47013C9.03435 3.13789 8.68068 2.84572 8.307 2.5811C8.1969 2.50347 8.03341 2.43669 8.12349 2.24219H8.12266Z" fill="#00A66C"/>
<path d="M21.1207 0C22.3519 0.436584 23.2644 1.2989 24.1044 2.25805C22.643 3.2222 21.6371 4.59206 20.7454 6.06459C20.5402 6.07544 20.5043 5.89179 20.4293 5.76908C19.8762 4.86336 19.2448 4.02024 18.4949 3.26895C18.2155 2.9893 17.9052 2.74889 17.5866 2.5185C17.5032 2.45839 17.4048 2.41582 17.3655 2.3098C17.3514 2.19627 17.4056 2.10362 17.4748 2.02849C18.0787 1.37653 18.6726 0.714562 19.47 0.282152C19.7378 0.136902 20.0289 0.0851463 20.3125 0H20.375C20.3909 0.0166954 20.4101 0.0267126 20.4326 0.0300517C20.4551 0.0308864 20.4768 0.0317212 20.4993 0.0317212C20.521 0.0317212 20.5435 0.0317212 20.5652 0.0317212C20.5869 0.0317212 20.6086 0.0317212 20.6311 0.0317212C20.6528 0.0317212 20.6745 0.0317212 20.6962 0.0317212C20.7279 0.0317212 20.7604 0.0317212 20.7921 0.0317212C20.8129 0.0317212 20.8338 0.0317212 20.8547 0.0317212C20.8755 0.0317212 20.8955 0.0317212 20.9164 0.0317212C20.9364 0.0317212 20.9573 0.0317212 20.9773 0.0317212C21.009 0.032556 21.0373 0.025043 21.059 0H21.1216H21.1207Z" fill="#0C7669"/>
<path d="M11.4849 0.0626076H11.3607C11.3381 0.0484166 11.3298 0.0350603 11.3381 0.0208692C11.3448 0.00667814 11.3523 0 11.3598 0H11.4841C11.5066 0.0141911 11.515 0.0275473 11.5066 0.0417384C11.4991 0.0559295 11.4916 0.0626076 11.4841 0.0626076H11.4849Z" fill="#00A66C"/>
<path d="M20.8102 0.0617728C20.7685 0.0617728 20.7268 0.0617728 20.6843 0.0617728C20.6617 0.0475818 20.6542 0.0342255 20.6618 0.0200344C20.6701 0.00667814 20.6776 0 20.6851 0H20.8094C20.8319 0.0133563 20.8403 0.0275473 20.8327 0.0409036C20.8252 0.0550947 20.8177 0.0617728 20.8102 0.0617728Z" fill="#0C7669"/>
<path d="M31.9424 12.8036L31.9999 12.6768V12.802C31.9824 12.8337 31.9632 12.8329 31.9424 12.8045V12.8036Z" fill="#00A66C"/>
<path d="M11.234 0.0584338C11.2131 0.0584338 11.1914 0.0567642 11.1706 0.0559295C11.1572 0.0425732 11.153 0.0300517 11.1581 0.0175301C11.1639 0.00584338 11.1689 0 11.1739 0H11.2365C11.2598 0.0133563 11.2673 0.0267126 11.259 0.0392341C11.2506 0.0517556 11.2431 0.057599 11.2348 0.057599L11.234 0.0584338Z" fill="#00A66C"/>
<path d="M11.2339 0.0584338C11.2347 0.0392341 11.2356 0.0191997 11.2356 0H11.2981C11.3156 0.0141911 11.3215 0.0275473 11.3156 0.0417384C11.3098 0.0559295 11.304 0.0626076 11.2981 0.0626076C11.2773 0.0609381 11.2556 0.0601033 11.2347 0.0584338H11.2339Z" fill="#00A66C"/>
<path d="M11.2981 0.0626076C11.2981 0.0417384 11.2981 0.0208692 11.2981 0H11.3607C11.3607 0.0208692 11.3607 0.0417384 11.3607 0.0626076C11.3398 0.0626076 11.3189 0.0626076 11.2981 0.0626076Z" fill="#00A66C"/>
<path d="M11.6109 0.0584338C11.5901 0.0601033 11.5684 0.0609381 11.5475 0.0626076C11.53 0.0484166 11.5242 0.0350603 11.53 0.0208692C11.535 0.00667814 11.5409 0 11.5467 0H11.6093C11.6318 0.0125215 11.6393 0.025043 11.6326 0.0383993C11.6259 0.0517556 11.6184 0.0584338 11.6109 0.0584338Z" fill="#00A66C"/>
<path d="M11.6108 0.0584338C11.61 0.0392341 11.6091 0.0191997 11.6091 0H11.6717C11.6934 0.010852 11.7017 0.0233735 11.695 0.035895C11.6884 0.0492513 11.6817 0.0559295 11.675 0.0559295C11.6542 0.0567642 11.6325 0.057599 11.6116 0.0584338H11.6108Z" fill="#00A66C"/>
<path d="M11.6742 0.0559295C11.6726 0.0375646 11.6717 0.0183649 11.6709 0H11.7335C11.7543 0.0100172 11.7627 0.021704 11.7568 0.0342255C11.751 0.0475818 11.7443 0.0534252 11.7376 0.0534252C11.7168 0.0534252 11.6951 0.0550947 11.6742 0.0559295Z" fill="#00A66C"/>
<path d="M11.7376 0.0534252C11.7351 0.035895 11.7334 0.0175301 11.7334 0H11.796C11.8126 0.010852 11.8185 0.0225387 11.8143 0.0350603C11.8093 0.0475818 11.8043 0.0542599 11.7993 0.0542599L11.7693 0.0584338L11.7392 0.0542599L11.7376 0.0534252Z" fill="#00A66C"/>
<path d="M11.7985 0.0534252C11.796 0.035895 11.7952 0.0175301 11.7952 0H11.8577C11.8577 0.0175301 11.8594 0.0342255 11.8611 0.0517556C11.8402 0.0517556 11.8194 0.0534252 11.7985 0.0542599V0.0534252Z" fill="#00A66C"/>
<path d="M21.0582 0C21.0382 0.0183649 21.019 0.0375646 20.999 0.0559295C20.9739 0.0450775 20.9656 0.032556 20.9731 0.0200344C20.9806 0.00667814 20.9881 0 20.9965 0C21.0173 0 21.0382 0 21.059 0H21.0582Z" fill="#0C7669"/>
<path d="M20.9965 0C20.9965 0.0183649 20.9981 0.0375646 20.9998 0.0559295C20.9781 0.057599 20.9564 0.0601033 20.9347 0.0617728C20.9122 0.0475818 20.9039 0.0342255 20.9114 0.0200344C20.9189 0.00667814 20.9264 0 20.9339 0H20.9965Z" fill="#0C7669"/>
<path d="M20.8103 0.0617728C20.8103 0.0409036 20.8103 0.0208692 20.8103 0H20.8729C20.8904 0.0141911 20.8962 0.0275473 20.8904 0.0417384C20.8845 0.0559295 20.8787 0.0626076 20.8729 0.0626076C20.852 0.0626076 20.832 0.0626076 20.8111 0.0626076L20.8103 0.0617728Z" fill="#0C7669"/>
<path d="M20.8721 0.0626076C20.8721 0.0417384 20.8721 0.0208692 20.8721 0H20.9346C20.9346 0.0208692 20.9346 0.0417384 20.9346 0.0626076C20.9138 0.0626076 20.8929 0.0626076 20.8721 0.0626076Z" fill="#0C7669"/>
<path d="M31.9475 11.4881C31.965 11.468 31.9825 11.4472 31.9992 11.4271V11.4897C31.9809 11.5223 31.9634 11.5206 31.9475 11.4881Z" fill="#00A66C"/>
<path d="M31.9474 11.4881C31.9649 11.4881 31.9824 11.4881 31.9991 11.4898V11.5524C31.9807 11.5858 31.9632 11.5833 31.9465 11.5507C31.9465 11.5298 31.9465 11.509 31.9465 11.4881H31.9474Z" fill="#00A66C"/>
<path d="M31.9475 11.5507C31.965 11.5507 31.9825 11.5507 32.0001 11.5523V11.6149C31.9809 11.6467 31.9634 11.6467 31.9475 11.6133C31.9475 11.5924 31.9475 11.5715 31.9475 11.5515V11.5507Z" fill="#00A66C"/>
<path d="M31.9474 11.6125C31.9649 11.6125 31.9824 11.6133 31.9999 11.6141V11.6767C31.9807 11.7085 31.9632 11.7093 31.9465 11.6742C31.9465 11.6534 31.9465 11.6325 31.9474 11.6116V11.6125Z" fill="#00A66C"/>
<path d="M31.9467 11.675C31.9643 11.675 31.9826 11.6767 32.0001 11.6776V11.7402C31.9801 11.7727 31.9618 11.7719 31.9451 11.7377C31.9451 11.7168 31.9459 11.6959 31.9467 11.675Z" fill="#00A66C"/>
<path d="M31.9449 11.7377C31.9632 11.7385 31.9816 11.7393 31.9999 11.7402V11.8028C31.9799 11.8245 31.9607 11.8237 31.9424 11.8011C31.9432 11.7802 31.9441 11.7594 31.9449 11.7385V11.7377Z" fill="#00A66C"/>
<path d="M20.6853 0C20.6853 0.0208692 20.6853 0.0409036 20.6853 0.0617728C20.6645 0.0617728 20.6436 0.0609381 20.6228 0.0601033C20.6003 0.0459122 20.5936 0.032556 20.6011 0.0191997C20.6078 0.00667814 20.6153 0 20.6236 0H20.6862H20.6853Z" fill="#0C7669"/>
<path d="M11.1739 0C11.1739 0.0183649 11.1722 0.0375646 11.1705 0.0559295C11.1505 0.0375646 11.1313 0.0183649 11.1113 0C11.1322 0 11.153 0 11.1739 0Z" fill="#7CBE99"/>
<path d="M31.9425 12.8037C31.9617 12.8028 31.9809 12.802 32.0001 12.8011V12.8638C31.9826 12.8946 31.9651 12.8955 31.9459 12.8654C31.9425 12.8446 31.9409 12.8245 31.9425 12.8037Z" fill="#00A66C"/>
<path d="M31.9458 12.8654C31.9642 12.8654 31.9817 12.8646 32 12.8638V12.9264C31.9833 12.9581 31.965 12.9573 31.9466 12.928C31.9466 12.9072 31.9466 12.8863 31.9458 12.8654Z" fill="#00A66C"/>
<path d="M31.9465 12.9272C31.964 12.9272 31.9824 12.9272 31.9999 12.9255V12.9881C31.9832 13.0182 31.9657 13.0199 31.9474 12.9898C31.9474 12.9689 31.9474 12.9481 31.9474 12.9272H31.9465Z" fill="#00A66C"/>
<path d="M31.9475 12.9907C31.965 12.9907 31.9825 12.9898 32.0001 12.989V13.0516C31.9842 13.0817 31.9667 13.0833 31.9475 13.0541C31.9475 13.0333 31.9475 13.0124 31.9475 12.9915V12.9907Z" fill="#00A66C"/>
<path d="M31.9474 13.0533C31.9649 13.0533 31.9824 13.0533 31.9999 13.0508V13.1134C31.9832 13.1451 31.9657 13.1443 31.9465 13.1151C31.9465 13.0942 31.9465 13.0742 31.9465 13.0533H31.9474Z" fill="#00A66C"/>
<path d="M31.9417 11.8003C31.9608 11.8011 31.98 11.802 31.9992 11.802V11.8646C31.98 11.8429 31.9608 11.822 31.9417 11.8003Z" fill="#00A66C"/>
<path d="M32.0001 13.2386C31.9825 13.2185 31.965 13.1977 31.9475 13.1776C31.9642 13.1509 31.9817 13.1518 32.0001 13.176V13.2386Z" fill="#00A66C"/>
<path d="M20.6235 0C20.6235 0.0200344 20.6235 0.0400689 20.6226 0.0609381C20.6018 0.0609381 20.5809 0.0592685 20.5601 0.0592685C20.5384 0.0459122 20.5309 0.032556 20.5392 0.0191997C20.5459 0.00667814 20.5534 0 20.5609 0H20.6235Z" fill="#0C7669"/>
<path d="M20.561 0C20.561 0.0191997 20.561 0.0392341 20.5593 0.0584338C20.5377 0.057599 20.5168 0.0567642 20.4959 0.0559295C20.4751 0.0425732 20.4693 0.0292169 20.4768 0.0175301C20.4843 0.00584338 20.4918 0 20.4993 0H20.5618H20.561Z" fill="#0C7669"/>
<path d="M20.4993 0C20.4993 0.0183649 20.4976 0.0375646 20.4959 0.0559295C20.4751 0.0559295 20.4534 0.0550947 20.4325 0.0542599C20.4192 0.0409036 20.4159 0.0283821 20.4217 0.0166954C20.4267 0.00584338 20.4317 0 20.4367 0H20.4993Z" fill="#0C7669"/>
<path d="M20.4367 0C20.4367 0.0183649 20.4351 0.0367298 20.4326 0.0542599C20.4134 0.035895 20.3942 0.0175301 20.375 0C20.3959 0 20.4167 0 20.4376 0H20.4367Z" fill="#0C7669"/>
<path d="M11.5467 0C11.5467 0.0208692 11.5467 0.0417384 11.5467 0.0626076C11.5258 0.0626076 11.505 0.0626076 11.4841 0.0626076C11.4841 0.0417384 11.4841 0.0208692 11.4841 0H11.5467Z" fill="#00A66C"/>
<path d="M32.0001 13.1759C31.9825 13.1759 31.965 13.1768 31.9475 13.1776C31.9475 13.1568 31.9475 13.1359 31.9475 13.115C31.965 13.115 31.9825 13.1142 32.0009 13.1133V13.1759H32.0001Z" fill="#00A66C"/>
<path d="M16.0191 1.92914C16.4762 2.05352 16.9324 2.1779 17.3895 2.30144C18.9076 3.19632 19.8068 4.64798 20.7452 6.06458C21.762 8.04715 22.6236 10.0815 22.6069 12.3646C22.5936 14.2128 22.124 15.9048 20.751 17.2396C20.7619 17.3924 20.6384 17.4525 20.5458 17.5276C19.6049 18.2814 18.5231 18.6888 17.3378 18.8374C17.2002 18.8549 17.0434 18.9041 16.95 18.733C16.8807 18.5527 16.8999 18.3641 16.8999 18.1779C16.8982 15.7896 16.8999 13.4014 16.8991 11.0139C16.8991 10.8269 16.9049 10.6399 16.8841 10.4538C16.8165 9.84358 16.7122 9.72003 16.1284 9.55057C16.0916 9.53221 16.0616 9.50549 16.0374 9.4721C15.9599 9.34021 15.9624 9.19329 15.9624 9.04888C15.9607 6.79751 15.9624 4.54614 15.9607 2.29477C15.9607 2.16872 15.9715 2.04684 16.0191 1.92914Z" fill="#60BD6A"/>
<path d="M24.4771 26.9664C24.4738 24.2433 24.4705 21.5195 24.4671 18.7965C24.4705 16.0827 24.4888 13.368 24.4655 10.6542C24.4605 10.0656 24.6031 9.59233 25.1911 9.4955C26.067 9.35109 26.3397 9.92457 26.3405 10.6892C26.3439 13.2578 26.3405 15.8264 26.3447 18.395C26.3447 18.5252 26.3831 18.6554 26.4039 18.7856C26.3831 20.3475 26.3564 21.9085 26.3439 23.4704C26.3339 24.7192 26.3422 25.9671 26.3422 27.216C25.7208 27.1325 25.0986 27.0498 24.4771 26.9664Z" fill="#36414D"/>
<path d="M8.12261 2.24218C9.44385 3.33071 10.5649 4.58871 11.3606 6.11967C11.4374 6.21066 11.389 6.29998 11.3448 6.37929C10.9678 7.06129 10.7 7.79672 10.3363 8.48541C10.2162 8.71413 10.2087 8.98376 10.132 9.23252C9.93014 9.88615 9.69241 10.5473 9.65404 11.2234C9.61401 11.9121 9.61818 12.615 9.68407 13.3087C9.7091 13.5767 9.75831 13.8413 9.7533 14.1142C9.74913 14.3305 9.81836 14.5433 9.91846 14.7412C10.1245 15.1485 10.2963 15.5718 10.4723 15.9933C10.6183 16.3431 10.9386 16.5676 11.1655 16.8615C11.2589 16.9825 11.3982 17.0735 11.4032 17.2496C11.3848 17.374 11.2964 17.4458 11.208 17.5193C10.3222 18.2597 9.28036 18.6312 8.16098 18.8165C7.98998 18.8449 7.80815 18.8641 7.66134 18.7238C7.5454 18.5452 7.57209 18.3423 7.57209 18.147C7.57042 15.7646 7.57209 13.3822 7.57042 10.9997C7.57042 10.771 7.57376 10.5439 7.52788 10.3161C7.42696 9.81185 7.15337 9.58229 6.67125 9.61652C6.24084 9.64657 5.95391 9.98048 5.95057 10.4688C5.94473 11.4363 5.9489 12.4038 5.94807 13.3713C5.94807 15.0049 5.94974 16.6386 5.94557 18.2714C5.94557 18.4525 5.98477 18.652 5.81711 18.7948C0.705655 17.92 -1.26536 13.5792 1.03179 8.21744C2.06443 5.8083 3.30059 3.54358 5.67948 2.17205C6.50859 1.69373 7.31435 1.99842 8.12261 2.24218Z" fill="#60BD6A"/>
<path d="M16.0817 26.3586C16.0825 28.226 16.0842 30.0942 16.085 31.9616C11.0444 31.9649 6.0047 31.9716 0.964146 31.9649C0.550424 31.9649 0.277669 31.6636 0.183414 31.2888C-0.347918 29.1685 0.250143 28.2669 2.34711 27.9063C3.51237 27.7059 4.66762 27.4472 5.82787 27.2151C5.92296 27.1249 6.04307 27.0966 6.16569 27.0765C6.67366 26.9939 7.18247 26.9129 7.69462 26.8545C8.46951 26.7159 9.25275 26.6374 10.0343 26.5673C11.5999 26.4279 13.1656 26.2752 14.7412 26.2944C14.8655 26.296 14.9898 26.286 15.1124 26.3127C15.4235 26.3394 15.7355 26.19 16.0466 26.3144C16.0583 26.3286 16.07 26.3436 16.0817 26.3578V26.3586Z" fill="#9CCB43"/>
<path d="M7.69232 26.9664C7.07091 27.0499 6.44866 27.1325 5.82724 27.216C5.82391 24.4095 5.82057 21.603 5.81723 18.7965C5.82057 16.0818 5.83725 13.3672 5.81723 10.6525C5.81223 9.98302 6.00491 9.53725 6.71808 9.49718C7.55219 9.45044 7.68231 10.0531 7.68565 10.6826C7.69983 13.252 7.69066 15.8214 7.69399 18.3908C7.69399 18.5085 7.7332 18.6262 7.75405 18.7439C7.82995 18.8666 7.81494 19.0044 7.81494 19.1379C7.81494 21.5587 7.81494 23.9796 7.81494 26.4004C7.81494 26.5982 7.82411 26.7978 7.69149 26.9664H7.69232Z" fill="#4E6666"/>
<path d="M17.0277 18.7965C17.0211 21.315 17.0144 23.8335 17.0069 26.3519C16.6983 26.3545 16.3896 26.357 16.081 26.3586L16.0885 26.3444C15.9259 26.1858 15.9617 25.9788 15.9617 25.7851C15.9592 22.4978 15.9601 19.2105 15.9601 15.9232C15.9601 13.9673 15.9584 12.0115 15.9626 10.0564C15.9626 9.85693 15.9134 9.62821 16.1469 9.50216C16.9927 9.45958 17.0036 10.0932 17.0077 10.6491C17.0302 13.3646 17.0227 16.081 17.0261 18.7965H17.0277Z" fill="#36414D"/>
<path d="M11.3657 17.2388C9.44728 15.4699 9.33301 13.1176 9.59742 10.8136C9.78593 9.16743 10.5183 7.58972 11.3616 6.11969C12.2933 4.64048 13.2709 3.20218 14.7881 2.24637C15.1985 2.14119 15.6089 2.03517 16.0193 1.92999C16.041 3.7932 16.0652 5.6564 16.0843 7.51876C16.091 8.17322 16.0843 8.82768 16.0843 9.48131C16.0251 9.55977 15.9375 9.58899 15.8525 9.62822C15.4771 9.80352 15.2652 10.0623 15.2677 10.5206C15.2811 13.0658 15.2752 15.611 15.2736 18.1562C15.2736 18.3424 15.2911 18.531 15.2319 18.7122C15.1818 18.8457 15.0692 18.8608 14.9516 18.8491C13.6646 18.7197 12.4935 18.3015 11.4984 17.4458C11.4333 17.3899 11.3899 17.3214 11.3674 17.2388H11.3657Z" fill="#9CCB43"/>
<path d="M12.0364 0.0667725C12.0597 0.0826331 12.0839 0.0984936 12.1073 0.115189C12.0839 0.0993284 12.0597 0.0834678 12.0364 0.0667725Z" fill="#00A66C"/>
<path d="M15.1424 18.7965C15.1458 16.0184 15.1533 13.2402 15.1499 10.463C15.1491 9.81769 15.4953 9.54222 16.0842 9.48212C16.1058 9.48879 16.1275 9.49547 16.1492 9.50215C16.1284 9.60232 16.0883 9.70166 16.0883 9.80183C16.0867 15.3163 16.0883 20.8308 16.09 26.3453C15.778 26.3653 15.4652 26.3845 15.1533 26.4045C15.0332 26.2943 15.0315 26.1458 15.0315 26.0005C15.0282 23.7358 15.029 21.4711 15.0315 19.2063C15.0315 19.0594 15.0373 18.9142 15.1441 18.7965H15.1424Z" fill="#4E6666"/>
</g>
<defs>
<clipPath id="clip0_2257_9465">
<rect width="32" height="32" fill="white"/>
</clipPath>
</defs>
</svg>
