<svg width="6" height="10" viewBox="0 0 6 10" fill="none" xmlns="http://www.w3.org/2000/svg">
<path fill-rule="evenodd" clip-rule="evenodd" d="M1.40008 1C1.50247 1 1.60487 1.04355 1.68287 1.13022L4.88271 4.68573C5.0391 4.8595 5.0391 5.14039 4.88271 5.31416L1.68287 8.86967C1.52647 9.04344 1.27369 9.04344 1.11729 8.86967C0.960902 8.69589 0.960902 8.41501 1.11729 8.24123L4.03435 4.99994L1.11729 1.75866C0.960902 1.58488 0.960902 1.304 1.11729 1.13022C1.19529 1.04355 1.29769 1 1.40008 1Z" fill="#2644AC"/>
<path fill-rule="evenodd" clip-rule="evenodd" d="M1.40008 1C1.50247 1 1.60487 1.04355 1.68287 1.13022L4.88271 4.68573C5.0391 4.8595 5.0391 5.14039 4.88271 5.31416L1.68287 8.86967C1.52647 9.04344 1.27369 9.04344 1.11729 8.86967C0.960902 8.69589 0.960902 8.41501 1.11729 8.24123L4.03435 4.99994L1.11729 1.75866C0.960902 1.58488 0.960902 1.304 1.11729 1.13022C1.19529 1.04355 1.29769 1 1.40008 1Z" stroke="#2644AC"/>
</svg>
